<svg xmlns="http://www.w3.org/2000/svg" data-name="Tow Color" viewBox="0 0 1000 800"><g data-name="Hotel receptionist"><g data-name="Layer 2"><path d="M898.97 569.212v90.76H669.6v-90.76a13.079 13.079 0 0 1 13.06-13.07h203.25a13.079 13.079 0 0 1 13.06 13.07Z"/><path fill="#fff" d="M669.6 608.152h229.37v2H669.6z"/><path fill="#fff" d="M826.22 591.322a4.8 4.8 0 1 0-5.8 4.7c-.1 3.1-1.01 14.01-8.87 22.14-6.25 6.46-15.42 9.73-27.25 9.73s-21-3.28-27.25-9.73c-7.87-8.13-8.78-19.05-8.87-22.14a4.81 4.81 0 1 0-2 0c.07 3.32.96 14.75 9.43 23.51 6.64 6.88 16.3 10.36 28.7 10.36s22.06-3.49 28.7-10.36c8.47-8.77 9.36-20.2 9.43-23.51a4.809 4.809 0 0 0 3.78-4.7ZM730.54 597.052v23.57a5.887 5.887 0 0 1-5.87 5.88h-8.02a5.881 5.881 0 0 1-5.87-5.88v-23.57a5.872 5.872 0 0 1 5.87-5.87h8.02a5.879 5.879 0 0 1 5.87 5.87ZM857.94 597.052v23.57a5.881 5.881 0 0 1-5.87 5.88h-8.02a5.881 5.881 0 0 1-5.87-5.88v-23.57a5.872 5.872 0 0 1 5.87-5.87h8.02a5.872 5.872 0 0 1 5.87 5.87Z"/><path fill="#2e45e5" d="M720.66 607.842a1.003 1.003 0 0 0-1 1v7.12a1 1 0 0 0 2 0v-7.12a.997.997 0 0 0-1-1ZM848.06 607.842a1.003 1.003 0 0 0-1 1v7.12a1 1 0 0 0 2 0v-7.12a.997.997 0 0 0-1-1ZM730.54 604.472v1.98a.57.57 0 0 1-.13.01h-19.63v-2h19.63a.57.57 0 0 1 .13.01ZM838.18 604.462h19.76v2h-19.76z"/><path fill="#ffc062" d="m808.52 632.882-10.09-.95-1.3 8.51 11.77 16.31 12.15-7.83Zm-4.18 9.49a3.395 3.395 0 1 1 3.4-3.39 3.393 3.393 0 0 1-3.4 3.39Z"/><path fill="#fff" d="M797.35 625.782a2.546 2.546 0 0 0-2.22.53 2.497 2.497 0 0 0-.9 2.03c.12 2.45.78 5.87 3.25 8.29a.997.997 0 0 0 1.39-1.43c-2.11-2.06-2.56-5.24-2.65-6.95a.488.488 0 0 1 .18-.4.584.584 0 0 1 .49-.12c7.37 1.69 6.48 10.44 6.44 10.81a.992.992 0 0 0 .88 1.1c.04 0 .08.01.11.01a1.003 1.003 0 0 0 .99-.89c.45-3.76-.66-11.31-7.96-12.98Z"/></g><g data-name="Layer 3"><path fill="#fff" d="m524.45 353.652-.01-.03-12.79-3.73-18.15 31.26-33.99-27.52-11.81 2.67 3.41 22.57c6.65 46.96 18.97 112.64 60.54 110.87 43.47-1.84 13.35-133.67 12.8-136.09ZM533.27 257.632v17.45a48.666 48.666 0 0 1-73.24 42.01l-.23-.13a48.711 48.711 0 0 1-23.66-37.5c-.13-1.47-.2-2.94-.2-4.38v-14.15c6.05-.85 41.15-6.78 57.86-31.99 3.87 4.52 20 22.24 39.47 28.69Z"/><path fill="#2e45e5" d="M534.57 255.952c-22.01-6.96-39.92-29.09-40.1-29.32l-.88-1.1-.75 1.2c-17.33 27.69-57.6 32.28-58.01 32.33l-.89.09v15.93c0 1.5.07 3.03.2 4.56a50.763 50.763 0 0 0 24.86 39.17l.25.14a50.665 50.665 0 0 0 76.02-43.87v-18.91Zm-1.3 19.13a48.666 48.666 0 0 1-73.24 42.01l-.23-.13a48.711 48.711 0 0 1-23.66-37.5c-.13-1.47-.2-2.94-.2-4.38v-14.15c6.05-.85 41.15-6.78 57.86-31.99 3.87 4.52 20 22.24 39.47 28.69Z"/><circle cx="462.205" cy="281.992" r="10.53" fill="#ffc1bb" transform="rotate(-13.286 462.205 281.992)"/><path fill="#fff" d="M435.09 285.872h-6.07a12.428 12.428 0 0 1-12.41-12.41 12.428 12.428 0 0 1 12.41-12.41h4.92v14.03c0 1.5.07 3.03.2 4.56a52.952 52.952 0 0 0 .95 6.23Z"/><path fill="#2e45e5" d="M437.32 286.632a48.727 48.727 0 0 1-1.18-7.17c-.13-1.47-.2-2.94-.2-4.38v-16.03h-6.92a14.41 14.41 0 0 0 0 28.82h8.6Zm-8.3-25.58h4.92v14.03c0 1.5.07 3.03.2 4.56a52.967 52.967 0 0 0 .95 6.23h-6.07a12.428 12.428 0 0 1-12.41-12.41 12.428 12.428 0 0 1 12.41-12.41ZM496.69 304.222a1.003 1.003 0 0 0-1.19-.77c-16.98 3.62-21.64-7.64-21.83-8.13a.997.997 0 1 0-1.86.72c.04.12 4.09 10.11 17.42 10.11a32.287 32.287 0 0 0 6.69-.75.995.995 0 0 0 .77-1.18Z"/><path d="M518.79 188.652a68.762 68.762 0 0 0-54.18-9.94c-15.91 3.81-28.63 13.02-35.83 25.91-13.19 23.65-6.98 48.63-6.91 48.93l2.57 8.12 12.54-.87.46-.09c27.17-5.65 46.12-16.34 56.36-31.77 3.92 4.57 20.39 22.66 40.17 28.91a48.107 48.107 0 0 0 6.89 1.65l.98.16.17-.98c.08-.48 7.99-49.07-23.22-70.03ZM439.89 166.082c-.02-.02-1.97-2.5-1.65-10.47.23-5.68-1.05-9.88-3.81-12.46-2.74-2.56-6.92-3.57-12.42-2.98-14.61 1.56-30.63 16.21-32.97 30.15-.42 2.48-.7 7.16 2.07 10.67 2.06 2.61 5.39 4.09 9.88 4.4 10.1.7 12.94 4.38 12.96 4.41l.93 1.33.77-1.43c.07-.13 7.34-13.35 23.93-22.09l1.07-.59Z"/><path fill="#fff" d="m510.62 349.682-17.4 29.96-32.6-26.4c1.73-8.56.49-27.45.04-33.5a50.7 50.7 0 0 0 47.98-.05c-.21 12.21 1.66 27.53 1.98 29.99Z"/><path fill="#2e45e5" d="M512.64 349.762c-.02-.19-2.43-18.48-1.95-31.77l.07-1.82-1.58.92a48.67 48.67 0 0 1-49.15 0l-.25-.14h-1.36l.09 1.09c.03.25 2.2 26.04.03 35.36l-.15.61 35.39 28.65 18.74-32.27.17-.29Zm-52.02 3.48c1.73-8.56.49-27.45.04-33.5a50.7 50.7 0 0 0 47.98-.05c-.21 12.21 1.66 27.53 1.98 29.99l-17.4 29.96Z"/><path fill="#ffc062" d="m445.22 168.932-.1-.1a7.548 7.548 0 0 0-9.38-1.34 66 66 0 0 0-19.91 18.38 7.524 7.524 0 0 0 .61 9.42l.09.1a7.45 7.45 0 0 0 5.5 2.41c.13 0 .27 0 .4-.01a7.478 7.478 0 0 0 5.61-3.01 57.385 57.385 0 0 1 7.91-8.64 58.37 58.37 0 0 1 7.75-5.8 7.501 7.501 0 0 0 1.52-11.41ZM492.32 406.852l-8.52-10.25.38-.62c2.53-4.07 8.38-15.18 8.43-15.29l.65-1.23.96 1c5.71 5.95 15.04 14.29 15.14 14.37l.55.49-4.54 9.87-.63 1.37.25.69 23.72 65.24a30.809 30.809 0 0 1-4.57 8.54 16.856 16.856 0 0 1-12.99 6.73c-.53.02-1.05.03-1.57.03a32.225 32.225 0 0 1-20.7-7.37l4.12-71.65.06-1.03Z"/><path fill="#2e45e5" d="M494.16 380.402c-5.43-4.72-11.33-9.33-17.04-13.8-5.69-4.44-11.57-9.04-16.95-13.72l-.39-.34-13.21 2.99 4.02 26.78.24.23a214.827 214.827 0 0 1 23.85 28.97l.73 1.08.86-.99c3.08-3.58 16.63-25.38 18.18-30.14l.21-.63Zm-18.6 28.85a218.114 218.114 0 0 0-23.09-27.89l-3.64-24.29 10.41-2.35c5.31 4.6 11.07 9.1 16.65 13.46 5.5 4.3 11.19 8.75 16.43 13.27-2.12 5.16-12.93 22.62-16.76 27.8Z"/><path fill="#2e45e5" d="m525.29 352.832-1.05-.31c-2.31-.67-12.31-3.59-12.31-3.59l-.75-.22-18.92 32.59.52.54c.62.66 15.34 16 22.76 19.93l1.16.62 9.76-44.12Zm-30.55 28.17 17.38-29.93 5.64 1.65c3.15.91 4.85 1.41 5.82 1.65l.83 3.89-9.08 41.08c-6.64-4.14-18.02-15.7-20.59-18.34Z"/><path fill="#2e45e5" d="M588.12 659.972H416.05l-.24-.65c-5.83-15.9-5.5-280.08-5.48-291.32v-.58l.5-.29c12.83-7.4 35.72-11.64 36.69-11.82l1.02-.18.15 1.02c.54 3.7 1.09 7.75 1.68 12.06 1.86 13.63 4.1 30 7.5 46.22 2.91 15.29 6.63 29.97 11.95 42.33 5.24 12.17 11.5 20.91 18.9 26.33a34.171 34.171 0 0 0 20.74 6.7c.59 0 1.18-.01 1.78-.04a18.782 18.782 0 0 0 14.47-7.48 30.382 30.382 0 0 0 4.02-6.98v-.01c7.52-17.76 6.85-51.85-2.02-99.81l-.06-.35c-2.19-12.54-4.12-20.99-4.19-21.27l-.38-1.66 1.63.47c23.28 6.66 31.82 11.03 32.17 11.22l.47.24.06.53c.04.3 3.8 31.36 16.5 80.95 13.02 50.82 14.15 70.46 10.94 103.66-3.14 32.42 3.12 108.86 3.18 109.63Z"/><path fill="#fff" d="M571.35 487.632a3.511 3.511 0 0 0-1.15-2.54 3.596 3.596 0 0 0-2.62-.95l-24.96 1.35a3.559 3.559 0 0 0-3.38 3.65l.34 15.15a3.563 3.563 0 0 0 3.56 3.49h.2l24.96-1.35a3.559 3.559 0 0 0 3.38-3.65ZM477.44 657.972l-64.4.02c-4.05-4.99-47.55-59.27-49.33-86.4-1.92-29.35 3.09-117.47 5.09-130.33 6.28-40.54 25.75-63.65 42.17-71.97 2.72 4.45 16.65 30.65 15.79 96.94-.98 75.97-4.23 98.41-4.26 98.63l-.04.3.12.27c1.42 3.01 33.92 71.98 54.86 92.54Z"/><path fill="#2e45e5" d="M480.65 658.222c-19.88-17.21-53.78-88.41-56.13-93.37.39-2.92 3.32-27.16 4.24-98.59.96-73.87-15.9-97.86-16.62-98.85l-.49-.67-.75.36c-17.04 8.19-37.57 31.89-44.08 73.86-2 12.9-7.03 101.32-5.1 130.76 1.9 28.95 48.1 85.51 50.07 87.9l.3.37 70.58-.02ZM368.8 441.262c6.28-40.54 25.75-63.65 42.17-71.97 2.72 4.45 16.65 30.65 15.79 96.94-.98 75.97-4.23 98.41-4.26 98.63l-.04.3.12.27c1.42 3.01 33.92 71.98 54.86 92.54l-64.4.02c-4.05-4.99-47.55-59.27-49.33-86.4-1.92-29.35 3.09-117.47 5.09-130.33Z"/><path fill="#2e45e5" d="M424.3 564.422c-.21-.29-5.11-7.03-9.15-8.24a1.003 1.003 0 0 0-.58 1.92c2.82.85 6.8 5.7 8.1 7.5a1.01 1.01 0 0 0 .81.42.96.96 0 0 0 .58-.19 1.013 1.013 0 0 0 .24-1.41Z"/><path fill="#fff" d="M627.42 657.972h-39.46c-.7-8.8-6.06-78.22-3.12-108.71 3.22-33.19 2.09-52.82-10.93-103.66-10.89-42.53-15.21-71.43-16.24-78.99 7.55 4.51 38.19 25.77 47.9 78.25 8.4 45.45 14.88 127.23 18.75 176.09 1.3 16.3 2.33 29.35 3.1 37.02ZM505.37 405.192l-13.05 1.66.74.89-.06 1.03 11.99-1.52-.25-.69.63-1.37z"/><path fill="#2e45e5" d="M629.52 658.872c-.78-7.47-1.85-20.98-3.2-38.08-3.88-48.9-10.37-130.74-18.79-176.29-11.24-60.78-50.28-80.45-50.67-80.64l-1.65-.8.22 1.82c.03.31 3.81 31.49 16.54 81.22 12.95 50.54 14.08 70.04 10.88 102.96-3.15 32.61 3.13 109.22 3.19 109.99l.08.92h43.52Zm-41.56-.9c-.7-8.8-6.06-78.22-3.12-108.71 3.22-33.19 2.09-52.82-10.93-103.66-10.89-42.53-15.21-71.43-16.24-78.99 7.55 4.51 38.19 25.77 47.9 78.25 8.4 45.45 14.88 127.23 18.75 176.09 1.3 16.3 2.33 29.35 3.1 37.02ZM429.21 278.162c-4.84.19-5.46-3.55-5.51-3.98a1.002 1.002 0 0 0-1.99.24c.24 2.03 2.03 5.75 7.12 5.75.15 0 .31 0 .47-.01a1.004 1.004 0 0 0 .96-1.04 1.02 1.02 0 0 0-1.05-.96Z"/><path fill="#2e45e5" d="M592.82 540.572c-4.78.91-9.43 6.5-9.63 6.74a1.009 1.009 0 0 0 .13 1.41 1.025 1.025 0 0 0 .64.23.99.99 0 0 0 .77-.36c.04-.05 4.39-5.27 8.46-6.05a.994.994 0 0 0 .79-1.17.98.98 0 0 0-1.16-.8ZM553.63 490.452l-8.8.44a1 1 0 0 0 .05 2h.05l8.8-.44a1.004 1.004 0 0 0 .95-1.05.986.986 0 0 0-1.05-.95ZM565.98 499.032l-20.54.98a1 1 0 0 0 .05 2h.05l20.54-.98a1.001 1.001 0 1 0-.1-2Z"/></g><g data-name="Layer 4"><path d="M849.64 251.732H625.42a1 1 0 0 0 0 2h224.22a1 1 0 0 0 0-2Z"/><path d="M649.83 273.102a13.027 13.027 0 0 1-1.87 6.81 10.648 10.648 0 0 1-4.64 4.2 8.885 8.885 0 0 1-6.52.37 4.533 4.533 0 0 1 2.97-1.55c.08 0 .15-.01.23-.01a8.05 8.05 0 0 0 6.31-4.14 11.14 11.14 0 0 0 1.52-5.68c0-5.43-3.7-9.84-8.25-9.84-4.54 0-8.24 4.41-8.24 9.84a10.94 10.94 0 0 0 1.87 6.22 13.605 13.605 0 0 0-1.55 1.27 12.928 12.928 0 0 1-2.32-7.49c0-6.14 4.06-11.2 9.24-11.78v-8.59a1 1 0 0 1 2 0v8.59c5.18.58 9.25 5.64 9.25 11.78Z"/><path fill="#ffc062" d="M652.54 289.502a12.359 12.359 0 0 1-6.66 10.95v28.6l-4.98 5.91-6.38-6.91 2.87-5.78-2.82-3.95 2.33-5.1v-11.83a12.331 12.331 0 0 1-5.24-20.8 13.602 13.602 0 0 1 1.55-1.27 12.365 12.365 0 0 1 6.99-2.17 12.18 12.18 0 0 1 6.11 1.63 8.05 8.05 0 0 1-6.31 4.14c-.08 0-.15.01-.23.01a4.634 4.634 0 0 0-4.12 4.58 4.59 4.59 0 1 0 7.67-3.4 10.648 10.648 0 0 0 4.64-4.2 12.291 12.291 0 0 1 4.58 9.59Z"/><path d="M747.38 273.102a13.027 13.027 0 0 1-1.87 6.81 10.648 10.648 0 0 1-4.64 4.2 8.885 8.885 0 0 1-6.52.37 4.533 4.533 0 0 1 2.97-1.55c.08 0 .15-.01.23-.01a8.05 8.05 0 0 0 6.31-4.14 11.139 11.139 0 0 0 1.52-5.68c0-5.43-3.7-9.84-8.25-9.84-4.54 0-8.24 4.41-8.24 9.84a10.94 10.94 0 0 0 1.87 6.22 13.605 13.605 0 0 0-1.55 1.27 12.928 12.928 0 0 1-2.32-7.49c0-6.14 4.06-11.2 9.24-11.78v-8.59a1 1 0 0 1 2 0v8.59c5.18.58 9.25 5.64 9.25 11.78Z"/><path fill="#ffc062" d="M750.09 289.502a12.359 12.359 0 0 1-6.66 10.95v28.6l-4.98 5.91-6.38-6.91 2.87-5.78-2.82-3.95 2.33-5.1v-11.83a12.331 12.331 0 0 1-5.24-20.8 13.602 13.602 0 0 1 1.55-1.27 12.365 12.365 0 0 1 6.99-2.17 12.18 12.18 0 0 1 6.11 1.63 8.05 8.05 0 0 1-6.31 4.14c-.08 0-.15.01-.23.01a4.634 4.634 0 0 0-4.12 4.58 4.59 4.59 0 1 0 7.67-3.4 10.648 10.648 0 0 0 4.64-4.2 12.291 12.291 0 0 1 4.58 9.59Z"/><path d="M844.71 273.102a13.027 13.027 0 0 1-1.87 6.81 10.648 10.648 0 0 1-4.64 4.2 8.885 8.885 0 0 1-6.52.37 4.533 4.533 0 0 1 2.97-1.55c.08 0 .15-.01.23-.01a8.05 8.05 0 0 0 6.31-4.14 11.14 11.14 0 0 0 1.52-5.68c0-5.43-3.7-9.84-8.25-9.84-4.54 0-8.24 4.41-8.24 9.84a10.94 10.94 0 0 0 1.87 6.22 13.605 13.605 0 0 0-1.55 1.27 12.928 12.928 0 0 1-2.32-7.49c0-6.14 4.06-11.2 9.24-11.78v-8.59a1 1 0 1 1 2 0v8.59c5.18.58 9.25 5.64 9.25 11.78Z"/><path fill="#ffc062" d="M847.42 289.502a12.359 12.359 0 0 1-6.66 10.95v28.6l-4.98 5.91-6.38-6.91 2.87-5.78-2.82-3.95 2.33-5.1v-11.83a12.331 12.331 0 0 1-5.24-20.8 13.602 13.602 0 0 1 1.55-1.27 12.365 12.365 0 0 1 6.99-2.17 12.18 12.18 0 0 1 6.11 1.63 8.05 8.05 0 0 1-6.31 4.14c-.08 0-.15.01-.23.01a4.634 4.634 0 0 0-4.12 4.58 4.59 4.59 0 1 0 7.67-3.4 10.648 10.648 0 0 0 4.64-4.2 12.291 12.291 0 0 1 4.58 9.59Z"/></g><g data-name="Layer 5"><path fill="#2e45e5" d="M357.67 404.832h-185.9a19.952 19.952 0 0 0-19.93 19.93v156.6a19.952 19.952 0 0 0 19.93 19.93h185.9a19.952 19.952 0 0 0 19.93-19.93v-156.6a19.952 19.952 0 0 0-19.93-19.93Z"/><path d="M296.54 514.792a6.222 6.222 0 0 0-4.75-2.2h-48.66a6.235 6.235 0 0 0-6.12 7.41l3.46 18.13a10.915 10.915 0 0 0 10.71 8.86h33.03a10.868 10.868 0 0 0 10.76-9.13l2.97-18.02a6.213 6.213 0 0 0-1.4-5.05ZM304.63 433.062h-84.15a1 1 0 0 0 0 2h84.15a1 1 0 0 0 0-2ZM293.08 443.442h-61.04a1 1 0 0 0 0 2h61.04a1 1 0 1 0 0-2ZM281.83 453.822h-38.56a1 1 0 0 0 0 2h38.56a1 1 0 0 0 0-2Z"/><path d="M264.63 542.202a1.004 1.004 0 0 0-.96-1.04.985.985 0 0 0-1.04.96c-.01.32-1.28 32.23-1.05 59.04a.994.994 0 0 0 1 .99h.01a.997.997 0 0 0 .99-1.01c-.22-26.75 1.04-58.62 1.05-58.94Z"/><path d="M265.69 634.922c-1.26-5.19-1.97-16.56-2.11-33.77a.994.994 0 0 0-1-.99h-.01a.997.997 0 0 0-.99 1.01c.14 17.37.87 28.89 2.17 34.23a.996.996 0 0 0 1.21.73 1.012 1.012 0 0 0 .73-1.21Z"/><path d="M303.94 634.152h-75.08a12.91 12.91 0 1 0 0 25.82h75.08a12.91 12.91 0 1 0 0-25.82Z"/></g><path d="M920.81 657.972H79.19a1 1 0 0 0 0 2h841.62a1 1 0 0 0 0-2Z" data-name="Layer 1"/></g></svg>