<svg xmlns="http://www.w3.org/2000/svg" enable-background="new 0 0 300 300" viewBox="0 0 300 300"><path fill="#f3f1fc" d="M277.8,171.8c0,0.3,0,0.6-0.1,1c-0.3,7.1-1.1,14.2-2.2,21.2c-0.1,0.7-0.2,1.3-0.3,2c0,0.3-0.1,0.6-0.2,1      c-0.1,0.7-0.3,1.5-0.4,2.2c-1.3,7.1-2.9,14.1-4.8,21c-0.1,0.3-0.2,0.6-0.3,1c-0.2,0.8-0.5,1.7-0.7,2.5      c-1.9,6.6-4.3,13.4-7.8,19.4c-0.3,0.6-0.7,1.2-1.1,1.8H32.4c-0.7-0.6-1.5-1.2-2.1-1.8c-3.9-3.6-6.9-8.1-7.9-13      c-0.4-1.8-0.5-3.6-0.3-5.4c0.1-0.7,0.2-1.4,0.3-2.1c1.9-9,10-15.7,16.1-23.4c1.3-1.7,2.6-3.4,3.6-5.1c0.5-0.8,0.9-1.6,1.3-2.5      c2.8-5.9,3.2-12.3,2.4-18.7c-0.2-1.6-0.5-3.2-0.8-4.7c-0.6-3-1.5-5.9-2.4-8.8c-0.8-2.5-1.8-5.1-2.7-7.6      c-2.9-7.9-5.9-15.9-6.4-24.2c-1.5-21.9,16-43.5,38.8-48c13.5-2.7,27.4,0.1,40.9,2.5c13.5,2.4,27.8,4.2,40.8,0      c6.6-2.2,12.6-6.3,16.7-11.7c1.9-2.6,3.5-5.4,4.3-8.5c0.7-2.4-0.4-7.1,0.6-9c2.8-5,15.2-5.1,20.1-4.7c7.1,0.6,14.1,2.9,20.3,6      c19.1,9.5,34.2,24.8,44.6,42.7c0.5,0.8,1,1.7,1.4,2.5c0.2,0.3,0.3,0.6,0.5,0.8c0,0,0.1,0.1,0.1,0.1c4,7.4,7.2,15.2,9.5,23.2      c0.1,0.3,0.2,0.6,0.3,1c0.2,0.6,0.4,1.3,0.5,1.9c0.3,1,0.5,1.9,0.7,2.9c1.5,6.1,2.5,12.2,3.2,18.4c0,0.3,0.1,0.6,0.1,1      C278,156.3,278.2,164.1,277.8,171.8z"/><path fill="#d0cef2" d="M45.1,168.1c0.3,1.6,0.6,3.2,0.8,4.7c0.8,6.4,0.3,12.8-2.4,18.7c-0.4,0.9-0.9,1.7-1.3,2.5h233.4     c1.1-7,1.9-14.1,2.3-21.2c0-0.3,0-0.6,0.1-1c0.3-7.8,0.2-15.5-0.6-23.2c0-0.3-0.1-0.6-0.1-1c-0.6-6.2-1.7-12.3-3.2-18.4     c-0.2-1-0.5-1.9-0.7-2.9h-12.5c-0.8,0-1.5,0.7-1.5,1.5v26.7c0,1.6-1.3,2.9-2.9,2.9h-12.9c-1.6,0-2.9-1.3-2.9-2.9v-32.1     c0-0.8-0.7-1.5-1.5-1.5h-5.3c-0.8,0-1.5,0.7-1.5,1.5v22.9c0,1.6-1.3,2.9-2.9,2.9h-23.2c-1.6,0-2.9-1.3-2.9-2.9v-28     c0-0.8-0.7-1.5-1.5-1.5h-32.4c-0.8,0-1.5,0.7-1.5,1.5v16.3c0,1.6-1.3,2.9-2.9,2.9h-18.3c-1.6,0-2.9-1.3-2.9-2.9v-15.8     c0-0.8-0.7-1.5-1.5-1.5h-2.7c-0.8,0-1.5,0.7-1.5,1.5v30.9c0,1.6-1.3,2.9-2.9,2.9h-5.1c-1.6,0-2.9-1.3-2.9-2.9v-12.7     c0-1.2-1-2.2-2.2-2.2h-14.5c-1.2,0-2.2,1-2.2,2.2v17.6c0,1.6-1.3,2.9-2.9,2.9h-8.3c-1.6,0-2.9-1.3-2.9-2.9v-37.2     c0-0.8-0.7-1.5-1.5-1.5H72.8c-0.8,0-1.5,0.7-1.5,1.5v32.2c0,1.6-1.3,2.9-2.9,2.9H40c0.9,2.5,1.8,5,2.7,7.6     C43.6,162.1,44.4,165.1,45.1,168.1z"/><path fill="#fff" d="M67.6,80.7v116.7h-5.1V82.1C64.1,81.6,65.8,81.1,67.6,80.7z"/><path fill="#fff" d="M114.9,196.5V82.2c-0.5-0.1-1-0.2-1.6-0.3c-1.2-0.2-2.4-0.4-3.6-0.6v115.2H114.9z"/><path fill="#fff" d="M275.5,194c-0.1,0.7-0.2,1.3-0.3,2c0,0.3-0.1,0.6-0.2,1c-0.1,0.7-0.3,1.5-0.4,2.2H38.5      c1.3-1.7,2.6-3.4,3.6-5.1H275.5z"/><path fill="#fff" d="M209.5,196.6V51.2c-1.7-0.6-3.4-1.2-5.1-1.6v147H209.5z"/><path fill="#e2dff4" d="M259.7,244.8c-0.3,0.6-0.7,1.2-1.1,1.8c-3.1,5-7.1,9.3-12.3,12.3c-8.6,5-19.2,5.5-29.3,5.8     c-50.1,1.2-100.3-1.4-149.9-7.8c-9.8-1.3-19.8-2.8-28.3-7.5c-1.4-0.8-2.8-1.7-4.1-2.7c-0.7-0.6-1.4-1.2-2.1-1.8H259.7z"/><path fill="#f3f1fc" d="M108.1,58.3c-2.8-3.1-7.2-4.8-11.4-4.3c-3.5,0.5-6.7,2.3-10.2,2.2c-2.9-0.1-5.6-1.4-8-3.1     c-2.4-1.7-4.5-3.6-7-5.1c-2.5-1.5-5.4-2.5-8.3-2.1c-2.3,0.4-4.4,1.7-6,3.4c-1.5,1.6-4.8,5.7-4.3,8.9H108.1z"/><path fill="#fff" d="M114.2,94.4c-2-2.2-5.1-3.4-8-3c-2.4,0.3-4.7,1.6-7.2,1.6c-2,0-4-1-5.6-2.2c-1.7-1.2-3.2-2.6-5-3.6     c-1.7-1.1-3.8-1.8-5.8-1.5c-1.6,0.3-3.1,1.2-4.2,2.4c-1.1,1.1-3.4,4-3,6.3H114.2z"/><path fill="#fff" d="M193.8,60.1c-0.3-2.4,1.3-6.1,3-6.5c1.7-0.4,3.4,0.5,4.9,1.6c1.5,1.1,3,2.3,4.7,2.6     c3.9,0.7,7.4-3.6,11.3-3.8c4.4-0.3,8.6,4.8,12.9,3.3c1.9-0.7,3.7-2.6,5.7-2.3c2,0.3,3.4,2.8,4.6,5.1H193.8z"/><path fill="#4c5c75" d="M141.7,108.2C141.7,108.2,141.6,108.2,141.7,108.2c-0.1,0-0.2-0.1-0.1-0.2c0.2-0.5,0.4-1.1,0.7-1.6     c0-0.1,0.1-0.1,0.2-0.1c0.1,0,0.1,0.1,0.1,0.2c-0.3,0.5-0.5,1-0.7,1.6C141.8,108.1,141.7,108.2,141.7,108.2z M192.3,107.9     c-0.2,0-0.5,0-0.7,0c-0.1,0-0.1-0.1-0.1-0.2c0-0.1,0.1-0.1,0.1-0.1c0,0,0,0,0,0c0.2,0,0.5,0,0.7,0c0.8,0,1.5,0,2.3-0.1     c0.1,0,0.2,0.1,0.2,0.1c0,0.1-0.1,0.2-0.1,0.2C193.9,107.9,193.1,107.9,192.3,107.9z M187.6,107.7     C187.6,107.7,187.6,107.7,187.6,107.7c-1-0.1-2-0.3-3-0.5c-0.1,0-0.1-0.1-0.1-0.2c0-0.1,0.1-0.1,0.2-0.1c1,0.2,2,0.3,3,0.5     c0.1,0,0.1,0.1,0.1,0.2C187.8,107.6,187.7,107.7,187.6,107.7z M198.6,107.3c-0.1,0-0.1,0-0.1-0.1c0-0.1,0-0.2,0.1-0.2     c1-0.2,2-0.4,2.9-0.7c0.1,0,0.2,0,0.2,0.1c0,0.1,0,0.2-0.1,0.2C200.6,106.9,199.6,107.1,198.6,107.3     C198.6,107.3,198.6,107.3,198.6,107.3z M180.8,106.3C180.8,106.3,180.7,106.3,180.8,106.3c-1-0.3-1.9-0.6-2.9-0.9     c-0.1,0-0.1-0.1-0.1-0.2c0-0.1,0.1-0.1,0.2-0.1c1,0.3,1.9,0.6,2.9,0.9c0.1,0,0.1,0.1,0.1,0.2     C180.9,106.3,180.8,106.3,180.8,106.3z M205.2,105.1c-0.1,0-0.1,0-0.1-0.1c0-0.1,0-0.2,0.1-0.2c0.9-0.5,1.7-1,2.6-1.5     c0.1,0,0.2,0,0.2,0c0,0.1,0,0.2,0,0.2C207,104.1,206.1,104.6,205.2,105.1C205.2,105.1,205.2,105.1,205.2,105.1z M174.1,104.1     C174.1,104.1,174.1,104.1,174.1,104.1c-0.7-0.3-1.4-0.5-2.1-0.8l-0.8-0.3c-0.1,0-0.1-0.1-0.1-0.2c0-0.1,0.1-0.1,0.2-0.1l0.8,0.3     c0.7,0.3,1.4,0.5,2,0.8c0.1,0,0.1,0.1,0.1,0.2C174.2,104.1,174.2,104.1,174.1,104.1z M144.8,103.4c0,0-0.1,0-0.1,0     c-0.1-0.1-0.1-0.2,0-0.2c0.7-0.7,1.5-1.3,2.4-1.8c0.1,0,0.2,0,0.2,0.1c0,0.1,0,0.2-0.1,0.2c-0.9,0.5-1.7,1.1-2.4,1.8     C144.9,103.4,144.9,103.4,144.8,103.4z M167.6,101.6C167.6,101.6,167.5,101.6,167.6,101.6c-1-0.3-1.9-0.6-2.7-0.9l-0.2,0     c-0.1,0-0.1-0.1-0.1-0.2c0-0.1,0.1-0.1,0.2-0.1l0.2,0c0.9,0.3,1.7,0.5,2.7,0.9c0.1,0,0.1,0.1,0.1,0.2     C167.7,101.6,167.6,101.6,167.6,101.6z M210.9,101c0,0-0.1,0-0.1,0c-0.1-0.1-0.1-0.2,0-0.2c0.7-0.7,1.4-1.4,2-2.2     c0.1-0.1,0.1-0.1,0.2,0c0.1,0.1,0.1,0.1,0,0.2c-0.6,0.8-1.3,1.5-2,2.2C210.9,101,210.9,101,210.9,101z M150.9,100.1     c-0.1,0-0.1,0-0.1-0.1c0-0.1,0-0.2,0.1-0.2c0.2-0.1,0.5-0.1,0.7-0.2c0.7-0.2,1.5-0.3,2.3-0.4c0.1,0,0.2,0,0.2,0.1     c0,0.1,0,0.2-0.1,0.2c-0.8,0.1-1.5,0.2-2.2,0.4C151.4,100,151.2,100,150.9,100.1C150.9,100.1,150.9,100.1,150.9,100.1z      M160.8,99.8C160.8,99.8,160.8,99.8,160.8,99.8c-1-0.2-2-0.3-3-0.4c-0.1,0-0.1-0.1-0.1-0.2c0-0.1,0.1-0.1,0.2-0.1     c1,0.1,2,0.2,3,0.4c0.1,0,0.1,0.1,0.1,0.2C161,99.8,160.9,99.8,160.8,99.8z M215,95.5C215,95.5,215,95.5,215,95.5     c-0.1-0.1-0.2-0.1-0.1-0.2c0.5-0.9,0.8-1.8,1.1-2.7c0-0.1,0.1-0.1,0.2-0.1c0.1,0,0.1,0.1,0.1,0.2c-0.3,0.9-0.7,1.9-1.2,2.8     C215.1,95.4,215.1,95.5,215,95.5z M217,88.8C217,88.8,217,88.8,217,88.8c-0.1,0-0.2-0.1-0.1-0.2c0-0.2,0-0.5,0-0.7     c0-0.1,0-0.3,0-0.4c0-0.6,0-1.2-0.1-1.8c0-0.1,0-0.2,0.1-0.2c0.1,0,0.2,0.1,0.2,0.1c0.1,0.6,0.1,1.2,0.1,1.8c0,0.2,0,0.3,0,0.5     c0,0.2,0,0.5,0,0.7C217.1,88.7,217,88.8,217,88.8z M216,81.9c-0.1,0-0.1,0-0.1-0.1c-0.3-0.9-0.7-1.8-1.2-2.7c0-0.1,0-0.2,0.1-0.2     c0.1,0,0.2,0,0.2,0.1c0.5,0.9,0.9,1.8,1.2,2.8C216.2,81.8,216.1,81.9,216,81.9C216,81.9,216,81.9,216,81.9z M164.5,77.7     c-0.1,0-0.1-0.1-0.1-0.1c0-0.1,0.1-0.2,0.1-0.2c1,0,2-0.1,3-0.3c0.1,0,0.2,0,0.2,0.1c0,0.1,0,0.2-0.1,0.2     C166.5,77.6,165.5,77.7,164.5,77.7C164.5,77.7,164.5,77.7,164.5,77.7z M160.5,77.4C160.5,77.4,160.5,77.4,160.5,77.4     c-1-0.2-2-0.4-2.9-0.8c-0.1,0-0.1-0.1-0.1-0.2c0-0.1,0.1-0.1,0.2-0.1c0.9,0.3,1.9,0.6,2.9,0.7c0.1,0,0.1,0.1,0.1,0.2     C160.7,77.4,160.6,77.4,160.5,77.4z M171.4,76.5c-0.1,0-0.1,0-0.1-0.1c0-0.1,0-0.2,0.1-0.2c0.9-0.3,1.8-0.7,2.8-1.1     c0.1,0,0.2,0,0.2,0.1c0,0.1,0,0.2-0.1,0.2C173.2,75.8,172.3,76.2,171.4,76.5C171.4,76.5,171.4,76.5,171.4,76.5z M212.5,75.9     c0,0-0.1,0-0.1-0.1c-0.6-0.8-1.3-1.5-2.1-2.1c-0.1-0.1-0.1-0.2,0-0.2c0.1-0.1,0.1-0.1,0.2,0c0.8,0.7,1.5,1.4,2.1,2.2     C212.7,75.7,212.7,75.8,212.5,75.9C212.6,75.9,212.5,75.9,212.5,75.9z M154,75C154,75,154,75,154,75c-0.9-0.5-1.8-1.1-2.5-1.8     c-0.1-0.1-0.1-0.1,0-0.2c0.1-0.1,0.1-0.1,0.2,0c0.8,0.6,1.6,1.2,2.4,1.7c0.1,0,0.1,0.1,0.1,0.2C154.1,75,154.1,75,154,75z      M177.7,73.6c-0.1,0-0.1,0-0.1-0.1c0-0.1,0-0.2,0.1-0.2l0.8-0.4c0.6-0.3,1.3-0.7,1.9-1c0.1,0,0.2,0,0.2,0.1c0,0.1,0,0.2-0.1,0.2     c-0.6,0.3-1.3,0.6-1.9,1L177.7,73.6C177.8,73.6,177.8,73.6,177.7,73.6z M146.1,71.6c-0.6,0-1.2,0-1.9-0.1c-0.1,0-0.1-0.1-0.1-0.2     c0-0.1,0.1-0.1,0.1-0.1c0,0,0,0,0,0c1,0.1,2,0.1,3,0c0.1,0,0.2,0.1,0.2,0.1c0,0.1-0.1,0.2-0.1,0.2     C146.9,71.6,146.5,71.6,146.1,71.6z M207.2,71.4C207.2,71.4,207.1,71.4,207.2,71.4c-0.5-0.2-0.9-0.5-1.2-0.7     c-0.5-0.2-1-0.5-1.5-0.7c-0.1,0-0.1-0.1-0.1-0.2c0-0.1,0.1-0.1,0.2-0.1c0.5,0.2,1,0.4,1.5,0.7c0.4,0.2,0.8,0.4,1.2,0.6     c0.1,0,0.1,0.1,0.1,0.2C207.3,71.3,207.2,71.4,207.2,71.4z M151.3,71.2c-0.1,0-0.1-0.1-0.1-0.1c0-0.1,0-0.2,0.1-0.2     c1-0.2,2-0.4,2.9-0.7c0.1,0,0.2,0,0.2,0.1c0,0.1,0,0.2-0.1,0.2C153.3,70.7,152.3,71,151.3,71.2C151.3,71.2,151.3,71.2,151.3,71.2     z M140.3,71C140.3,71,140.3,71,140.3,71c-1-0.2-2-0.5-3-0.7c-0.1,0-0.1-0.1-0.1-0.2c0-0.1,0.1-0.1,0.2-0.1     c0.9,0.3,1.9,0.5,2.9,0.7c0.1,0,0.1,0.1,0.1,0.2C140.5,71,140.4,71,140.3,71z M184,70.6c-0.1,0-0.1,0-0.1-0.1     c0-0.1,0-0.2,0.1-0.2c0.3-0.1,0.6-0.3,0.9-0.4c0.6-0.2,1.3-0.5,1.9-0.6c0.1,0,0.2,0,0.2,0.1c0,0.1,0,0.2-0.1,0.2     c-0.6,0.2-1.3,0.4-1.9,0.6C184.7,70.3,184.4,70.4,184,70.6C184.1,70.6,184.1,70.6,184,70.6z M148.8,70.4c0,0-0.1,0-0.1-0.1     c-0.6-0.8-1.2-1.6-1.7-2.5c0-0.1,0-0.2,0.1-0.2c0.1,0,0.2,0,0.2,0.1c0.5,0.9,1,1.7,1.7,2.5C148.9,70.2,148.9,70.3,148.8,70.4     C148.8,70.4,148.8,70.4,148.8,70.4z M157.9,69.1c-0.1,0-0.1,0-0.1-0.1c0-0.1,0-0.2,0.1-0.2c0.9-0.4,1.8-0.9,2.6-1.4     c0.1,0,0.2,0,0.2,0c0,0.1,0,0.2,0,0.2C159.8,68.1,158.9,68.6,157.9,69.1C158,69,158,69.1,157.9,69.1z M133.7,68.9     C133.7,68.9,133.7,68.8,133.7,68.9c-1-0.4-1.9-0.9-2.7-1.4c-0.1,0-0.1-0.1,0-0.2c0-0.1,0.1-0.1,0.2,0c0.8,0.5,1.7,1,2.6,1.4     c0.1,0,0.1,0.1,0.1,0.2C133.8,68.8,133.8,68.9,133.7,68.9z M200.7,68.8C200.7,68.8,200.7,68.8,200.7,68.8c-1-0.2-2-0.4-3-0.5     c-0.1,0-0.1-0.1-0.1-0.2c0-0.1,0.1-0.1,0.2-0.1c1,0.1,2,0.3,3,0.5c0.1,0,0.1,0.1,0.1,0.2C200.8,68.8,200.8,68.8,200.7,68.8z      M190.8,68.6c-0.1,0-0.1-0.1-0.1-0.1c0-0.1,0-0.2,0.1-0.2c1-0.2,2-0.3,3-0.3c0.1,0,0.2,0.1,0.2,0.1c0,0.1-0.1,0.2-0.1,0.2     C192.8,68.4,191.8,68.5,190.8,68.6C190.8,68.6,190.8,68.6,190.8,68.6z M163.7,65.1c0,0-0.1,0-0.1,0c-0.1-0.1-0.1-0.2,0-0.2     c0.7-0.7,1.4-1.5,1.9-2.3c0-0.1,0.1-0.1,0.2,0c0.1,0,0.1,0.1,0,0.2c-0.6,0.8-1.2,1.6-1.9,2.3C163.8,65.1,163.7,65.1,163.7,65.1z      M127.8,65.1C127.8,65.1,127.8,65.1,127.8,65.1c-0.9-0.7-1.6-1.4-2.3-2.1c-0.1-0.1-0.1-0.2,0-0.2c0.1-0.1,0.2-0.1,0.2,0     c0.7,0.7,1.4,1.4,2.2,2c0.1,0.1,0.1,0.1,0,0.2C127.9,65.1,127.9,65.1,127.8,65.1z M145.6,64.2c-0.1,0-0.1,0-0.1-0.1     c-0.2-0.7-0.4-1.5-0.4-2.2c0-0.2-0.1-0.5-0.1-0.7c0-0.1,0.1-0.2,0.1-0.2c0.1,0,0.2,0.1,0.2,0.1c0,0.2,0,0.5,0.1,0.7     c0.1,0.7,0.2,1.5,0.4,2.2C145.7,64.1,145.7,64.2,145.6,64.2C145.6,64.2,145.6,64.2,145.6,64.2z M123.1,60c0,0-0.1,0-0.1-0.1     c-0.6-0.8-1.1-1.7-1.6-2.5c0-0.1,0-0.2,0.1-0.2c0.1,0,0.2,0,0.2,0.1c0.5,0.9,1.1,1.7,1.6,2.5C123.2,59.8,123.2,59.9,123.1,60     C123.1,60,123.1,60,123.1,60z M167.3,59.2C167.3,59.2,167.3,59.2,167.3,59.2c-0.1,0-0.2-0.1-0.1-0.2c0.3-0.9,0.4-1.9,0.5-2.9     c0-0.1,0.1-0.1,0.1-0.1c0,0,0,0,0,0c0.1,0,0.1,0.1,0.1,0.2c0,1-0.2,2-0.5,3C167.5,59.2,167.4,59.2,167.3,59.2z M145.3,57.3     C145.3,57.3,145.3,57.3,145.3,57.3c-0.1,0-0.2-0.1-0.1-0.2c0.2-1,0.5-2,0.9-2.9c0-0.1,0.1-0.1,0.2-0.1c0.1,0,0.1,0.1,0.1,0.2     c-0.4,0.9-0.7,1.9-0.8,2.8C145.5,57.2,145.4,57.3,145.3,57.3z M119.6,53.9c-0.1,0-0.1,0-0.1-0.1c-0.4-0.9-0.7-1.9-1-2.8     c0-0.1,0-0.2,0.1-0.2c0.1,0,0.2,0,0.2,0.1c0.3,0.9,0.6,1.9,1,2.8C119.8,53.8,119.8,53.9,119.6,53.9     C119.7,53.9,119.7,53.9,119.6,53.9z M167.3,52.3c-0.1,0-0.1,0-0.1-0.1c-0.3-1-0.7-1.9-1.2-2.7c0-0.1,0-0.2,0-0.2     c0.1,0,0.2,0,0.2,0c0.6,0.8,1,1.7,1.3,2.7C167.5,52.2,167.5,52.3,167.3,52.3C167.4,52.3,167.4,52.3,167.3,52.3z M148.1,51     C148.1,51,148.1,50.9,148.1,51c-0.2-0.1-0.2-0.2-0.1-0.2c0.6-0.8,1.3-1.6,2.1-2.2c0.1-0.1,0.2,0,0.2,0c0.1,0.1,0,0.2,0,0.2     c-0.7,0.6-1.4,1.4-2,2.2C148.2,50.9,148.2,51,148.1,51z M117.8,47.2c-0.1,0-0.1-0.1-0.1-0.1c-0.1-1-0.2-2-0.3-3     c0-0.1,0.1-0.2,0.1-0.2c0.1,0,0.2,0.1,0.2,0.1c0,1,0.1,2,0.3,3C117.9,47.1,117.9,47.2,117.8,47.2     C117.8,47.2,117.8,47.2,117.8,47.2z M163.2,46.9C163.2,46.9,163.1,46.9,163.2,46.9c-0.9-0.5-1.8-0.8-2.8-1     c-0.1,0-0.1-0.1-0.1-0.2c0-0.1,0.1-0.1,0.2-0.1c1,0.2,2,0.6,2.8,1.1c0.1,0,0.1,0.1,0.1,0.2C163.3,46.9,163.2,46.9,163.2,46.9z      M153.5,46.6c-0.1,0-0.1,0-0.1-0.1c0-0.1,0-0.2,0.1-0.2c0.9-0.4,1.9-0.7,2.9-0.8c0.1,0,0.2,0,0.2,0.1c0,0.1,0,0.2-0.1,0.2     C155.5,45.9,154.5,46.2,153.5,46.6C153.6,46.6,153.6,46.6,153.5,46.6z"/><path fill="#fff" d="M251.1,86.7v144.5c0,4.7-3.8,8.5-8.5,8.5h-76.9c-4.7,0-8.5-3.8-8.5-8.5V86.7c0-4.7,3.8-8.5,8.5-8.5h76.9    C247.3,78.3,251.1,82.1,251.1,86.7z"/><linearGradient id="a" x1="188.446" x2="219.793" y1="82.54" y2="82.54" gradientUnits="userSpaceOnUse"><stop offset="0" stop-color="#57b3fe"/><stop offset="1" stop-color="#497bfe"/></linearGradient><path fill="url(#a)" d="M219.8,78.3v6.4c0,1.2-0.9,2.1-2.1,2.1h-27.1c-1.2,0-2.1-0.9-2.1-2.1v-6.4H219.8z"/><path fill="#fff" d="M214.3,82.5L214.3,82.5c0,0.6-0.5,1.1-1.1,1.1h-11.6c-0.6,0-1.1-0.5-1.1-1.1l0,0c0-0.6,0.5-1.1,1.1-1.1h11.6    C213.8,81.4,214.3,81.9,214.3,82.5z"/><path fill="#fff" d="M197,82.5L197,82.5c0,0.6-0.5,1.1-1.1,1.1h-0.7c-0.6,0-1.1-0.5-1.1-1.1l0,0c0-0.6,0.5-1.1,1.1-1.1h0.7    C196.4,81.4,197,81.9,197,82.5z"/><path fill="#ebf4fe" d="M245.4,86.3c0,1.8-1.4,3.2-3.2,3.2c-1.8,0-3.2-1.4-3.2-3.2c0-1.8,1.4-3.2,3.2-3.2    C244,83.1,245.4,84.5,245.4,86.3z"/><linearGradient id="b" x1="240.88" x2="243.515" y1="86.281" y2="86.281" gradientUnits="userSpaceOnUse"><stop offset="0" stop-color="#57b3fe"/><stop offset="1" stop-color="#497bfe"/></linearGradient><path fill="url(#b)" d="M243.2,87.6c-0.1,0-0.2,0-0.2-0.1l-2-2c-0.1-0.1-0.1-0.3,0-0.5c0.1-0.1,0.3-0.1,0.5,0l2,2      c0.1,0.1,0.1,0.3,0,0.5C243.3,87.6,243.3,87.6,243.2,87.6z"/><linearGradient id="c" x1="240.88" x2="243.515" y1="86.281" y2="86.281" gradientUnits="userSpaceOnUse"><stop offset="0" stop-color="#57b3fe"/><stop offset="1" stop-color="#497bfe"/></linearGradient><path fill="url(#c)" d="M241.2,87.6c-0.1,0-0.2,0-0.2-0.1c-0.1-0.1-0.1-0.3,0-0.5l2-2c0.1-0.1,0.3-0.1,0.5,0      c0.1,0.1,0.1,0.3,0,0.5l-2,2C241.4,87.6,241.3,87.6,241.2,87.6z"/><path fill="#ebf4fe" d="M172.2,84.2h-8.3c-0.2,0-0.3-0.1-0.3-0.3s0.1-0.3,0.3-0.3h8.3c0.2,0,0.3,0.1,0.3,0.3S172.4,84.2,172.2,84.2     z"/><path fill="#ebf4fe" d="M172.2,86.7h-8.3c-0.2,0-0.3-0.1-0.3-0.3c0-0.2,0.1-0.3,0.3-0.3h8.3c0.2,0,0.3,0.1,0.3,0.3      C172.5,86.6,172.4,86.7,172.2,86.7z"/><path fill="#ebf4fe" d="M172.2,89.2h-8.3c-0.2,0-0.3-0.1-0.3-0.3c0-0.2,0.1-0.3,0.3-0.3h8.3c0.2,0,0.3,0.1,0.3,0.3      C172.5,89,172.4,89.2,172.2,89.2z"/><path fill="#ffd475" d="M162.8,93c0,0.1-0.1,0.1-0.1,0.1c-0.5,0-0.9,0.4-0.9,0.9c0,0.1-0.1,0.1-0.1,0.1c-0.1,0-0.1-0.1-0.1-0.1     c0-0.3-0.1-0.5-0.3-0.7c-0.2-0.2-0.4-0.3-0.7-0.3c-0.1,0-0.1-0.1-0.1-0.1s0.1-0.1,0.1-0.1c0.3,0,0.5-0.1,0.7-0.3     c0.2-0.2,0.3-0.4,0.3-0.7c0-0.1,0.1-0.1,0.1-0.1c0.1,0,0.1,0.1,0.1,0.1c0,0.3,0.1,0.5,0.3,0.7c0.2,0.2,0.4,0.3,0.7,0.3     C162.8,92.9,162.8,92.9,162.8,93z"/><path fill="#6eb954" d="M249.4,127.4l-1.7,1.3c-0.3,0.2-0.6,0-0.6-0.3l0.3-3c0-0.3,0.5-0.4,0.7-0.2l1.3,1.7    C249.6,127,249.6,127.2,249.4,127.4z"/><path fill="#d0cef2" d="M229,83.9c0,0.1-0.1,0.1-0.1,0.1c-0.6,0-1.1,0.5-1.1,1.1c0,0.1-0.1,0.1-0.1,0.1s-0.1-0.1-0.1-0.1     c0-0.3-0.1-0.6-0.3-0.8c-0.2-0.2-0.5-0.3-0.8-0.3c-0.1,0-0.1-0.1-0.1-0.1c0-0.1,0.1-0.1,0.1-0.1c0.3,0,0.6-0.1,0.8-0.3     c0.2-0.2,0.3-0.5,0.3-0.8c0-0.1,0.1-0.1,0.1-0.1s0.1,0.1,0.1,0.1c0,0.3,0.1,0.6,0.3,0.8c0.2,0.2,0.5,0.3,0.8,0.3     C229,83.8,229,83.9,229,83.9z"/><path fill="#f3f1fc" d="M122.2,45.8l-4.6-2.7c-0.1-0.1-0.3,0-0.4,0.1l-3.7,3.9c-0.6,0.6-1.7,0-1.4-0.8l3.4-10.6    c0.2-0.7,1.1-0.8,1.5-0.2l6.2,9.2C123.8,45.4,123,46.3,122.2,45.8z"/><path fill="#d0cef2" d="M122.2,45.8l-4.6-2.7c-0.1-0.1-0.3-0.1-0.4,0l-3.7,3.9c-0.6,0.6-1.7,0-1.4-0.8l2.9-8.9c0.9,3.3,3.8,5.7,7.3,6    l0.9,1.4C123.8,45.4,123,46.3,122.2,45.8z"/><linearGradient id="d" x1="247.481" x2="250.441" y1="102.601" y2="102.601" gradientUnits="userSpaceOnUse"><stop offset="0" stop-color="#f7a386"/><stop offset="1" stop-color="#fd6b58"/></linearGradient><path fill="url(#d)" d="M250.4,102.6c0,0.1-0.1,0.2-0.2,0.2c-0.6,0-1.2,0.5-1.2,1.2c0,0.1-0.1,0.2-0.2,0.2s-0.2-0.1-0.2-0.2      c0-0.3-0.1-0.6-0.3-0.8c-0.2-0.2-0.5-0.3-0.8-0.3c-0.1,0-0.2-0.1-0.2-0.2c0-0.1,0.1-0.2,0.2-0.2c0.3,0,0.6-0.1,0.8-0.3      c0.2-0.2,0.3-0.5,0.3-0.8c0-0.1,0.1-0.2,0.2-0.2s0.2,0.1,0.2,0.2c0,0.3,0.1,0.6,0.3,0.8c0.2,0.2,0.5,0.3,0.8,0.3      C250.4,102.4,250.4,102.5,250.4,102.6z"/><path fill="#f3f1fc" d="M244.9,97.3v24c0,1.2-0.9,2.1-2.1,2.1h-76c-1.2,0-2.1-0.9-2.1-2.1v-24c0-1.2,0.9-2.1,2.1-2.1h76     C244,95.2,244.9,96.1,244.9,97.3z"/><path fill="#d0cef2" d="M190.5,118.6c0,0.4-3.5,0.8-7.9,0.8c-4.4,0-7.9-0.4-7.9-0.8c0-0.4,3.5-0.8,7.9-0.8      C186.9,117.8,190.5,118.2,190.5,118.6z"/><path fill="#dba660" d="M192.7,106.9c0,3.2-1.6,6.1-4,8c-0.4,0.3-1,0.5-1.5,0.5H178c-0.5,0-1.1-0.2-1.5-0.5c-2.4-1.8-4-4.7-4-8        c0,1.2,4.5,2.2,10.1,2.2C188.2,109.1,192.7,108.1,192.7,106.9z"/><path fill="#bf7d5a" d="M192.7,106.9c0,3.3-1.6,6.1-4,8c-0.4,0.3-1,0.5-1.5,0.5H178c-0.5,0-1.1-0.2-1.5-0.5        c-0.6-0.5-1.2-1-1.7-1.6c1.7,0.6,3.6,1,5.7,1c5.9,0,10.6-2.8,10.9-6.3C192.2,107.6,192.7,107.2,192.7,106.9z"/><path fill="#bf7d5a" d="M192.7,106.9c0,1.2-4.5,2.2-10.1,2.2c-5.6,0-10.1-1-10.1-2.2c0-1.2,4.5-2.2,10.1-2.2        C188.2,104.6,192.7,105.6,192.7,106.9z"/><path fill="#f3f1fc" d="M182.6,108.4c-5.5,0-8.9-1-9.4-1.5c0.5-0.6,3.8-1.5,9.4-1.5c5.6,0,8.9,1,9.4,1.5        C191.5,107.4,188.1,108.4,182.6,108.4z"/><path fill="#d0cef2" d="M192,106.9c0,0.1-0.1,0.1-0.2,0.2c-1.2-0.6-4.3-1.2-8.9-1.2c-5.1,0-8.3,0.8-9.2,1.4        c-0.2-0.1-0.4-0.2-0.5-0.3c0.5-0.6,3.8-1.5,9.4-1.5C188.1,105.3,191.5,106.3,192,106.9z"/><path fill="#4c5c75" d="M194,101.5c-0.5-0.5-1.3-0.4-2.8,1.2c-1,1-3.2,3.5-3.7,4.5h2.2c0.7-0.5,2.5-2.2,3.1-2.8        C194.4,102.8,194.4,102,194,101.5z"/><path fill="#111d33" d="M192.8,104.4c-0.6,0.6-2.4,2.3-3.1,2.8h-2.2c0.1-0.1,0.1-0.3,0.3-0.4l0,0c1.2,0,2.3-0.4,3.2-1.2        c0.7-0.6,1.4-1.3,1.7-1.6c1.1-1.1,1.5-1.9,1.4-2.4C194.4,102,194.3,102.9,192.8,104.4z"/><path fill="#fff" d="M193.5,102.6c-0.1,0.1-0.4,0.1-0.5,0c-0.1-0.1-0.1-0.4,0-0.5c0.1-0.1,0.4-0.1,0.5,0        C193.6,102.2,193.6,102.4,193.5,102.6z"/><path fill="#e4e3ff" d="M193.6,102.4c0-0.1,0-0.2-0.1-0.2c-0.1-0.1-0.4-0.1-0.5,0c-0.1,0.1-0.1,0.1-0.1,0.2        c0-0.1,0-0.2,0.1-0.3c0.1-0.1,0.4-0.1,0.5,0C193.6,102.1,193.6,102.3,193.6,102.4z"/><path fill="#ed3b66" d="M187.4,107.7c0.3-0.1,0.5-0.3,0.6-0.5c0.4-0.8,0-1.4-0.8-1.9c-0.8-0.4-1.6-0.5-2,0.2         c-0.3,0.5-0.1,1.5,0.1,2.1H187.4z"/><path fill="#4b9534" d="M187.9,105.9c-0.1-0.1-0.2-0.1-0.3-0.2c0,0-0.1,0-0.1,0c0,0.1-0.1,0.1-0.1,0.2c0,0-0.1,0-0.1,0         c0-0.1-0.1-0.2-0.2-0.3c0,0,0,0-0.1,0c-0.1,0-0.2,0-0.3,0c0,0-0.1,0-0.1-0.1c0-0.1,0-0.1,0.1-0.2c0,0,0-0.1,0-0.1         c-0.1-0.1-0.2-0.1-0.3-0.1c-0.1,0,0-0.1,0-0.1c0.1,0,0.3,0,0.4,0c0,0,0.1,0,0.1,0c0.2,0.1,0.3,0.1,0.5,0.2         c0-0.1,0.1-0.1,0.2-0.1c0.1,0,0.1-0.1,0.2-0.1c0.1,0,0.2,0,0.2,0l0,0c0.1,0,0.1,0.1,0.1,0.1c0,0.1-0.1,0.1-0.1,0.1         c0,0,0,0,0,0c-0.1,0-0.1,0-0.2,0c-0.1,0-0.1,0-0.2,0c0,0-0.1,0-0.1,0.1c0.1,0.1,0.2,0.2,0.3,0.3c0,0,0,0,0,0.1         C187.9,105.6,188,105.8,187.9,105.9C188,105.9,188,106,187.9,105.9z"/><path fill="#ffd475" d="M177.9,107.4c-0.1,0-0.2-0.1-0.2-0.2c0-0.2-0.2-0.4-0.4-0.4c-0.2,0-0.4,0.2-0.4,0.4        c0,0.1-0.1,0.2-0.2,0.2c-0.1,0-0.2-0.1-0.2-0.2c0-0.4,0.4-0.8,0.8-0.8c0.4,0,0.8,0.3,0.8,0.8        C178.1,107.3,178,107.4,177.9,107.4C177.9,107.4,177.9,107.4,177.9,107.4z"/><path fill="#ffd475" d="M181.6,106.9C181.6,106.9,181.6,106.9,181.6,106.9c-0.1,0-0.2-0.1-0.2-0.2c0-0.4,0.4-0.8,0.8-0.8        c0.4,0,0.8,0.3,0.8,0.8c0,0.1-0.1,0.2-0.2,0.2c-0.1,0-0.2-0.1-0.2-0.2c0-0.2-0.2-0.4-0.4-0.4c-0.2,0-0.4,0.2-0.4,0.4        C181.8,106.8,181.7,106.9,181.6,106.9z"/><path fill="#ffd475" d="M181,108.2C181,108.2,181,108.2,181,108.2c-0.1,0-0.2-0.1-0.2-0.2c0-0.4,0.3-0.7,0.7-0.7        c0.4,0,0.7,0.3,0.7,0.7c0,0.1-0.1,0.2-0.2,0.2c-0.1,0-0.2-0.1-0.2-0.2c0-0.2-0.1-0.3-0.3-0.3c-0.2,0-0.3,0.1-0.3,0.3        C181.2,108.1,181.1,108.2,181,108.2z"/><path fill="#ffd475" d="M184.6,107.6c-0.1,0-0.2-0.1-0.2-0.2c0-0.1-0.1-0.1-0.1-0.1c-0.1,0-0.1,0.1-0.1,0.1        c0,0.1-0.1,0.2-0.2,0.2c-0.1,0-0.2-0.1-0.2-0.2c0-0.3,0.3-0.5,0.6-0.5c0.3,0,0.6,0.2,0.6,0.5        C184.9,107.5,184.8,107.6,184.6,107.6C184.6,107.6,184.6,107.6,184.6,107.6z"/><path fill="#ffd475" d="M188.5,107.4C188.5,107.4,188.5,107.4,188.5,107.4c-0.1,0-0.2-0.1-0.2-0.2c0-0.4,0.4-0.8,0.8-0.8        c0.4,0,0.8,0.3,0.8,0.8c0,0.1-0.1,0.2-0.2,0.2c-0.1,0-0.2-0.1-0.2-0.2c0-0.2-0.2-0.4-0.4-0.4c-0.2,0-0.4,0.2-0.4,0.4        C188.8,107.3,188.7,107.4,188.5,107.4z"/><path fill="#ed3b66" d="M179.5,106.3c-0.1,0-0.1,0-0.1-0.1c0-0.5,0.4-0.8,0.8-0.8c0.1,0,0.1,0,0.1,0.1c0,0.1,0,0.1-0.1,0.1        c-0.3,0-0.6,0.3-0.6,0.6C179.6,106.3,179.6,106.3,179.5,106.3z"/><path fill="#ed3b66" d="M178.8,107.8h1.4c0.2-0.2,0.4-0.5,0.4-0.8c0-0.6-0.5-1.1-1.1-1.1s-1.1,0.5-1.1,1.1        C178.4,107.3,178.5,107.6,178.8,107.8z"/><path fill="#f45170" d="M219.8,100.3v3.5c0,0.4-0.3,0.7-0.7,0.7h-15.2c-0.4,0-0.7-0.3-0.7-0.7v-3.5c0-0.4,0.3-0.7,0.7-0.7h15.2     C219.5,99.6,219.8,99.9,219.8,100.3z"/><rect width="34.8" height="1.3" x="203.2" y="107.2" fill="#d0cef2"/><rect width="16.2" height="1.3" x="203.2" y="110.1" fill="#d0cef2"/><rect width="8.1" height="1.3" x="224.4" y="110.1" fill="#d0cef2"/><path fill="#ffd475" d="M237.9,116.1v4.2c0,0.3-0.2,0.5-0.5,0.5h-11c-0.3,0-0.5-0.2-0.5-0.5v-4.2c0-0.3,0.2-0.5,0.5-0.5h11     C237.7,115.6,237.9,115.8,237.9,116.1z"/><path fill="#fff" d="M230.4,119.2c-0.1,0.1-0.2,0.2-0.3,0.3s-0.3,0.1-0.5,0.1v0.3c0,0,0,0.1,0,0.1c0,0-0.1,0-0.1,0      c0,0-0.1,0-0.1,0c0,0,0,0,0-0.1v-0.3c-0.3,0-0.5-0.1-0.8-0.2c0,0-0.1,0-0.1-0.1c0,0,0-0.1,0-0.1c0,0,0-0.1,0-0.1      c0,0,0.1,0,0.1,0c0,0,0.1,0,0.1,0c0.2,0.1,0.4,0.1,0.7,0.2v-0.9c-0.2,0-0.3-0.1-0.4-0.2c-0.1-0.1-0.2-0.1-0.3-0.2      c-0.1-0.1-0.1-0.2-0.1-0.4c0-0.1,0-0.3,0.1-0.4c0.1-0.1,0.2-0.2,0.3-0.3c0.1-0.1,0.3-0.1,0.5-0.1v-0.3c0,0,0-0.1,0-0.1      c0,0,0.1,0,0.1,0c0,0,0.1,0,0.1,0c0,0,0,0.1,0,0.1v0.3c0.3,0,0.5,0.1,0.7,0.1c0.1,0,0.1,0.1,0.1,0.2c0,0,0,0.1,0,0.1      c0,0-0.1,0.1-0.1,0.1c0,0,0,0-0.1,0c-0.2-0.1-0.4-0.1-0.6-0.1v0.9c0.2,0,0.3,0.1,0.5,0.1c0.1,0.1,0.2,0.1,0.3,0.2      c0.1,0.1,0.1,0.2,0.1,0.4C230.5,119,230.5,119.1,230.4,119.2z M229,117.8c0.1,0.1,0.2,0.1,0.4,0.2v-0.9c-0.2,0-0.3,0.1-0.4,0.1      c-0.1,0.1-0.1,0.2-0.1,0.3C228.9,117.7,228.9,117.8,229,117.8z M230.2,118.8c0-0.1,0-0.2-0.1-0.2c-0.1-0.1-0.2-0.1-0.4-0.2v0.8      C230,119.2,230.2,119.1,230.2,118.8z"/><path fill="#fff" d="M232.8,119.2c-0.1,0.1-0.2,0.2-0.3,0.3s-0.3,0.1-0.5,0.1v0.3c0,0,0,0.1,0,0.1c0,0-0.1,0-0.1,0      c0,0-0.1,0-0.1,0c0,0,0,0,0-0.1v-0.3c-0.3,0-0.5-0.1-0.8-0.2c0,0-0.1,0-0.1-0.1c0,0,0-0.1,0-0.1c0,0,0-0.1,0-0.1      c0,0,0.1,0,0.1,0c0,0,0.1,0,0.1,0c0.2,0.1,0.4,0.1,0.7,0.2v-0.9c-0.2,0-0.3-0.1-0.4-0.2c-0.1-0.1-0.2-0.1-0.3-0.2      c-0.1-0.1-0.1-0.2-0.1-0.4c0-0.1,0-0.3,0.1-0.4c0.1-0.1,0.2-0.2,0.3-0.3c0.1-0.1,0.3-0.1,0.5-0.1v-0.3c0,0,0-0.1,0-0.1      c0,0,0.1,0,0.1,0c0,0,0.1,0,0.1,0c0,0,0,0.1,0,0.1v0.3c0.3,0,0.5,0.1,0.7,0.1c0.1,0,0.1,0.1,0.1,0.2c0,0,0,0.1,0,0.1      c0,0-0.1,0.1-0.1,0.1c0,0,0,0-0.1,0c-0.2-0.1-0.4-0.1-0.6-0.1v0.9c0.2,0,0.3,0.1,0.5,0.1c0.1,0.1,0.2,0.1,0.3,0.2      c0.1,0.1,0.1,0.2,0.1,0.4C232.9,119,232.9,119.1,232.8,119.2z M231.4,117.8c0.1,0.1,0.2,0.1,0.4,0.2v-0.9      c-0.2,0-0.3,0.1-0.4,0.1c-0.1,0.1-0.1,0.2-0.1,0.3C231.3,117.7,231.3,117.8,231.4,117.8z M232.6,118.8c0-0.1,0-0.2-0.1-0.2      c-0.1-0.1-0.2-0.1-0.4-0.2v0.8C232.4,119.2,232.6,119.1,232.6,118.8z"/><path fill="#fff" d="M235.2,119.2c-0.1,0.1-0.2,0.2-0.3,0.3c-0.1,0.1-0.3,0.1-0.5,0.1v0.3c0,0,0,0.1,0,0.1c0,0-0.1,0-0.1,0      c0,0-0.1,0-0.1,0c0,0,0,0,0-0.1v-0.3c-0.3,0-0.5-0.1-0.8-0.2c0,0-0.1,0-0.1-0.1c0,0,0-0.1,0-0.1c0,0,0-0.1,0-0.1      c0,0,0.1,0,0.1,0c0,0,0.1,0,0.1,0c0.2,0.1,0.4,0.1,0.7,0.2v-0.9c-0.2,0-0.3-0.1-0.4-0.2c-0.1-0.1-0.2-0.1-0.3-0.2      c-0.1-0.1-0.1-0.2-0.1-0.4c0-0.1,0-0.3,0.1-0.4c0.1-0.1,0.2-0.2,0.3-0.3c0.1-0.1,0.3-0.1,0.5-0.1v-0.3c0,0,0-0.1,0-0.1      c0,0,0.1,0,0.1,0c0,0,0.1,0,0.1,0c0,0,0,0.1,0,0.1v0.3c0.3,0,0.5,0.1,0.7,0.1c0.1,0,0.1,0.1,0.1,0.2c0,0,0,0.1,0,0.1      c0,0-0.1,0.1-0.1,0.1c0,0,0,0-0.1,0c-0.2-0.1-0.4-0.1-0.6-0.1v0.9c0.2,0,0.3,0.1,0.5,0.1c0.1,0.1,0.2,0.1,0.3,0.2      c0.1,0.1,0.1,0.2,0.1,0.4C235.3,119,235.3,119.1,235.2,119.2z M233.8,117.8c0.1,0.1,0.2,0.1,0.4,0.2v-0.9      c-0.2,0-0.3,0.1-0.4,0.1c-0.1,0.1-0.1,0.2-0.1,0.3C233.7,117.7,233.7,117.8,233.8,117.8z M235,118.8c0-0.1,0-0.2-0.1-0.2      c-0.1-0.1-0.2-0.1-0.4-0.2v0.8C234.8,119.2,235,119.1,235,118.8z"/><path fill="#f3f1fc" d="M244.9,133.1v24c0,1.2-0.9,2.1-2.1,2.1h-76c-1.2,0-2.1-0.9-2.1-2.1v-24c0-1.2,0.9-2.1,2.1-2.1h76     C244,131,244.9,131.9,244.9,133.1z"/><path fill="#f45170" d="M219.8,136.1v3.5c0,0.4-0.3,0.7-0.7,0.7h-15.2c-0.4,0-0.7-0.3-0.7-0.7v-3.5c0-0.4,0.3-0.7,0.7-0.7h15.2     C219.5,135.4,219.8,135.7,219.8,136.1z"/><rect width="34.8" height="1.3" x="203.2" y="143" fill="#d0cef2"/><rect width="16.2" height="1.3" x="203.2" y="145.9" fill="#d0cef2"/><rect width="8.1" height="1.3" x="224.4" y="145.9" fill="#d0cef2"/><path fill="#ffd475" d="M237.9,151.9v4.2c0,0.3-0.2,0.5-0.5,0.5h-11c-0.3,0-0.5-0.2-0.5-0.5v-4.2c0-0.3,0.2-0.5,0.5-0.5h11     C237.7,151.4,237.9,151.6,237.9,151.9z"/><path fill="#fff" d="M230.4,155c-0.1,0.1-0.2,0.2-0.3,0.3c-0.1,0.1-0.3,0.1-0.5,0.1v0.3c0,0,0,0.1,0,0.1c0,0-0.1,0-0.1,0      c0,0-0.1,0-0.1,0c0,0,0,0,0-0.1v-0.3c-0.3,0-0.5-0.1-0.8-0.2c0,0-0.1,0-0.1-0.1c0,0,0-0.1,0-0.1c0,0,0-0.1,0-0.1      c0,0,0.1,0,0.1,0c0,0,0.1,0,0.1,0c0.2,0.1,0.4,0.1,0.7,0.2v-0.9c-0.2,0-0.3-0.1-0.4-0.2s-0.2-0.1-0.3-0.2      c-0.1-0.1-0.1-0.2-0.1-0.4c0-0.1,0-0.3,0.1-0.4c0.1-0.1,0.2-0.2,0.3-0.3c0.1-0.1,0.3-0.1,0.5-0.1v-0.3c0,0,0-0.1,0-0.1      c0,0,0.1,0,0.1,0c0,0,0.1,0,0.1,0c0,0,0,0.1,0,0.1v0.3c0.3,0,0.5,0.1,0.7,0.1c0.1,0,0.1,0.1,0.1,0.2c0,0,0,0.1,0,0.1      c0,0-0.1,0.1-0.1,0.1c0,0,0,0-0.1,0c-0.2-0.1-0.4-0.1-0.6-0.1v0.9c0.2,0,0.3,0.1,0.5,0.1c0.1,0.1,0.2,0.1,0.3,0.2      c0.1,0.1,0.1,0.2,0.1,0.4C230.5,154.8,230.5,154.9,230.4,155z M229,153.6c0.1,0.1,0.2,0.1,0.4,0.2v-0.9c-0.2,0-0.3,0.1-0.4,0.1      c-0.1,0.1-0.1,0.2-0.1,0.3C228.9,153.5,228.9,153.6,229,153.6z M230.2,154.6c0-0.1,0-0.2-0.1-0.2c-0.1-0.1-0.2-0.1-0.4-0.2v0.8      C230,155,230.2,154.9,230.2,154.6z"/><path fill="#fff" d="M232.8,155c-0.1,0.1-0.2,0.2-0.3,0.3c-0.1,0.1-0.3,0.1-0.5,0.1v0.3c0,0,0,0.1,0,0.1c0,0-0.1,0-0.1,0      c0,0-0.1,0-0.1,0c0,0,0,0,0-0.1v-0.3c-0.3,0-0.5-0.1-0.8-0.2c0,0-0.1,0-0.1-0.1c0,0,0-0.1,0-0.1c0,0,0-0.1,0-0.1      c0,0,0.1,0,0.1,0c0,0,0.1,0,0.1,0c0.2,0.1,0.4,0.1,0.7,0.2v-0.9c-0.2,0-0.3-0.1-0.4-0.2s-0.2-0.1-0.3-0.2      c-0.1-0.1-0.1-0.2-0.1-0.4c0-0.1,0-0.3,0.1-0.4c0.1-0.1,0.2-0.2,0.3-0.3c0.1-0.1,0.3-0.1,0.5-0.1v-0.3c0,0,0-0.1,0-0.1      c0,0,0.1,0,0.1,0c0,0,0.1,0,0.1,0c0,0,0,0.1,0,0.1v0.3c0.3,0,0.5,0.1,0.7,0.1c0.1,0,0.1,0.1,0.1,0.2c0,0,0,0.1,0,0.1      c0,0-0.1,0.1-0.1,0.1c0,0,0,0-0.1,0c-0.2-0.1-0.4-0.1-0.6-0.1v0.9c0.2,0,0.3,0.1,0.5,0.1c0.1,0.1,0.2,0.1,0.3,0.2      c0.1,0.1,0.1,0.2,0.1,0.4C232.9,154.8,232.9,154.9,232.8,155z M231.4,153.6c0.1,0.1,0.2,0.1,0.4,0.2v-0.9      c-0.2,0-0.3,0.1-0.4,0.1c-0.1,0.1-0.1,0.2-0.1,0.3C231.3,153.5,231.3,153.6,231.4,153.6z M232.6,154.6c0-0.1,0-0.2-0.1-0.2      c-0.1-0.1-0.2-0.1-0.4-0.2v0.8C232.4,155,232.6,154.9,232.6,154.6z"/><path fill="#fff" d="M235.2,155c-0.1,0.1-0.2,0.2-0.3,0.3c-0.1,0.1-0.3,0.1-0.5,0.1v0.3c0,0,0,0.1,0,0.1c0,0-0.1,0-0.1,0      c0,0-0.1,0-0.1,0c0,0,0,0,0-0.1v-0.3c-0.3,0-0.5-0.1-0.8-0.2c0,0-0.1,0-0.1-0.1c0,0,0-0.1,0-0.1c0,0,0-0.1,0-0.1      c0,0,0.1,0,0.1,0c0,0,0.1,0,0.1,0c0.2,0.1,0.4,0.1,0.7,0.2v-0.9c-0.2,0-0.3-0.1-0.4-0.2c-0.1-0.1-0.2-0.1-0.3-0.2      c-0.1-0.1-0.1-0.2-0.1-0.4c0-0.1,0-0.3,0.1-0.4c0.1-0.1,0.2-0.2,0.3-0.3c0.1-0.1,0.3-0.1,0.5-0.1v-0.3c0,0,0-0.1,0-0.1      c0,0,0.1,0,0.1,0c0,0,0.1,0,0.1,0c0,0,0,0.1,0,0.1v0.3c0.3,0,0.5,0.1,0.7,0.1c0.1,0,0.1,0.1,0.1,0.2c0,0,0,0.1,0,0.1      c0,0-0.1,0.1-0.1,0.1c0,0,0,0-0.1,0c-0.2-0.1-0.4-0.1-0.6-0.1v0.9c0.2,0,0.3,0.1,0.5,0.1c0.1,0.1,0.2,0.1,0.3,0.2      c0.1,0.1,0.1,0.2,0.1,0.4C235.3,154.8,235.3,154.9,235.2,155z M233.8,153.6c0.1,0.1,0.2,0.1,0.4,0.2v-0.9      c-0.2,0-0.3,0.1-0.4,0.1c-0.1,0.1-0.1,0.2-0.1,0.3C233.7,153.5,233.7,153.6,233.8,153.6z M235,154.6c0-0.1,0-0.2-0.1-0.2      c-0.1-0.1-0.2-0.1-0.4-0.2v0.8C234.8,155,235,154.9,235,154.6z"/><path fill="#d0cef2" d="M192.3,154.2c0,0.5-4.1,0.9-9.2,0.9c-5.1,0-9.2-0.4-9.2-0.9c0-0.5,4.1-0.9,9.2-0.9      C188.2,153.3,192.3,153.7,192.3,154.2z"/><path fill="#4c5c75" d="M191.9,135.4c-0.1-0.2-0.1-0.3-0.3-0.4c-0.5-0.5-1.2-0.5-1.6,0c-0.3,0.3-1.7,1.9-2.7,3.4         c-0.4-0.1-0.8,0-1.1,0.2c-0.1,0.1-0.2,0.2-0.4,0.3c-0.6,0.6-1.3,2.3-0.7,2.9c0.6,0.6,2.3,0,2.9-0.7c0.5-0.5,0.6-1.2,0.3-1.8         c1.4-1,3-2.4,3.2-2.6C191.9,136.3,192,135.8,191.9,135.4z M190.8,135.3c0.3,0,0.5,0.2,0.5,0.5c0,0.3-0.2,0.5-0.5,0.5         c-0.3,0-0.5-0.2-0.5-0.5C190.3,135.5,190.6,135.3,190.8,135.3z"/><path fill="#111d33" d="M191.6,136.6c-0.3,0.3-1.8,1.6-3.2,2.6c0.3,0.6,0.2,1.3-0.3,1.8c-0.6,0.6-2.3,1.3-2.9,0.7        c-0.6-0.6,0-2.3,0.7-2.9c0.1-0.1,0.2-0.2,0.4-0.3c0,0.1,0.1,0.1,0.1,0.2c0.1,0.2,0.2,0.3,0.4,0.4c0.2,0.1,0.4-0.1,0.6-0.1        c0.2-0.1,0.5,0,0.6,0.2c0,0.1,0,0.1,0,0.2c0.1,0.1,0.2,0,0.3-0.1c0.1-0.1,0-0.2,0-0.4c0-0.6,0.4-1,0.9-1.3        c0.5-0.3,1-0.4,1.6-0.6c0.3-0.1,0.7-0.2,0.8-0.6c0.1-0.3,0-0.6,0.2-0.9c0,0,0.1-0.1,0.1-0.1        C192,135.8,191.9,136.3,191.6,136.6z"/><path fill="#8a4852" d="M190.2,143.2C190.2,143.2,190.2,143.2,190.2,143.2c0-0.9-0.5-1.6-1.3-1.8c0,0,0-0.1,0-0.1         c0-1-0.8-1.9-1.9-1.9c-0.4,0-0.8,0.1-1.1,0.4c-0.3-0.6-0.9-1-1.7-1c-0.4,0-0.7,0.1-1,0.3c-0.3-0.3-0.8-0.5-1.3-0.5         c-0.9,0-1.6,0.6-1.8,1.4c-0.3-0.1-0.5-0.2-0.8-0.2c-1,0-1.7,0.7-1.9,1.6c-0.1,0-0.2,0-0.3,0c-1,0-1.9,0.8-1.9,1.9         c0,0,0,0,0,0.1H190.2z"/><path fill="#51383c" d="M190.2,143.2C190.2,143.2,190.2,143.2,190.2,143.2l-0.6,0.1c0,0,0,0,0-0.1c0-0.8-0.5-1.5-1.3-1.8         c0,0,0-0.1,0-0.1c0-0.9-0.7-1.7-1.6-1.8c0.1,0,0.2,0,0.3,0c1,0,1.9,0.8,1.9,1.9c0,0,0,0.1,0,0.1         C189.7,141.7,190.2,142.4,190.2,143.2z"/><path fill="#51383c" d="M175.5,142.5c-0.1,0.2-0.1,0.4-0.1,0.7c0,0,0,0,0,0.1h14.8c0,0,0,0,0-0.1c0-0.2-0.1-0.5-0.1-0.7H175.5z         "/><path fill="#dba660" d="M190.4,144.9c0,2.8-1.9,5.1-4.5,5.7v0.6c0,0.4-0.3,0.7-0.7,0.7h-4.7c-0.4,0-0.7-0.3-0.7-0.7v-0.6         c-2.6-0.6-4.5-3-4.5-5.7H190.4z"/><path fill="#bf7d5a" d="M190.4,145.4c0-0.1,0-0.3,0-0.4h-15.2c0,0.2,0,0.3,0,0.4H190.4z"/><path fill="#bf7d5a" d="M190.4,144.9c0,2.8-1.9,5.1-4.5,5.7v0.6c0,0.4-0.3,0.7-0.7,0.7h-4.7c-0.4,0-0.7-0.3-0.7-0.6         c0,0,0,0,0.1,0h4.7c0.4,0,0.7-0.3,0.7-0.7l0,0c0-0.4,0.2-0.7,0.6-0.8c2.1-0.7,3.7-2.7,3.9-5H190.4z"/><path fill="#ffd475" d="M191.5,143.3v1.1c0,0.3-0.3,0.6-0.6,0.6h-16c-0.3,0-0.6-0.3-0.6-0.6v-1.1c0-0.3,0.3-0.6,0.6-0.6h16         C191.2,142.7,191.5,143,191.5,143.3z"/><path fill="#ef9645" d="M174.3,144.2v0.2c0,0.3,0.3,0.6,0.6,0.6h16c0.3,0,0.6-0.3,0.6-0.6v-0.2H174.3z"/><path fill="#663232" d="M182.2,139.7c0,0-0.1,0-0.1-0.1c-0.1-0.1-0.1-0.2,0-0.3c0.2-0.3,0.7-0.3,1-0.1c0.1,0.1,0.1,0.2,0,0.3         c-0.1,0.1-0.2,0.1-0.3,0c-0.1-0.1-0.3-0.1-0.4,0C182.3,139.7,182.2,139.7,182.2,139.7z"/><path fill="#663232" d="M180.7,141.2c-0.1,0-0.2-0.1-0.2-0.2c0-0.4,0.3-0.7,0.7-0.7c0.1,0,0.2,0.1,0.2,0.2         c0,0.1-0.1,0.2-0.2,0.2c-0.1,0-0.3,0.1-0.3,0.3C180.9,141.1,180.8,141.2,180.7,141.2z"/><path fill="#663232" d="M178.2,141.9c0,0-0.1,0-0.1,0c-0.1-0.1-0.1-0.2-0.1-0.3c0.1-0.2,0.3-0.3,0.6-0.4c0.2,0,0.5,0,0.7,0.1         c0.1,0.1,0.1,0.2,0.1,0.3c-0.1,0.1-0.2,0.1-0.3,0.1c-0.1-0.1-0.2-0.1-0.4-0.1c-0.1,0-0.2,0.1-0.3,0.2         C178.3,141.9,178.2,141.9,178.2,141.9z"/><path fill="#663232" d="M184.5,140.8c0,0-0.1,0-0.1,0c-0.1-0.1-0.1-0.2-0.1-0.3c0.1-0.2,0.3-0.3,0.6-0.4c0.2,0,0.5,0,0.7,0.1         c0.1,0.1,0.1,0.2,0.1,0.3c-0.1,0.1-0.2,0.1-0.3,0.1c-0.1-0.1-0.2-0.1-0.4-0.1c-0.1,0-0.2,0.1-0.3,0.2         C184.6,140.8,184.6,140.8,184.5,140.8z"/><path fill="#663232" d="M182.8,141.9C182.8,141.9,182.7,141.9,182.8,141.9c-0.1,0-0.2-0.1-0.2-0.2c0-0.1-0.1-0.3-0.2-0.3         c-0.1,0-0.2-0.1-0.2-0.2c0-0.1,0.1-0.2,0.2-0.2c0.4,0.1,0.6,0.4,0.5,0.8C183,141.8,182.9,141.9,182.8,141.9z"/><path fill="#663232" d="M187.3,141.9C187.3,141.9,187.3,141.9,187.3,141.9c-0.1,0-0.2-0.1-0.2-0.2c0-0.1-0.1-0.3-0.2-0.3         c-0.1,0-0.2-0.1-0.2-0.2c0-0.1,0.1-0.2,0.2-0.2c0.4,0.1,0.6,0.4,0.5,0.8C187.5,141.8,187.4,141.9,187.3,141.9z"/><path fill="#111d33" d="M191.2,135.5c-0.1-0.1-0.2-0.1-0.3-0.1c-0.3,0-0.5,0.2-0.5,0.5c0,0.1,0,0.2,0.1,0.3         c-0.1-0.1-0.2-0.2-0.2-0.4c0-0.3,0.2-0.5,0.5-0.5C191,135.3,191.2,135.4,191.2,135.5z"/><path fill="#f3f1fc" d="M244.9,168.9v24c0,1.2-0.9,2.1-2.1,2.1h-76c-1.2,0-2.1-0.9-2.1-2.1v-24c0-1.2,0.9-2.1,2.1-2.1h76    C244,166.7,244.9,167.7,244.9,168.9z"/><path fill="#f45170" d="M219.8,171.9v3.5c0,0.4-0.3,0.7-0.7,0.7h-15.2c-0.4,0-0.7-0.3-0.7-0.7v-3.5c0-0.4,0.3-0.7,0.7-0.7h15.2    C219.5,171.2,219.8,171.5,219.8,171.9z"/><rect width="34.8" height="1.3" x="203.2" y="178.8" fill="#d0cef2"/><rect width="16.2" height="1.3" x="203.2" y="181.7" fill="#d0cef2"/><rect width="8.1" height="1.3" x="224.4" y="181.7" fill="#d0cef2"/><path fill="#ffd475" d="M237.9,187.6v4.2c0,0.3-0.2,0.5-0.5,0.5h-11c-0.3,0-0.5-0.2-0.5-0.5v-4.2c0-0.3,0.2-0.5,0.5-0.5h11    C237.7,187.2,237.9,187.4,237.9,187.6z"/><path fill="#fff" d="M230.4,190.8c-0.1,0.1-0.2,0.2-0.3,0.3s-0.3,0.1-0.5,0.1v0.3c0,0,0,0.1,0,0.1c0,0-0.1,0-0.1,0    c0,0-0.1,0-0.1,0c0,0,0,0,0-0.1v-0.3c-0.3,0-0.5-0.1-0.8-0.2c0,0-0.1,0-0.1-0.1c0,0,0-0.1,0-0.1c0,0,0-0.1,0-0.1c0,0,0.1,0,0.1,0    c0,0,0.1,0,0.1,0c0.2,0.1,0.4,0.1,0.7,0.2V190c-0.2,0-0.3-0.1-0.4-0.2s-0.2-0.1-0.3-0.2c-0.1-0.1-0.1-0.2-0.1-0.4    c0-0.1,0-0.3,0.1-0.4c0.1-0.1,0.2-0.2,0.3-0.3c0.1-0.1,0.3-0.1,0.5-0.1v-0.3c0,0,0-0.1,0-0.1c0,0,0.1,0,0.1,0c0,0,0.1,0,0.1,0    c0,0,0,0.1,0,0.1v0.3c0.3,0,0.5,0.1,0.7,0.1c0.1,0,0.1,0.1,0.1,0.2c0,0,0,0.1,0,0.1c0,0-0.1,0.1-0.1,0.1c0,0,0,0-0.1,0    c-0.2-0.1-0.4-0.1-0.6-0.1v0.9c0.2,0,0.3,0.1,0.5,0.1c0.1,0.1,0.2,0.1,0.3,0.2c0.1,0.1,0.1,0.2,0.1,0.4    C230.5,190.6,230.5,190.7,230.4,190.8z M229,189.4c0.1,0.1,0.2,0.1,0.4,0.2v-0.9c-0.2,0-0.3,0.1-0.4,0.1c-0.1,0.1-0.1,0.2-0.1,0.3    C228.9,189.3,228.9,189.4,229,189.4z M230.2,190.4c0-0.1,0-0.2-0.1-0.2c-0.1-0.1-0.2-0.1-0.4-0.2v0.8    C230,190.8,230.2,190.7,230.2,190.4z"/><path fill="#fff" d="M232.8,190.8c-0.1,0.1-0.2,0.2-0.3,0.3s-0.3,0.1-0.5,0.1v0.3c0,0,0,0.1,0,0.1c0,0-0.1,0-0.1,0    c0,0-0.1,0-0.1,0c0,0,0,0,0-0.1v-0.3c-0.3,0-0.5-0.1-0.8-0.2c0,0-0.1,0-0.1-0.1c0,0,0-0.1,0-0.1c0,0,0-0.1,0-0.1c0,0,0.1,0,0.1,0    c0,0,0.1,0,0.1,0c0.2,0.1,0.4,0.1,0.7,0.2V190c-0.2,0-0.3-0.1-0.4-0.2s-0.2-0.1-0.3-0.2c-0.1-0.1-0.1-0.2-0.1-0.4    c0-0.1,0-0.3,0.1-0.4c0.1-0.1,0.2-0.2,0.3-0.3c0.1-0.1,0.3-0.1,0.5-0.1v-0.3c0,0,0-0.1,0-0.1c0,0,0.1,0,0.1,0c0,0,0.1,0,0.1,0    c0,0,0,0.1,0,0.1v0.3c0.3,0,0.5,0.1,0.7,0.1c0.1,0,0.1,0.1,0.1,0.2c0,0,0,0.1,0,0.1c0,0-0.1,0.1-0.1,0.1c0,0,0,0-0.1,0    c-0.2-0.1-0.4-0.1-0.6-0.1v0.9c0.2,0,0.3,0.1,0.5,0.1c0.1,0.1,0.2,0.1,0.3,0.2c0.1,0.1,0.1,0.2,0.1,0.4    C232.9,190.6,232.9,190.7,232.8,190.8z M231.4,189.4c0.1,0.1,0.2,0.1,0.4,0.2v-0.9c-0.2,0-0.3,0.1-0.4,0.1    c-0.1,0.1-0.1,0.2-0.1,0.3C231.3,189.3,231.3,189.4,231.4,189.4z M232.6,190.4c0-0.1,0-0.2-0.1-0.2c-0.1-0.1-0.2-0.1-0.4-0.2v0.8    C232.4,190.8,232.6,190.7,232.6,190.4z"/><path fill="#fff" d="M235.2,190.8c-0.1,0.1-0.2,0.2-0.3,0.3c-0.1,0.1-0.3,0.1-0.5,0.1v0.3c0,0,0,0.1,0,0.1c0,0-0.1,0-0.1,0    c0,0-0.1,0-0.1,0c0,0,0,0,0-0.1v-0.3c-0.3,0-0.5-0.1-0.8-0.2c0,0-0.1,0-0.1-0.1c0,0,0-0.1,0-0.1c0,0,0-0.1,0-0.1c0,0,0.1,0,0.1,0    c0,0,0.1,0,0.1,0c0.2,0.1,0.4,0.1,0.7,0.2V190c-0.2,0-0.3-0.1-0.4-0.2c-0.1-0.1-0.2-0.1-0.3-0.2c-0.1-0.1-0.1-0.2-0.1-0.4    c0-0.1,0-0.3,0.1-0.4c0.1-0.1,0.2-0.2,0.3-0.3c0.1-0.1,0.3-0.1,0.5-0.1v-0.3c0,0,0-0.1,0-0.1c0,0,0.1,0,0.1,0c0,0,0.1,0,0.1,0    c0,0,0,0.1,0,0.1v0.3c0.3,0,0.5,0.1,0.7,0.1c0.1,0,0.1,0.1,0.1,0.2c0,0,0,0.1,0,0.1c0,0-0.1,0.1-0.1,0.1c0,0,0,0-0.1,0    c-0.2-0.1-0.4-0.1-0.6-0.1v0.9c0.2,0,0.3,0.1,0.5,0.1c0.1,0.1,0.2,0.1,0.3,0.2c0.1,0.1,0.1,0.2,0.1,0.4    C235.3,190.6,235.3,190.7,235.2,190.8z M233.8,189.4c0.1,0.1,0.2,0.1,0.4,0.2v-0.9c-0.2,0-0.3,0.1-0.4,0.1    c-0.1,0.1-0.1,0.2-0.1,0.3C233.7,189.3,233.7,189.4,233.8,189.4z M235,190.4c0-0.1,0-0.2-0.1-0.2c-0.1-0.1-0.2-0.1-0.4-0.2v0.8    C234.8,190.8,235,190.7,235,190.4z"/><g><path fill="#f3f1fc" d="M244.9,204.6v24c0,1.2-0.9,2.1-2.1,2.1h-76c-1.2,0-2.1-0.9-2.1-2.1v-24c0-1.2,0.9-2.1,2.1-2.1h76     C244,202.5,244.9,203.5,244.9,204.6z"/><path fill="#f45170" d="M219.8,207.7v3.5c0,0.4-0.3,0.7-0.7,0.7h-15.2c-0.4,0-0.7-0.3-0.7-0.7v-3.5c0-0.4,0.3-0.7,0.7-0.7h15.2     C219.5,206.9,219.8,207.3,219.8,207.7z"/><rect width="34.8" height="1.3" x="203.2" y="214.6" fill="#d0cef2"/><rect width="16.2" height="1.3" x="203.2" y="217.5" fill="#d0cef2"/><rect width="8.1" height="1.3" x="224.4" y="217.5" fill="#d0cef2"/><path fill="#ffd475" d="M237.9,223.4v4.2c0,0.3-0.2,0.5-0.5,0.5h-11c-0.3,0-0.5-0.2-0.5-0.5v-4.2c0-0.3,0.2-0.5,0.5-0.5h11     C237.7,222.9,237.9,223.2,237.9,223.4z"/><path fill="#fff" d="M230.4,226.6c-0.1,0.1-0.2,0.2-0.3,0.3s-0.3,0.1-0.5,0.1v0.3c0,0,0,0.1,0,0.1c0,0-0.1,0-0.1,0      c0,0-0.1,0-0.1,0c0,0,0,0,0-0.1V227c-0.3,0-0.5-0.1-0.8-0.2c0,0-0.1,0-0.1-0.1c0,0,0-0.1,0-0.1c0,0,0-0.1,0-0.1c0,0,0.1,0,0.1,0      c0,0,0.1,0,0.1,0c0.2,0.1,0.4,0.1,0.7,0.2v-0.9c-0.2,0-0.3-0.1-0.4-0.2c-0.1-0.1-0.2-0.1-0.3-0.2c-0.1-0.1-0.1-0.2-0.1-0.4      c0-0.1,0-0.3,0.1-0.4c0.1-0.1,0.2-0.2,0.3-0.3c0.1-0.1,0.3-0.1,0.5-0.1v-0.3c0,0,0-0.1,0-0.1c0,0,0.1,0,0.1,0c0,0,0.1,0,0.1,0      c0,0,0,0.1,0,0.1v0.3c0.3,0,0.5,0.1,0.7,0.1c0.1,0,0.1,0.1,0.1,0.2c0,0,0,0.1,0,0.1c0,0-0.1,0.1-0.1,0.1c0,0,0,0-0.1,0      c-0.2-0.1-0.4-0.1-0.6-0.1v0.9c0.2,0,0.3,0.1,0.5,0.1c0.1,0.1,0.2,0.1,0.3,0.2c0.1,0.1,0.1,0.2,0.1,0.4      C230.5,226.4,230.5,226.5,230.4,226.6z M229,225.2c0.1,0.1,0.2,0.1,0.4,0.2v-0.9c-0.2,0-0.3,0.1-0.4,0.1      c-0.1,0.1-0.1,0.2-0.1,0.3C228.9,225.1,228.9,225.2,229,225.2z M230.2,226.2c0-0.1,0-0.2-0.1-0.2c-0.1-0.1-0.2-0.1-0.4-0.2v0.8      C230,226.6,230.2,226.5,230.2,226.2z"/><path fill="#fff" d="M232.8,226.6c-0.1,0.1-0.2,0.2-0.3,0.3s-0.3,0.1-0.5,0.1v0.3c0,0,0,0.1,0,0.1c0,0-0.1,0-0.1,0      c0,0-0.1,0-0.1,0c0,0,0,0,0-0.1V227c-0.3,0-0.5-0.1-0.8-0.2c0,0-0.1,0-0.1-0.1c0,0,0-0.1,0-0.1c0,0,0-0.1,0-0.1c0,0,0.1,0,0.1,0      c0,0,0.1,0,0.1,0c0.2,0.1,0.4,0.1,0.7,0.2v-0.9c-0.2,0-0.3-0.1-0.4-0.2c-0.1-0.1-0.2-0.1-0.3-0.2c-0.1-0.1-0.1-0.2-0.1-0.4      c0-0.1,0-0.3,0.1-0.4c0.1-0.1,0.2-0.2,0.3-0.3c0.1-0.1,0.3-0.1,0.5-0.1v-0.3c0,0,0-0.1,0-0.1c0,0,0.1,0,0.1,0c0,0,0.1,0,0.1,0      c0,0,0,0.1,0,0.1v0.3c0.3,0,0.5,0.1,0.7,0.1c0.1,0,0.1,0.1,0.1,0.2c0,0,0,0.1,0,0.1c0,0-0.1,0.1-0.1,0.1c0,0,0,0-0.1,0      c-0.2-0.1-0.4-0.1-0.6-0.1v0.9c0.2,0,0.3,0.1,0.5,0.1c0.1,0.1,0.2,0.1,0.3,0.2c0.1,0.1,0.1,0.2,0.1,0.4      C232.9,226.4,232.9,226.5,232.8,226.6z M231.4,225.2c0.1,0.1,0.2,0.1,0.4,0.2v-0.9c-0.2,0-0.3,0.1-0.4,0.1      c-0.1,0.1-0.1,0.2-0.1,0.3C231.3,225.1,231.3,225.2,231.4,225.2z M232.6,226.2c0-0.1,0-0.2-0.1-0.2c-0.1-0.1-0.2-0.1-0.4-0.2      v0.8C232.4,226.6,232.6,226.5,232.6,226.2z"/><path fill="#fff" d="M235.2,226.6c-0.1,0.1-0.2,0.2-0.3,0.3c-0.1,0.1-0.3,0.1-0.5,0.1v0.3c0,0,0,0.1,0,0.1c0,0-0.1,0-0.1,0      c0,0-0.1,0-0.1,0c0,0,0,0,0-0.1V227c-0.3,0-0.5-0.1-0.8-0.2c0,0-0.1,0-0.1-0.1c0,0,0-0.1,0-0.1c0,0,0-0.1,0-0.1c0,0,0.1,0,0.1,0      c0,0,0.1,0,0.1,0c0.2,0.1,0.4,0.1,0.7,0.2v-0.9c-0.2,0-0.3-0.1-0.4-0.2c-0.1-0.1-0.2-0.1-0.3-0.2c-0.1-0.1-0.1-0.2-0.1-0.4      c0-0.1,0-0.3,0.1-0.4c0.1-0.1,0.2-0.2,0.3-0.3c0.1-0.1,0.3-0.1,0.5-0.1v-0.3c0,0,0-0.1,0-0.1c0,0,0.1,0,0.1,0c0,0,0.1,0,0.1,0      c0,0,0,0.1,0,0.1v0.3c0.3,0,0.5,0.1,0.7,0.1c0.1,0,0.1,0.1,0.1,0.2c0,0,0,0.1,0,0.1c0,0-0.1,0.1-0.1,0.1c0,0,0,0-0.1,0      c-0.2-0.1-0.4-0.1-0.6-0.1v0.9c0.2,0,0.3,0.1,0.5,0.1c0.1,0.1,0.2,0.1,0.3,0.2c0.1,0.1,0.1,0.2,0.1,0.4      C235.3,226.4,235.3,226.5,235.2,226.6z M233.8,225.2c0.1,0.1,0.2,0.1,0.4,0.2v-0.9c-0.2,0-0.3,0.1-0.4,0.1      c-0.1,0.1-0.1,0.2-0.1,0.3C233.7,225.1,233.7,225.2,233.8,225.2z M235,226.2c0-0.1,0-0.2-0.1-0.2c-0.1-0.1-0.2-0.1-0.4-0.2v0.8      C234.8,226.6,235,226.5,235,226.2z"/><path fill="#d0cef2" d="M191.1,226c0,0.5-4,0.9-8.9,0.9c-4.9,0-8.9-0.4-8.9-0.9s4-0.9,8.9-0.9C187.1,225,191.1,225.4,191.1,226z"/><path fill="#ef9645" d="M179.8,208.2c-0.3,0-0.5,0.2-0.6,0.3h0.4"/><path fill="#ef9645" d="M184.2,208.2c0.3,0,0.5,0.2,0.6,0.3h-0.6V208.2z"/><path fill="#4c5c75" d="M190.3,208.6c0,0.2-0.1,0.3-0.3,0.3l-4.2,0.1l-6.2,0.1l-0.9,0c-0.2,0-0.3-0.1-0.3-0.3v0        c0-0.2,0.1-0.3,0.3-0.3l4.2-0.1l6.2-0.1l0.9,0C190.2,208.3,190.3,208.5,190.3,208.6z"/><polygon fill="#111d33" points="189.2 208.3 185.8 209 179.6 209.1 182.9 208.4"/><path fill="#ffd475" d="M179.6,208.2v7.4h4.7v-7.4L179.6,208.2C179.6,208.2,179.6,208.2,179.6,208.2z"/><rect width=".2" height="7.4" x="180.4" y="208.2" fill="#ef9645"/><rect width=".2" height="7.4" x="181.3" y="208.2" fill="#ef9645"/><rect width=".2" height="7.4" x="182.3" y="208.2" fill="#ef9645"/><rect width=".2" height="7.4" x="183.2" y="208.2" fill="#ef9645"/><path fill="#ffd475" d="M181,215.5c0,1.4-1.1,2.5-2.5,2.5c-1.4,0-2.5-1.1-2.5-2.5c0-1.4,1.1-2.5,2.5-2.5          C179.9,213,181,214.1,181,215.5z"/><path fill="#ef9645" d="M178.5,217.3c-1,0-1.8-0.8-1.8-1.8c0-1,0.8-1.8,1.8-1.8c1,0,1.8,0.8,1.8,1.8         C180.3,216.5,179.5,217.3,178.5,217.3z M178.5,214c-0.8,0-1.5,0.7-1.5,1.5c0,0.8,0.7,1.5,1.5,1.5s1.5-0.7,1.5-1.5         C180,214.7,179.3,214,178.5,214z"/><path fill="#ef9645" d="M178.5,216.5c-0.6,0-1-0.5-1-1c0-0.6,0.5-1,1-1c0.6,0,1,0.5,1,1C179.5,216,179.1,216.5,178.5,216.5z          M178.5,214.8c-0.4,0-0.7,0.3-0.7,0.7c0,0.4,0.3,0.7,0.7,0.7c0.4,0,0.7-0.3,0.7-0.7C179.2,215.1,178.9,214.8,178.5,214.8z"/><path fill="#ffd475" d="M187.9,213.4c0,1.4-1.1,2.5-2.5,2.5c-1.4,0-2.5-1.1-2.5-2.5c0-1.4,1.1-2.5,2.5-2.5         C186.8,211,187.9,212.1,187.9,213.4z"/><path fill="#ef9645" d="M185.5,215.2c-1,0-1.8-0.8-1.8-1.8c0-1,0.8-1.8,1.8-1.8c1,0,1.8,0.8,1.8,1.8        C187.3,214.4,186.5,215.2,185.5,215.2z M185.5,212c-0.8,0-1.5,0.7-1.5,1.5c0,0.8,0.7,1.5,1.5,1.5c0.8,0,1.5-0.7,1.5-1.5        C186.9,212.6,186.3,212,185.5,212z"/><path fill="#ef9645" d="M185.5,214.5c-0.6,0-1-0.5-1-1c0-0.6,0.5-1,1-1c0.6,0,1,0.5,1,1C186.5,214,186,214.5,185.5,214.5z         M185.5,212.7c-0.4,0-0.7,0.3-0.7,0.7c0,0.4,0.3,0.7,0.7,0.7c0.4,0,0.7-0.3,0.7-0.7C186.1,213.1,185.8,212.7,185.5,212.7z"/><path fill="#ffd475" d="M185.9,215c0,1.4-1.1,2.5-2.5,2.5c-1.4,0-2.5-1.1-2.5-2.5c0-1.4,1.1-2.5,2.5-2.5          C184.8,212.5,185.9,213.6,185.9,215z"/><path fill="#ef9645" d="M183.4,216.8c-1,0-1.8-0.8-1.8-1.8c0-1,0.8-1.8,1.8-1.8c1,0,1.8,0.8,1.8,1.8         C185.2,216,184.4,216.8,183.4,216.8z M183.4,213.5c-0.8,0-1.5,0.7-1.5,1.5c0,0.8,0.7,1.5,1.5,1.5s1.5-0.7,1.5-1.5         C184.9,214.2,184.2,213.5,183.4,213.5z"/><path fill="#ef9645" d="M183.4,216c-0.6,0-1-0.5-1-1c0-0.6,0.5-1,1-1c0.6,0,1,0.5,1,1C184.4,215.5,184,216,183.4,216z          M183.4,214.3c-0.4,0-0.7,0.3-0.7,0.7c0,0.4,0.3,0.7,0.7,0.7c0.4,0,0.7-0.3,0.7-0.7C184.1,214.6,183.8,214.3,183.4,214.3z"/><path fill="#ffd475" d="M183,213.9c0,1.1-0.9,2-2,2c-1.1,0-2-0.9-2-2c0-1.1,0.9-2,2-2C182.1,211.8,183,212.7,183,213.9z"/><path fill="#ef9645" d="M181,215.4c-0.8,0-1.5-0.7-1.5-1.5c0-0.8,0.7-1.5,1.5-1.5c0.8,0,1.5,0.7,1.5,1.5         C182.5,214.7,181.8,215.4,181,215.4z M181,212.7c-0.7,0-1.2,0.5-1.2,1.2c0,0.7,0.5,1.2,1.2,1.2c0.7,0,1.2-0.5,1.2-1.2         C182.1,213.2,181.6,212.7,181,212.7z"/><path fill="#ef9645" d="M181,214.7c-0.5,0-0.9-0.4-0.9-0.9c0-0.5,0.4-0.9,0.9-0.9c0.5,0,0.9,0.4,0.9,0.9         C181.8,214.4,181.4,214.7,181,214.7z M181,213.3c-0.3,0-0.5,0.2-0.5,0.5c0,0.3,0.2,0.5,0.5,0.5c0.3,0,0.5-0.2,0.5-0.5         C181.5,213.6,181.3,213.3,181,213.3z"/><path fill="#ffd475" d="M190,215.4c0,1.1-0.9,2-2,2c-1.1,0-2-0.9-2-2c0-1.1,0.9-2,2-2C189,213.3,190,214.2,190,215.4z"/><path fill="#ef9645" d="M187.9,216.9c-0.8,0-1.5-0.7-1.5-1.5c0-0.8,0.7-1.5,1.5-1.5c0.8,0,1.5,0.7,1.5,1.5         C189.4,216.2,188.8,216.9,187.9,216.9z M187.9,214.2c-0.7,0-1.2,0.5-1.2,1.2c0,0.7,0.5,1.2,1.2,1.2c0.7,0,1.2-0.5,1.2-1.2         C189.1,214.7,188.6,214.2,187.9,214.2z"/><path fill="#ef9645" d="M187.9,216.2c-0.5,0-0.9-0.4-0.9-0.9c0-0.5,0.4-0.9,0.9-0.9c0.5,0,0.9,0.4,0.9,0.9         C188.8,215.9,188.4,216.2,187.9,216.2z M187.9,214.8c-0.3,0-0.5,0.2-0.5,0.5c0,0.3,0.2,0.5,0.5,0.5s0.5-0.2,0.5-0.5         C188.5,215.1,188.2,214.8,187.9,214.8z"/><path fill="#dba660" d="M191,216.6L191,216.6c0,0.5-0.4,1-1,1h-14.1c-0.5,0-1-0.4-1-1l0,0c0-0.5,0.4-1,1-1H190        C190.6,215.7,191,216.1,191,216.6z"/><path fill="#dba660" d="M175.8,217.6c0.1,2.2,1.3,4.2,3,5.4c0.5,0.3,1,0.5,1.6,0.5h5.3c0.6,0,1.1-0.2,1.6-0.5        c1.7-1.2,2.8-3.2,3-5.4H175.8z"/><g><path fill="#bf7d5a" d="M190.1,217.6c0,0.1,0,0.3,0,0.4c0,0.1,0,0.2,0,0.2c0,0,0,0.1,0,0.1h0c-0.3,1.9-1.4,3.6-2.9,4.7         c-0.5,0.3-1,0.5-1.6,0.5h-5.3c-0.6,0-1.1-0.2-1.6-0.5c-0.2-0.1-0.3-0.2-0.5-0.4c0.4,0.2,0.9,0.4,1.4,0.4h5.3         c0.6,0,1.1-0.2,1.6-0.5c1-0.7,1.8-1.7,2.3-2.8c0.3-0.6-0.2-1.3-0.9-1.3h-12.1c0-0.2-0.1-0.5-0.1-0.7H190.1z"/></g><g><path fill="#4c5c75" d="M190.2,207.6L190.2,207.6c0,0.2-0.1,0.3-0.2,0.4l-11.1,2.2c-0.2,0-0.3-0.1-0.4-0.2l0,0        c0-0.2,0.1-0.3,0.2-0.4l11.1-2.2C190,207.3,190.2,207.4,190.2,207.6z"/></g></g><g><path fill="#d0cef2" d="M192.1,189.9c0,0.5-4.1,0.9-9.2,0.9c-5.1,0-9.2-0.4-9.2-0.9c0-0.5,4.1-0.9,9.2-0.9     C188,189,192.1,189.4,192.1,189.9z"/><path fill="#ffd475" d="M190.5,183.4v0.8c0,1.5-1.2,2.8-2.8,2.8h-8.8c-1.5,0-2.8-1.2-2.8-2.8v-0.8H190.5z"/><path fill="#ef9645" d="M190.5,183.4v0.8c0,1.5-1.2,2.8-2.8,2.8h-8.8c-1.2,0-2.2-0.7-2.6-1.8c0.5,0.6,1.3,1,2.1,1h8.8      c1.5,0,2.8-1.2,2.8-2.8v-0.1H190.5z"/><path fill="#f7a386" d="M191.1,182.5L191.1,182.5c0,0.5-0.4,0.9-0.9,0.9h-13.8c-0.5,0-0.9-0.4-0.9-0.9l0,0c0-0.5,0.4-0.9,0.9-0.9      h13.8C190.7,181.6,191.1,182,191.1,182.5z"/><path fill="#ea896e" d="M191,182.1c0,0.2-0.2,0.3-0.3,0.3c-0.2,0-0.4-0.1-0.5-0.1c-0.2-0.1-0.4-0.1-0.5,0      c-0.3,0.1-0.3,0.5-0.5,0.7c-0.3,0.3-0.7,0.3-1.1,0.2c-0.4-0.1-0.7-0.4-1-0.6c-0.3-0.2-0.7-0.4-1.1-0.3c-0.4,0.1-0.6,0.4-0.9,0.6      c-0.8,0.5-1.9,0.5-2.6-0.1c-0.4-0.3-0.8-0.8-1.3-0.9c-0.4,0-0.8,0.2-1.1,0.4c-0.3,0.3-0.6,0.6-0.9,0.8c-0.3,0.2-0.8,0.3-1.2,0      c-0.2-0.2-0.3-0.5-0.5-0.7c-0.1-0.3-0.4-0.5-0.7-0.4c-0.2,0-0.3,0.2-0.4,0.3c-0.1,0.1-0.3,0.2-0.4,0.2c-0.2,0-0.3-0.3-0.2-0.4      c0,0.1,0.1,0.2,0.2,0.2c0.2,0,0.3-0.1,0.4-0.2c0.1-0.1,0.2-0.2,0.4-0.3c0.3-0.1,0.5,0.2,0.7,0.4c0.1,0.3,0.2,0.6,0.5,0.7      c0.3,0.3,0.8,0.2,1.2,0c0.4-0.2,0.6-0.5,0.9-0.8c0.3-0.3,0.7-0.5,1.1-0.4c0.5,0.1,0.9,0.6,1.3,0.9c0.7,0.6,1.8,0.6,2.6,0.1      c0.3-0.2,0.6-0.5,0.9-0.6c0.4-0.1,0.8,0.1,1.1,0.3c0.3,0.2,0.7,0.5,1,0.6c0.4,0.1,0.8,0.1,1.1-0.2c0.2-0.2,0.3-0.6,0.5-0.7      c0.2-0.1,0.4,0,0.5,0c0.2,0.1,0.3,0.1,0.5,0.1c0.2,0,0.3-0.1,0.3-0.3C191,182,191,182,191,182.1z"/><path fill="#6eb954" d="M175.6,181.9c-0.1,0.1,0,0.4,0.2,0.4c0.2,0,0.3-0.1,0.4-0.2c0.1-0.1,0.2-0.2,0.4-0.3      c0.3-0.1,0.5,0.2,0.7,0.4c0.1,0.3,0.2,0.5,0.5,0.7c0.3,0.3,0.8,0.2,1.2,0c0.4-0.2,0.6-0.5,0.9-0.8c0.3-0.3,0.7-0.5,1.1-0.4      c0.5,0.1,0.9,0.6,1.3,0.9c0.7,0.6,1.8,0.6,2.6,0.1c0.3-0.2,0.6-0.5,0.9-0.6c0.4-0.1,0.8,0.1,1.1,0.3c0.3,0.2,0.7,0.5,1,0.6      c0.4,0.1,0.8,0.1,1.1-0.2c0.2-0.2,0.3-0.6,0.5-0.7c0.2-0.1,0.4,0,0.5,0s0.3,0.1,0.5,0.1c0.2,0,0.4-0.2,0.3-0.3l0,0      c0-0.9-0.7-1.6-1.6-1.6h-12.2C176.3,180.2,175.6,181,175.6,181.9L175.6,181.9z"/><rect width="14" height=".7" x="176.3" y="177.6" fill="#f45170"/><rect width="14.3" height=".5" x="176.2" y="180.2" fill="#4b9534"/><path fill="#ffd475" d="M190.2,177.6c0.7,0,1.3-0.5,1.3-1.2c0,0,0,0,0,0c0-3.1-3.7-5.6-8.2-5.6c-4.5,0-8.2,2.5-8.2,5.6      c0,0,0,0,0,0c0,0.7,0.6,1.2,1.3,1.2H190.2z"/><path fill="#ef9645" d="M191.5,176.4C191.5,176.4,191.5,176.4,191.5,176.4c0,0.7-0.6,1.2-1.3,1.2h-13.9c-0.7,0-1.3-0.5-1.3-1.2      c0,0,0,0,0,0c0-0.3,0-0.6,0.1-0.9c1.5,1,4.1,1.6,7,1.6c4.2,0,7.8-1.3,8.4-3.1C191.2,174.7,191.5,175.5,191.5,176.4z"/><path fill="#ffd475" d="M191.1,179.3c0,0.5-0.4,0.9-0.9,0.9h-0.8l-1.1,1.1c-0.2,0.2-0.6,0.2-0.8,0l-1.1-1.1h-0.6L185,181      c-0.2,0.2-0.4,0.2-0.6,0l-0.8-0.8h-7.1c-0.5,0-0.9-0.4-0.9-0.9c0-0.2,0.1-0.5,0.3-0.6c0.2-0.2,0.4-0.3,0.6-0.3h13.8      C190.7,178.4,191.1,178.8,191.1,179.3z"/><path fill="#ef9645" d="M191.1,179.3c0,0.5-0.4,0.9-0.9,0.9h-0.8l-1.1,1.1c-0.2,0.2-0.6,0.2-0.8,0l-1.1-1.1h-0.6L185,181      c-0.2,0.2-0.4,0.2-0.6,0l-0.8-0.8h-7.1c-0.5,0-0.9-0.4-0.9-0.9c0-0.1,0-0.1,0-0.2c0.1,0.4,0.4,0.7,0.9,0.7h6.9      c0.1,0,0.3,0.1,0.4,0.2l0.7,0.7c0.2,0.2,0.4,0.2,0.6,0l0.6-0.6c0.1-0.1,0.3-0.2,0.5-0.2l0,0c0.2,0,0.4,0.1,0.5,0.2l0.9,0.9      c0.2,0.2,0.6,0.2,0.8,0l0.9-0.9c0.1-0.1,0.2-0.2,0.4-0.2h0.6c0.4,0,0.8-0.3,0.9-0.7C191.1,179.1,191.1,179.2,191.1,179.3z"/><path fill="#fff" d="M184.5,173.4c0,0.2-0.1,0.4-0.2,0.4c-0.1,0-0.2-0.2-0.2-0.4c0-0.2,0.1-0.4,0.2-0.4       C184.4,173,184.5,173.2,184.5,173.4z"/><path fill="#fff" d="M187.9,173c0.1,0.2,0.1,0.4,0,0.4c-0.1,0-0.2-0.1-0.3-0.2s-0.1-0.4,0-0.4       C187.6,172.7,187.8,172.8,187.9,173z"/><path fill="#fff" d="M185.3,172.7c-0.1,0.2-0.2,0.3-0.3,0.2c-0.1,0-0.1-0.2,0-0.4c0.1-0.2,0.2-0.3,0.3-0.2       C185.4,172.4,185.4,172.6,185.3,172.7z"/><path fill="#fff" d="M181,172.6c0.1,0.2,0,0.4-0.1,0.4c-0.1,0-0.2-0.1-0.3-0.3c-0.1-0.2,0-0.4,0.1-0.4       C180.8,172.3,180.9,172.4,181,172.6z"/><path fill="#fff" d="M178.9,173.3c-0.2,0.1-0.3,0.1-0.4,0c-0.1-0.1,0-0.2,0.2-0.4c0.2-0.1,0.3-0.1,0.4,0       C179.2,173,179.1,173.1,178.9,173.3z"/><path fill="#fff" d="M178.9,174.3c0.1,0.1,0.2,0.3,0.1,0.4c-0.1,0.1-0.2,0-0.4-0.1c-0.1-0.1-0.2-0.3-0.1-0.4       C178.5,174.1,178.7,174.2,178.9,174.3z"/><path fill="#fff" d="M180.9,174.4c-0.2,0.1-0.4,0.1-0.4,0c-0.1-0.1,0-0.2,0.2-0.3c0.2-0.1,0.4-0.1,0.4,0       C181.2,174.1,181.1,174.3,180.9,174.4z"/><path fill="#fff" d="M183,172.6c-0.2,0.1-0.3,0.2-0.4,0.1c-0.1-0.1,0-0.2,0.2-0.4c0.2-0.1,0.3-0.2,0.4-0.1       C183.2,172.3,183.2,172.5,183,172.6z"/><path fill="#fff" d="M185.1,174.6c-0.1,0.2-0.2,0.3-0.3,0.3c-0.1,0-0.1-0.2,0-0.4c0.1-0.2,0.2-0.3,0.3-0.3       C185.2,174.3,185.2,174.4,185.1,174.6z"/><path fill="#fff" d="M187.1,174.4c-0.1,0.2-0.2,0.3-0.3,0.3c-0.1,0-0.1-0.2,0-0.4c0.1-0.2,0.2-0.3,0.3-0.3       C187.1,174,187.2,174.2,187.1,174.4z"/><path fill="#fff" d="M188.9,173.9c-0.2,0.1-0.4,0-0.4-0.1c0-0.1,0.1-0.2,0.3-0.3c0.2-0.1,0.4,0,0.4,0.1       C189.3,173.7,189.1,173.9,188.9,173.9z"/><path fill="#fff" d="M186.2,173.4c0.2,0.1,0.3,0.2,0.3,0.3c0,0.1-0.2,0.1-0.4,0.1c-0.2-0.1-0.3-0.2-0.3-0.3       C185.9,173.3,186,173.3,186.2,173.4z"/><path fill="#fff" d="M186.5,172c0.2,0,0.4,0,0.4,0.1c0,0.1-0.1,0.2-0.3,0.2c-0.2,0-0.4,0-0.4-0.1       C186.2,172.2,186.3,172.1,186.5,172z"/><path fill="#fff" d="M182.5,173.5c0.1,0.1,0.2,0.3,0.1,0.4c-0.1,0.1-0.2,0-0.4-0.1c-0.1-0.1-0.2-0.3-0.1-0.4       C182.2,173.3,182.4,173.4,182.5,173.5z"/><path fill="#fff" d="M181.9,172.2c0,0.2-0.1,0.4-0.2,0.4s-0.2-0.2-0.2-0.4c0-0.2,0.1-0.4,0.2-0.4S181.9,172,181.9,172.2z"/></g><linearGradient id="e" x1="161.204" x2="163.879" y1="128.426" y2="128.426" gradientUnits="userSpaceOnUse"><stop offset="0" stop-color="#8fb7ff"/><stop offset="1" stop-color="#9fbcfc"/></linearGradient><path fill="url(#e)" d="M162.4,127.1l1.4,1.7c0.1,0.1,0.1,0.3,0,0.4l-0.8,0.6c-0.1,0.1-0.3,0.1-0.4,0l-1.4-1.7    c-0.1-0.1-0.1-0.3,0-0.4l0.8-0.6C162.2,127,162.4,127,162.4,127.1z"/><g><polygon fill="#fc7661" points="137.6 170.8 137.5 170.7 137.8 168.6 137.9 168.6"/><polygon fill="#fc7661" points="133.5 170.1 133.4 170.1 133.7 168 133.8 168"/><polygon fill="#fc7661" points="129.1 169.9 129 169.9 129.3 167.8 129.4 167.8"/><path fill="#8a4852" d="M110.6,82.5c0,0,1.3,3.4-2.6,7.5l-4.2-8.7L110.6,82.5z"/><path fill="#fee1bc" d="M122,160.3c-0.1,0.2-0.2,0.4-0.1,0.5c0.1,0.1,0.3,0.2,0.4,0.2c0.5,0.1,1,0.1,1.4-0.2     c0.3-0.2,0.4-0.5,0.4-0.9c0-0.3,0-0.7,0-1c0-0.3-0.1-0.6-0.4-0.7c-0.3-0.1-0.7,0.3-0.9,0.5C122.5,159.3,122.2,159.9,122,160.3z"/><path fill="#4c5c75" d="M126.4,244.8H94.1c-1.6-6.1-3.3-12.4-3.3-12.4l-3.4,10.7l-0.5,1.7H54c0.1-3.6,0.4-7.7,0.8-11.8     c1-9.2,2.8-18.5,6.4-21.7c11.1-10.1,46.8-10.1,57.9,0c2.2,2,3.7,6.2,4.8,11.3C125.4,229.5,126.1,238.1,126.4,244.8z"/><path fill="#111d33" d="M123.9,222.5c-2.7,0.8-5.7,0.6-8.5,0c-3.1-0.7-6-1.9-9.1-2.8c-10.7-3-22.5-1.6-32.2,3.7     c-2.6,1.5-5.2,3.3-6.7,5.9c-1.5,2.6-1.7,6.1,0.2,8.5c2.3,2.9,6.6,2.9,10.4,2.8c3.3-0.1,7.2,0.2,9.4,2.5l-0.5,1.7H54     c0.1-3.6,0.4-7.7,0.8-11.8c1-9.2,2.8-18.5,6.4-21.7c11.1-10.1,46.8-10.1,57.9,0C121.3,213.2,122.9,217.4,123.9,222.5z"/><path fill="#f7a386" d="M141.8,172.3c-0.9,1.2,0.4,3.6,2.9,5.5c2.5,1.9,5.2,2.5,6.1,1.3c0.9-1.2-0.4-3.6-2.9-5.5     C145.4,171.7,142.7,171.1,141.8,172.3z"/><path fill="#c6aeff" d="M139.2,180.1c-1.6-11.3-6.8-28.9-9.3-38.6c-2.1-8.6-6-10.1-6-10.1c0-0.4-12-7.3-16.4-8.9     c-1.4-0.5-3-0.9-4.9-1.4c-0.5-0.1-1-0.2-1.6-0.3c0,0-0.1,0-0.1,0c-0.4-0.1-0.8-0.2-1.2-0.2c-0.2,0-0.5-0.1-0.7-0.1     c-7.3-1.4-16.1-2.3-21.9-2c-0.3,0-0.6,0-0.9,0.1c-0.2,0-0.3,0-0.5,0c-0.2,0-0.4,0-0.5,0c0,0-0.1,0-0.1,0c-0.6,0.1-1.3,0.2-2,0.3     c-8.4,1.6-22.4,7.5-26.2,11.4c-3.8,4-11.8,59,0.5,68.9c0.9,0.8,2,1.3,3.2,1.4c2.5,0.4,9.5-3.5,9.5-3.5s-8.4,15.5-4.3,20.4     c10.8,12.9,43.5-13.3,66.5,0.7c2.2-2.4,3.3-5,3.7-7.7c0.6-4-0.3-8.1-1.7-12.3c0.7,0.7,1.6,1.1,2.7,1.1     C132.9,199.3,140.1,185.7,139.2,180.1z M119,179.1c0.1,0.7,0.2,1.3,0.4,1.8c0.8,3.1,1.4,5.9,1.9,8.4     C120.1,185.8,119.2,182.4,119,179.1z"/><path fill="#986ff9" d="M46.1,159.4c1.2-13.3,3.7-24.9,5.4-26.7c4.1-4.3,21-11.1,28.8-11.8c0.9-0.1,1.9-0.1,2.9-0.1v-2.4     c-2.8-0.1-5.3-0.1-7.3,0c-7.7,0.6-24.6,7.5-28.8,11.8c-1.8,1.9-4.5,14.8-5.6,29.1H46.1z"/><path fill="#986ff9" d="M64.2,209.2c-0.5,1.3-0.8,2.8-0.5,4.2c0.3,1.4,1.2,2.7,2.6,3.1c1,0.3,2,0.1,3-0.1c11.1-2,22.1-4,33.2-6     c-4.5-3.4-7.3-8.8-7.5-14.4c2.1,3.4,4.2,6.8,7.3,9.2c3.1,2.4,7.5,3.5,11.1,1.8c1.1-0.6,2.1-1.4,3.4-1.6c1.7-0.3,3.3,0.6,4.7,1.4     c1.7,1.1,3.4,2.3,4.9,3.6c-0.4,2.7-1.5,5.3-3.7,7.7c-23-14-55.7,12.2-66.5-0.7c-4.1-5,4.3-20.4,4.3-20.4s-7,3.9-9.5,3.5     c-1.2-0.2-2.3-0.7-3.2-1.4c0.3-0.4,0.6-0.8,0.9-1.2c2.6-3.4,5.5-6.6,7.4-10.4c1.9-3.9-1.5-25-1.1-29.2h9.6c0,1,0.6,18.2,1.6,35.3     C66.3,197.6,64.2,209.2,64.2,209.2z"/><path fill="#f7a386" d="M119,158.9v20.3c0.1,0.7,0.2,1.2,0.4,1.8c2.8,10.5,2.9,18.4,7.9,18.4c5.7,0,12.8-13.6,12-19.2     c-0.1-0.9-0.3-1.9-0.5-2.9c0-0.2-0.1-0.4-0.1-0.6c-0.8-4.6-2.1-9.9-3.5-15.2c-0.2-0.8-0.4-1.7-0.7-2.5H119z"/><linearGradient id="f" x1="2204.102" x2="2220.28" y1="162.006" y2="162.006" gradientTransform="matrix(-1 0 0 1 2339.316 0)" gradientUnits="userSpaceOnUse"><stop offset="0" stop-color="#f7a386"/><stop offset="1" stop-color="#fd6b58"/></linearGradient><path fill="url(#f)" d="M119,158.9v6.3c0.2,0,0.5,0,0.7,0c0.9-0.2,1.6-1,2.3-1.6c1.4-1,3.3-1.2,5.1-1.1c1.8,0.1,3.5,0.4,5.3,0.1     c1-0.2,2-0.6,2.7-1.2c-0.2-0.8-0.4-1.7-0.7-2.5H119z"/><linearGradient id="g" x1="2208.929" x2="2220.28" y1="179.081" y2="179.081" gradientTransform="matrix(-1 0 0 1 2339.316 0)" gradientUnits="userSpaceOnUse"><stop offset="0" stop-color="#f7a386"/><stop offset="1" stop-color="#fd6b58"/></linearGradient><path fill="url(#g)" d="M119,158.9v20.3c0.1,0.7,0.2,1.2,0.4,1.8c2.8,10.5,2.9,18.4,7.9,18.4c1,0,2.1-0.4,3.1-1.2     c-0.6,0.3-1.2,0.4-1.8,0.4c-5,0-5.1-7.9-7.9-18.4c-0.1-0.5-0.3-1.1-0.4-1.8v-19.5H119z"/><path fill="#c6aeff" d="M116.1,158.3c-0.2-0.2-0.4-0.4-0.6-0.7c-4.8-7-0.8-31.7-0.8-31.7c4.6,2.4,9.2,5.2,9.2,5.5     c0,0,3.9,1.6,6,10.1c0.7,2.9,2.9,8.9,4.4,13c0.8,2.1,1.5,3.8,1.7,4.3C137.2,161.3,119.8,162.2,116.1,158.3z"/><path fill="#986ff9" d="M130,141.5c-2.1-8.6-6-10.1-6-10.1c0-0.4-12-7.3-16.4-8.9c-1.4-0.5-3-0.9-4.9-1.4c-0.5-0.1-1-0.2-1.6-0.3     c0,0-0.1,0-0.1,0c-0.4-0.1-0.8-0.2-1.2-0.2c-0.2,0-0.5-0.1-0.7-0.1c-3.7-0.7-7.8-1.3-11.8-1.6v2.6c3.5,0.4,7.1,0.9,10.3,1.5     c0.2,0.1,0.5,0.1,0.7,0.1c0.4,0.1,0.8,0.1,1.2,0.2c0,0,0,0,0.1,0c0.5,0.1,1.1,0.2,1.6,0.3c1.8,0.4,3.5,0.9,4.9,1.4     c4.4,1.5,16.4,8.4,16.4,8.9c0,0,3.9,1.6,6,10.1c0.9,3.8,2.3,8.7,3.7,13.9l3-0.1C133.6,151.6,131.1,145.8,130,141.5z"/><path fill="#fff" d="M99.1,120.4c0,0.1,0,0.3-0.1,0.4L95.9,132c-0.3,1.1-1.3,1.8-2.4,1.8c-0.6,0-1.2-0.3-1.7-0.7L78.2,120     c-0.5-0.5-0.8-1-0.9-1.7C83,118.1,91.9,119,99.1,120.4z"/><path fill="#f7a386" d="M150.8,179.1c-2.9,4.5-5.8,9.1-9.5,13c-2.7,2.9-6,5.4-9.9,6.5c-10.5,3.2-7.6-7-7.2-8.6     c0.5-2.1,1.4-4,2.6-5.8c1.9-2.7,4.6-4.8,7.7-5.9c1-0.4,2.1-0.7,3.1-1.1c1-0.5,1.9-1.1,2.4-2.1c0.3-0.5,0.4-1,0.7-1.4     c0.3-0.5,0.8-0.8,1.3-0.8c0.6,0.1,1.1,0.7,1.4,1.2C144.8,176,148,178.9,150.8,179.1z"/><path fill="#fee1bc" d="M123.6,194.7c0.1-1.8,0.5-3.5,0.7-4.1c0.5-2.1,1.4-4,2.6-5.8c1.9-2.7,4.6-4.8,7.7-5.9     c1-0.4,2.1-0.7,3.1-1.1c0.4-0.2,0.8-0.4,1.2-0.7c0-0.2-0.1-0.4-0.1-0.6c-0.3,0.2-0.7,0.4-1,0.6c-1,0.5-2,0.8-3.1,1.1     c-3.1,1.2-5.8,3.2-7.7,5.9c-1.2,1.7-2.1,3.7-2.6,5.8C124.1,190.7,123.5,192.7,123.6,194.7z"/><linearGradient id="h" x1="2188.556" x2="2215.729" y1="189.079" y2="189.079" gradientTransform="matrix(-1 0 0 1 2339.316 0)" gradientUnits="userSpaceOnUse"><stop offset="0" stop-color="#f7a386"/><stop offset="1" stop-color="#fd6b58"/></linearGradient><path fill="url(#h)" d="M131.4,198.6c3.8-1.2,7.1-3.6,9.9-6.5c3.6-3.9,6.6-8.5,9.5-13c-0.3,0-0.6-0.1-0.9-0.1     c-2.5,3.9-5.1,7.7-8.3,11.1c-2.7,2.9-6,5.4-9.9,6.5c-7.2,2.2-8.1-1.9-7.8-5.3C123.3,194.5,122.6,201.3,131.4,198.6z"/><path fill="#4c5c75" d="M151.8,147.1l-13,22.7c-0.5,0.9,0.1,2,1.2,2h12.2c0.5,0,0.9-0.3,1.2-0.7l13-22.7c0.5-0.9-0.1-2-1.2-2H153      C152.5,146.5,152.1,146.7,151.8,147.1z"/><path fill="#111d33" d="M138.1,171.9h1.9c-1,0-1.7-1.1-1.2-2.1l13-22.7c0.2-0.4,0.7-0.7,1.2-0.7h-1.9c-0.5,0-0.9,0.3-1.2,0.7      l-13,22.7C136.4,170.8,137.1,171.9,138.1,171.9z"/><path fill="#f7a386" d="M150.3,179.1C150.3,179.1,150.3,179.1,150.3,179.1c0,0-0.1,0-0.1,0L150.3,179.1z"/><path fill="#f7a386" d="M148,175.4c0,0-0.2,3,2.3,3.7h0c1.2,0,2.2-0.5,3-1.7c0.3-0.6,0.6-1.2,1.1-1.6c0.6-0.4,1.3-0.3,2-0.6     c0.7-0.3,1.1-1,1.2-1.7c0-0.5-0.1-1,0.1-1.3c0.2-0.3,0.6-0.4,0.9-0.6c1.1-0.6,1.6-1.9,1.3-3.1c-0.2-0.7-0.7-1.3-0.8-2.1     c0,0,3.5-4.9,3.2-6.8c-0.2-1.4-3.2-4.1-5.3-5.1c-0.5-0.2-0.9-0.4-1.2-0.4c-0.4,0-0.6,0.1-0.7,0.5c0,0.1,0,0.3,0,0.4     c-0.1,1.8,1,2.8,2.4,4.3c1.4,1.6-1.5,3.6-2.7,3.8c-3.1,0.4-10.8-2.7-12.2-1.8c-1.4,0.8-1.2,2.5,9.5,6.2     c-2.2-0.7-10.2-3.3-11.4-2.7c-1.4,0.7-1.4,2.4,8.9,7.1c-2.1-0.9-9.4-4.1-10.7-3.5C137.4,169.1,137.7,170.4,148,175.4z"/><path fill="#fee1bc" d="M157.6,173.2c0,0.1,0,0.3,0,0.4c0,0,0,0,0,0C157.6,173.4,157.6,173.3,157.6,173.2z"/><path fill="#fee1bc" d="M156,154.6c1.7,0.1,6.2,3.7,6.5,5.5c0-0.2,0-0.3,0-0.5c-0.3-1.8-4.8-5.4-6.5-5.5c-0.4,0-0.6,0.1-0.7,0.5     c-0.1,0.3-0.1,0.6,0,0.9c0-0.1,0-0.3,0-0.4C155.3,154.7,155.6,154.6,156,154.6z"/><path fill="#fee1bc" d="M154.9,163.6c1-0.1,3.3-1.7,3-3.1c-0.2,1.3-2.2,2.5-3,2.6c-3.1,0.4-10.8-2.7-12.2-1.8     c-0.4,0.3-0.7,0.6-0.6,1.1c0.1-0.2,0.3-0.4,0.6-0.6C144.1,160.9,151.9,164,154.9,163.6z"/><path fill="#fee1bc" d="M140.8,164.7c0.6-0.3,2.9,0.2,5.3,0.8c0,0,0,0,0,0c1.1,0.3,5.1,1.5,6.5,2l-3-0.5c-3.2-1-7.8-2.3-8.8-1.9     c-0.3,0.1-0.5,0.3-0.6,0.6C140,165.3,140.3,165,140.8,164.7z"/><path fill="#fee1bc" d="M139,168.4c0.7-0.3,2.9,0.4,5.2,1.2c1.4,0.5,5,2,6.2,2.7l-2.5-0.7c-3-1.3-7.9-3.2-8.9-2.7     c-0.3,0.1-0.5,0.3-0.6,0.5C138.2,168.9,138.5,168.6,139,168.4z"/><path fill="#f7a386" d="M97.2,97.3V120c0,0.1,0,0.2,0,0.3L94,131.5c-0.1,0.3-0.5,0.4-0.8,0.2l-13.7-13.1c-0.2-0.2-0.3-0.5-0.3-0.7     V97.3H97.2z"/><linearGradient id="i" x1="921.545" x2="864.365" y1="97.452" y2="97.092" gradientTransform="translate(-805.908)" gradientUnits="userSpaceOnUse"><stop offset="0" stop-color="#fee1bc"/><stop offset="1" stop-color="#fd6b58"/></linearGradient><path fill="url(#i)" d="M101,114.4c-4.9,1.5-16.6-4.3-19.7-6.5c-1.4-1-2.2-1.7-2.2-1.7v-4.7c0,0-2.2-2.5-3.1-5.2     c-0.7-2.2-0.5-4.5,2.6-5.7L80,80.3c12.1-0.5,23.7-1,28,4.7C107.9,85,109.6,111.9,101,114.4z"/><path fill="#8a4852" d="M112.5,77.4c-0.7,3.6-1.5,5.6-2.6,7.1c-3.8,4.9-18.9,0-18.9,2c-0.1,3.7-2.3,4.3-4.2,5.1     c-1.9,0.8,0.6,7-1.2,7.6c-1,0.3-2.2-3.4-2.2-3.4s-1.5-6.1-4.8-5c-2.9,0.9-1.9,6.2-0.3,9.4c-0.1-0.2-1.7-2.6-3.4-5.9     c-0.3-0.5-0.5-1-0.7-1.5c-0.4-0.8-0.7-1.6-1.1-2.5c-0.4-1-0.7-2-1-2.9c-0.2-0.6-0.3-1.3-0.4-1.9c-0.5-3-0.1-6.2,3.3-7.2v0     c0,0,0,0,0,0h0c0-0.1,0-0.2-0.1-0.2c-1.4-5.4,1.7-8.1,3.5-9.2c6.4-3.7,19.4-5.2,30.8,2.1c0.3,0.2,0.6,0.4,0.9,0.5     C112.5,73.1,112.9,75.3,112.5,77.4z"/><path fill="#e27659" d="M101,100.5c-0.1,0-0.1,0-0.1,0.1c0.2,0.5,0.4,1,0.8,1.3c0.4,0.4,1,0.5,1.5,0.2c0.5-0.4,0.9-1.2,0.6-1.4     c-0.2-0.1-0.6,0.6-0.9,0.6C101.7,101.5,101.3,100.7,101,100.5z"/><path fill="#e27659" d="M81.3,96.2c-0.2-0.8-0.6-1.5-1.1-2.1c-0.6-0.6-1.4-0.9-2.1-0.9c-0.4,0-0.8,0.2-1.2,0.4     c-0.1,0-0.1,0.1-0.1,0.2c0,0.1,0.1,0.1,0.2,0.1c0.3-0.2,0.7-0.3,1-0.3c0.7-0.1,1.4,0.2,1.9,0.8c0.4,0.5,0.8,1.1,1,1.8     c-0.2-0.1-0.4-0.3-0.6-0.3c-0.2,0-0.5,0-0.8,0.1c-0.1,0-0.3,0.1-0.5,0.2c-0.2,0.2-0.2,0.4-0.2,0.6c0,0.1,0.1,0.1,0.2,0.1     c0,0,0,0,0,0c0.1,0,0.1-0.1,0.1-0.2c0-0.1,0-0.2,0.1-0.2c0.1-0.1,0.2-0.1,0.3-0.2c0.3-0.1,0.5-0.1,0.7-0.1c0.3,0,0.6,0.2,0.8,0.5     c0,0,0,0,0,0c0.1,0.6,0.1,1.1,0.2,1.7c0,0.1,0.1,0.2,0.2,0.2c0,0,0,0,0,0c0.1,0,0.1-0.1,0.1-0.2"/><path fill="#111d33" d="M96.3,97c0,0.5,0.4,1,1,1c0.5,0,1-0.4,1-1c0-0.5-0.4-1-1-1C96.7,96,96.3,96.5,96.3,97z"/><path fill="#111d33" d="M99.3,96.8C99.3,96.9,99.3,96.9,99.3,96.8c-0.7-0.2-1.3-0.3-1.9-0.6c-0.5,0.3-0.9,0.6-1.3,0.8     c-0.5,0.2-1,0.4-1.6,0.4c0,0,0,0,0,0c0,0,0,0,0,0c0.4-0.5,0.8-0.8,1.3-1c0.5-0.2,1-0.4,1.5-0.6l0,0c0.1,0,0.1,0,0.2,0     C98.1,96.1,98.7,96.5,99.3,96.8C99.3,96.8,99.3,96.8,99.3,96.8z"/><path fill="#111d33" d="M105.3,96.9c0,0.5,0.4,1,1,1c0.5,0,1-0.4,1-1c0-0.5-0.4-1-1-1C105.7,95.9,105.3,96.3,105.3,96.9z"/><path fill="#fcfcfc" d="M106.5,96.9c0,0.1,0.1,0.3,0.3,0.3c0.1,0,0.3-0.1,0.3-0.3c0-0.1-0.1-0.3-0.3-0.3     C106.6,96.6,106.5,96.7,106.5,96.9z"/><path fill="#fcfcfc" d="M97.5,96.9c0,0.1,0.1,0.3,0.3,0.3c0.1,0,0.3-0.1,0.3-0.3c0-0.1-0.1-0.3-0.3-0.3     C97.6,96.6,97.5,96.7,97.5,96.9z"/><path fill="#111d33" d="M108.3,96.7C108.3,96.7,108.2,96.7,108.3,96.7c-0.7-0.2-1.3-0.3-1.9-0.5c-0.5,0.3-0.9,0.6-1.3,0.8     c-0.5,0.2-1,0.4-1.6,0.4c0,0,0,0,0,0c0,0,0,0,0,0c0.4-0.4,0.8-0.8,1.3-1c0.5-0.2,1-0.4,1.5-0.6l0,0c0.1,0,0.1,0,0.2,0     C107,96,107.6,96.3,108.3,96.7C108.3,96.7,108.3,96.7,108.3,96.7z"/><path fill="#fee1bc" d="M155.2,155c0.1,0.1,0.1,0.3,0.2,0.4c0.5,0.6,1.2,0.8,1.6,0.4c0.3-0.3,0.4-0.8,0.1-1.3     c-0.5-0.2-0.9-0.4-1.2-0.4c-0.4,0-0.6,0.1-0.7,0.5C155.3,154.7,155.2,154.9,155.2,155z"/><path fill="#fee1bc" d="M142.4,162.1c0.1,0.1,0.2,0.3,0.3,0.4c0.5,0.6,1.2,0.8,1.7,0.5c0.4-0.3,0.4-0.9,0.1-1.4     c-0.5-0.2-1-0.4-1.3-0.4c-0.4,0-0.7,0.1-0.7,0.5C142.4,161.8,142.4,162,142.4,162.1z"/><path fill="#fee1bc" d="M140.2,165.6c0.1,0.1,0.2,0.4,0.3,0.5c0.5,0.6,1.2,0.8,1.7,0.5c0.4-0.3,0.4-0.9,0.1-1.4     c-0.5-0.2-1-0.4-1.3-0.4c-0.4,0-0.7,0.1-0.7,0.5C140.3,165.4,140.2,165.5,140.2,165.6z"/><path fill="#fee1bc" d="M138.5,169.3c0.1,0.1,0.2,0.4,0.3,0.5c0.5,0.6,1.2,0.8,1.7,0.5c0.4-0.3,0.4-0.9,0.1-1.4     c-0.5-0.2-1-0.4-1.3-0.4c-0.4,0-0.7,0.1-0.7,0.5C138.6,169.1,138.6,169.1,138.5,169.3z"/><path fill="#111d33" d="M162.2,148.5l-2.6,4.7c-0.1,0.2,0,0.4,0.2,0.4h2.3c0.1,0,0.2-0.1,0.2-0.1l2.6-4.7c0.1-0.2,0-0.4-0.2-0.4     h-2.3C162.4,148.4,162.3,148.4,162.2,148.5z"/><path fill="#f7a386" d="M59.6,191.1l4.4-34.2l-22.2-2.5c-2.2,10.4-3.5,27-1.8,37.1c1.7,10.2,17.8,40.8,17.8,40.8l11.2-8.4      L59.6,191.1z"/><path fill="#c6aeff" d="M64.3,158.6c-3.2,4.1-24.2,5.9-24.1,0.6c0.4-18.7,5.2-27.2,6.9-29c2.2-2.3,8-5.3,14.2-7.7     C61.3,122.5,69.9,151.4,64.3,158.6z"/><path fill="#986ff9" d="M51.6,132.5c-1.8,1.8-6.5,10.3-6.9,29c0,0.2,0,0.5,0.1,0.7c-2.8-0.4-4.7-1.4-4.6-3     c0.4-18.7,5.2-27.2,6.9-29c2.2-2.3,8-5.3,14.2-7.7c0,0,0.4,1.4,1,3.7C57.5,128.3,53.4,130.7,51.6,132.5z"/><polygon fill="#111d33" points="90.8 232.4 88 222.7 101.8 244.8 94.1 244.8"/><path fill="#986ff9" d="M116.1,158.3c-0.2-0.2-0.4-0.4-0.6-0.7c0.6-0.5,1.5-0.7,2.4-0.9c3.6-0.5,7.2-0.3,10.8-0.7     c1.4-0.2,2.7-0.4,4-0.9c0.6-0.2,1.1-0.4,1.7-0.7c0.8,2.1,1.5,3.8,1.7,4.3C137.2,161.3,119.8,162.2,116.1,158.3z"/><path fill="#fff" d="M163.6,149.6c-0.1,0.3-0.4,0.4-0.7,0.4c-0.3,0-0.4-0.2-0.2-0.5c0.1-0.3,0.4-0.4,0.7-0.4     C163.6,149.2,163.7,149.4,163.6,149.6z"/><path fill="#fff" d="M162.9,151c-0.1,0.3-0.4,0.4-0.7,0.4c-0.3,0-0.4-0.2-0.2-0.5c0.1-0.3,0.4-0.4,0.7-0.4     C162.9,150.5,163,150.7,162.9,151z"/><path fill="#fff" d="M162.2,152.4c-0.1,0.3-0.4,0.4-0.7,0.4c-0.3,0-0.4-0.2-0.2-0.5c0.1-0.3,0.4-0.4,0.7-0.4     C162.2,151.9,162.3,152.1,162.2,152.4z"/><path fill="#111d33" d="M94.7,91.4c1.7-0.5,3.5-0.7,5.1,0.1c0.4,0.2,0.8,0.5,0.9,1c0.1,0.5-0.2,0.9-0.5,1.1c-0.3,0.2-0.7,0.2-1.1,0     s-0.7-0.3-1-0.5c-1.4-0.6-2.9-0.5-4.2,0.2c-0.3,0.2-0.5,0.3-0.8,0.4c-0.3,0.1-0.6-0.1-0.8-0.4c-0.3-0.6,0.5-1,0.8-1.3     C93.6,91.7,94.2,91.5,94.7,91.4z"/><path fill="#111d33" d="M107.7,91.6c-1.4-0.4-2.9-0.5-4.2,0.1c-0.3,0.2-0.7,0.4-0.7,0.8c-0.1,0.4,0.2,0.7,0.4,0.9s0.6,0.1,0.9,0     c0.3-0.1,0.6-0.3,0.9-0.4c1.1-0.5,2.4-0.4,3.5,0.2c0.2,0.1,0.4,0.3,0.7,0.3c0.2,0,0.5,0,0.6-0.3c0.2-0.5-0.4-0.8-0.6-1     C108.6,91.9,108.2,91.7,107.7,91.6z"/><path fill="#e27659" d="M104.6,105.8c0.1-0.1,0.3,0,0.3,0.2c-0.2,1.4-1.3,2.5-2.6,2.5c-1.3,0-2.4-1.1-2.6-2.5     c0-0.2,0.1-0.3,0.3-0.2C101.6,106.4,103.1,106.4,104.6,105.8z"/><path fill="#51383c" d="M112.5,77.4c-0.7,3.6-1.5,5.6-2.6,7.1c-3.8,4.9-18.9,0-18.9,2c-0.1,3.7-2.3,4.3-4.2,5.1     c-1.9,0.8,0.6,7-1.2,7.6c-1,0.3-2.2-3.4-2.2-3.4s-1.5-6.1-4.8-5c-2.9,0.9-1.9,6.2-0.3,9.4c-0.1-0.2-1.7-2.6-3.4-5.9     c-0.3-0.5-0.5-1-0.7-1.5c-0.4-0.8-0.7-1.6-1.1-2.5c1.8-2,4.8-2.9,7.5-2.1c0.8,0.2,1.5,0.6,2.3,0.7c0.8,0.1,1.7-0.1,2.1-0.7     c0.6-0.8,0.3-1.9,0.2-2.8c-0.4-3.6,2.7-6.9,6.2-7.9c3.5-1,7.3-0.2,10.7,1.1c2,0.7,4.4,1.6,6.1,0.3c1.2-0.9,1.4-2.6,1.4-4     c0-1.2-0.6-2.6-0.2-3.8c0.3,0.2,0.6,0.4,0.9,0.5C112.5,73.1,112.9,75.3,112.5,77.4z"/><path fill="#51383c" d="M80.9,81.5c-2.3-2.9-5-3.3-5.9-3.4c0,0,0,0,0,0h0c0-0.1,0-0.2-0.1-0.2C79.2,77.9,80.8,81.3,80.9,81.5z"/></g><g><path fill="#4c5c75" d="M56.8,233.8c-0.1,0-0.3-0.1-0.4-0.2c-0.2-0.2-0.1-0.5,0.1-0.7l13.5-10.5c0.2-0.2,0.5-0.1,0.7,0.1     c0.2,0.2,0.1,0.5-0.1,0.7l-13.5,10.5C57,233.8,56.9,233.8,56.8,233.8z"/></g></svg>