<svg xmlns="http://www.w3.org/2000/svg" xmlns:xlink="http://www.w3.org/1999/xlink" viewBox="0 0 1000 700"><defs><linearGradient id="a" x1="75.45" x2="924.55" y1="132.85" y2="132.85" gradientTransform="matrix(1 0 0 -1 0 700)" gradientUnits="userSpaceOnUse"><stop offset="0" stop-color="#2e45e5"/><stop offset="1" stop-color="#3478e5"/></linearGradient><linearGradient id="c" x1="815.752" x2="923.377" y1="404.85" y2="404.85" xlink:href="#a"/><linearGradient id="d" x1="667.466" x2="811.934" y1="525.5" y2="525.5" xlink:href="#a"/><linearGradient id="b" x1="587.55" x2="603.919" y1="298.45" y2="298.45" gradientTransform="matrix(1 0 0 -1 0 700)" gradientUnits="userSpaceOnUse"><stop offset="0" stop-color="#ffc496"/><stop offset="1" stop-color="#ff7c4b"/></linearGradient><linearGradient id="e" x1="358.85" x2="603.35" y1="375.151" y2="375.151" xlink:href="#a"/><linearGradient id="f" x1="364.165" x2="838.053" y1="244.379" y2="244.379" xlink:href="#a"/><linearGradient id="g" x1="476.05" x2="540.85" y1="294.75" y2="294.75" xlink:href="#a"/><linearGradient id="h" x1="338.189" x2="484.35" y1="249.85" y2="249.85" xlink:href="#b"/><linearGradient id="i" x1="466.15" x2="553.85" y1="560.8" y2="560.8" xlink:href="#b"/><linearGradient id="j" x1="452.598" x2="554.35" y1="531.4" y2="531.4" xlink:href="#b"/><linearGradient id="k" x1="485.78" x2="533.88" y1="478.35" y2="478.35" xlink:href="#b"/><linearGradient id="l" x1="501.868" x2="515.306" y1="619.15" y2="619.15" xlink:href="#a"/><linearGradient id="m" x1="464.55" x2="571.35" y1="577.8" y2="577.8" xlink:href="#a"/><linearGradient id="n" x1="474.902" x2="495.894" y1="452.999" y2="452.999" gradientTransform="scale(1 -1) rotate(-56.192 -292.075 -156.67)" xlink:href="#b"/><linearGradient id="o" x1="149.65" x2="196.15" y1="487.03" y2="487.03" xlink:href="#a"/><linearGradient id="p" x1="229.85" x2="265.133" y1="485.65" y2="485.65" xlink:href="#a"/><linearGradient id="q" x1="111.05" x2="308.05" y1="216.35" y2="216.35" xlink:href="#a"/><linearGradient id="r" x1="116.65" x2="302.55" y1="233.55" y2="233.55" xlink:href="#a"/><linearGradient id="s" x1="117.15" x2="301.95" y1="171.2" y2="171.2" xlink:href="#a"/></defs><path fill="url(#a)" d="M923.55 568.15H76.45a1 1 0 0 1 0-2h847.1a.945.945 0 0 1 1 1 1.002 1.002 0 0 1-1 1Z"/><g data-name="Layer 2"><path fill="url(#c)" d="m916.35 317.35-8.6-6.6c-.2-.1-.2-.4-.2-.6a39.752 39.752 0 0 0 2.5-8.5 32.607 32.607 0 0 0 .3-8.8.55.55 0 0 1 .3-.5l10.3-3.6a3.549 3.549 0 0 0 2.1-4.6l-5.7-14a3.723 3.723 0 0 0-4.6-2.1l-10.4 3.7c-.2.1-.4 0-.6-.2a40.92 40.92 0 0 0-14.4-11.2.55.55 0 0 1-.3-.5l1.7-10.2a3.65 3.65 0 0 0-3-4.1l-15.8-2.6a3.547 3.547 0 0 0-4.1 2.9l-1.8 10.3a.43.43 0 0 1-.4.4 40.351 40.351 0 0 0-17.1 6.1.638.638 0 0 1-.6 0l-8.7-6.8a3.741 3.741 0 0 0-5.1.5l-9.8 11.5a3.557 3.557 0 0 0 .5 5.1l8.6 6.6c.2.1.2.4.2.6a39.752 39.752 0 0 0-2.5 8.5 32.608 32.608 0 0 0-.3 8.8.55.55 0 0 1-.3.5l-10.2 3.6a3.55 3.55 0 0 0-2.1 4.6l5.7 14a3.723 3.723 0 0 0 4.6 2.1l10.5-3.7c.2-.1.4 0 .6.2a40.92 40.92 0 0 0 14.4 11.2.55.55 0 0 1 .3.5l-1.7 10.2a3.65 3.65 0 0 0 3 4.1l15.8 2.6a3.547 3.547 0 0 0 4.1-2.9l1.7-10.2a.458.458 0 0 1 .5-.4 42.18 42.18 0 0 0 17.2-6.1.638.638 0 0 1 .6 0l8.7 6.8a3.732 3.732 0 0 0 5.1-.5l9.8-11.5a3.876 3.876 0 0 0-.8-5.2Zm-49.7-4.4a18.09 18.09 0 1 1 21.2-14.9 18.256 18.256 0 0 1-21.2 14.9Z"/><path fill="url(#d)" d="M793.65 164.15a52.349 52.349 0 0 0-3.6-11.2.627.627 0 0 1 .2-.8l11.2-9.2a4.662 4.662 0 0 0 .5-6.7l-13.6-15a4.974 4.974 0 0 0-6.8-.5l-11.4 9.4a.755.755 0 0 1-.8.1 56.129 56.129 0 0 0-23.3-7.5.645.645 0 0 1-.6-.6l-2.6-13.6a4.713 4.713 0 0 0-5.6-3.7l-21 4a4.802 4.802 0 0 0-3.9 5.5l2.4 13.8a.569.569 0 0 1-.4.7 53.776 53.776 0 0 0-18.6 15.4.778.778 0 0 1-.8.2l-14-4.5a4.888 4.888 0 0 0-6.1 3l-7.1 18.9a4.688 4.688 0 0 0 3 6.1l13.8 4.4a.752.752 0 0 1 .5.7 46.137 46.137 0 0 0 .8 11.7 52.349 52.349 0 0 0 3.6 11.2.627.627 0 0 1-.2.8l-11.2 9.2a4.695 4.695 0 0 0-.5 6.8l13.6 15a4.942 4.942 0 0 0 6.7.5l11.4-9.4a.755.755 0 0 1 .8-.1 56.129 56.129 0 0 0 23.3 7.5.645.645 0 0 1 .6.6l2.6 13.6a4.713 4.713 0 0 0 5.6 3.7l21-4a4.802 4.802 0 0 0 3.9-5.5l-2.6-13.6a.569.569 0 0 1 .4-.7 55.016 55.016 0 0 0 18.8-15.6.778.778 0 0 1 .8-.2l14 4.5a4.888 4.888 0 0 0 6.1-3l7.1-18.9a4.688 4.688 0 0 0-3-6.1l-13.8-4.4m-50.6 21.5c-13.4 2.6-26.4-5.9-28.9-19s6.4-25.8 19.8-28.4 26.4 5.9 28.9 19a24.368 24.368 0 0 1-19.8 28.4Z"/></g><g data-name="Layer 3"><path fill="url(#b)" d="m603.75 436.05-12.9 7.7c0-45.2-1.1-59.3-3.3-81.1l11.8-3.3c.9 6.7 5.5 42.8 4.4 76.7Z"/><path fill="url(#e)" d="M602.95 357.85c-5 2.3-12.7 4.2-15.4 4.8 2.9 14.5 3 49.9 3 55.8v1.8h-191.2l-.6-1.6-1.7-5a14.53 14.53 0 0 1 1.6-12.5l14.7-22.3a301.061 301.061 0 0 1-53.9-36.1l-.6-.5.3-.7c27.6-59.2 60.6-86.5 83.5-99 4.6-2.5 9-4.5 13-6.2a7.836 7.836 0 0 1 1.4-.5 103.336 103.336 0 0 1 18.6-5.4 60.174 60.174 0 0 1 10.7-1h.2l.2.1c33.2 17.8 45.2 1.3 45.3 1.1l.2-.3.3-.4.8.4c.1 0 .2.1.3.2.2.1.5.3.7.4l3.6 2.1a4.05 4.05 0 0 0 .9.5c1.2.7 2.4 1.5 3.6 2.3.4.3.8.5 1.2.8a103.548 103.548 0 0 1 15.1 12.7l.9.9c17.2 17.6 27.4 39.2 33.3 56.5a202.702 202.702 0 0 1 10.4 50.1v.7Z"/><path d="M462.25 291.65s19 86.5-63.5 113.6l-4.4 5.9 4.4 7.4s35.4-.6 51.4-20.3c16.1-19.5 13.8-70.1 12.1-106.6Z" style="isolation:isolate" fill="#03007a" opacity=".2"/><path fill="#fff" d="M590.35 423.75c-.5 44.6-.5 99.9-4.5 141.6l-.1.9h-208.5l-.1-.9c-2.5-34.3-3-90.5 1.2-138.9l.1-.7.7-.2a132.293 132.293 0 0 0 19.4-6.9c15.8-6.8 37.8-19 52.2-38.7 24.5-33.5 4.8-141.4 4.6-142.5l-.2-.8.7-.3c.3-.1.7-.3 1-.4a103.336 103.336 0 0 1 18.6-5.4l.2 1.2c.1.2 5.8 22.3 6.3 53.3a14.3 14.3 0 0 0 14.2 14.1h.1l30.1-.2a13.977 13.977 0 0 0 14.1-13.9c0-1.8.1-3.7.1-5.6.3-12 .8-26.9-2.4-44l-.5-2.4h.1a4.05 4.05 0 0 0 .9.5c1.2.7 2.4 1.5 3.6 2.3.4.3.8.5 1.2.8a103.547 103.547 0 0 1 15.1 12.7l.9.9c.1 3.3.7 25.5.7 68.8 0 13-.1 27.9-.2 44.7-.4 46.4 29.2 54.4 29.5 54.5l.8.2Z"/><path d="M539.35 240.25c-12.4 14.2-35.5 9.5-61.3 0l-2.3-9.7a60.175 60.175 0 0 1 10.7-1h.2l.2.1c33.2 17.8 45.2 1.3 45.3 1.1l.2-.3 1.4.1.7.4 3.6 2.1Z" style="isolation:isolate" fill="#03007a" opacity=".2"/><path fill="#2e45e5" d="M376.55 567.15v-1c0-.7-1.2-74.3-1.4-96.4l1.9 2.2c.2 20.7 1.3 84.4 1.5 93.2l205.4-.1c2.7-11 4.6-58.7 4.6-59.2l2-1.3c-.1 2.1-2 52.2-4.9 61.8l-.2.7h-.7Z"/><path fill="url(#f)" d="M832.05 365.35a11.926 11.926 0 0 0-12.1.3l-46.6 28.5a28.73 28.73 0 0 1-40-10.1c-7.8-13.4-3.2-31.2 10.4-39.5l46.1-28.2a11.967 11.967 0 0 0-.7-20.8 90.312 90.312 0 0 0-122.6 40.3 74.66 74.66 0 0 0-3.9 9.2 91.444 91.444 0 0 0-1.5 58l-194.4 111.5-85.7 49.2a33.217 33.217 0 0 0-12 46.2 31.858 31.858 0 0 0 3.5 4.7 32.8 32.8 0 0 0 17.6 10.4 36.26 36.26 0 0 0 7.3.8 33.204 33.204 0 0 0 18.2-5.5l122-80.9a1.236 1.236 0 0 0 .3-.2l128.7-85.3 18.4-12.2a90.241 90.241 0 0 0 21.1 15 90.631 90.631 0 0 0 131.9-80.8 11.884 11.884 0 0 0-6-10.6Zm-438.6 209.8a17.014 17.014 0 1 1-5.6 23.4 17.033 17.033 0 0 1 5.6-23.4Z"/><path fill="url(#g)" d="M540.85 376.05v26a32.392 32.392 0 0 1-32.4 32.4 32.967 32.967 0 0 1-17-4.8 32.924 32.924 0 0 1-5.9-4.7 32.278 32.278 0 0 1-9.5-22.9v-26Z"/><path fill="url(#h)" d="M482.85 530.75c-1.5-.7-3.2-1.3-4.8-1.9-1.8-.7-3.8-1.4-5.4-2.2s-6.1-3.4-9.3-5.3l-.5-.3a8.855 8.855 0 0 1-2.2-2 1.23 1.23 0 0 1 .7-1.1c5-2.8 5.2-3 5.4-3.2l1.3-.8-1.9-.8a41.58 41.58 0 0 1-4.7-.9 18.867 18.867 0 0 0-2.1-.6c-1-.3-2.2-.6-3.4-.9-5.9-1.5-13.2-3.4-15.3-7.2-26.8-46.2-35.8-70.7-40.3-84.9-.7-2.1-1.2-3.9-1.7-5.6a13.843 13.843 0 0 1-.5-4.5 2.202 2.202 0 0 1 .1-.8 1.884 1.884 0 0 1 .2-.8c.1-.2.1-.6.2-.8a6.897 6.897 0 0 1 .3-.8c.1-.3.2-.5.3-.8a10.932 10.932 0 0 1 .8-1.5.098.098 0 0 1 .1-.1v-.1l16.3-24.6-1-.5a4.054 4.054 0 0 1-.9-.5 16.174 16.174 0 0 1-1.8-1c-23.1-12.4-47.9-29.2-48.2-29.4l-1-.6-.5.9c-.1.2-6.7 12.3-13.8 29v.1a297.332 297.332 0 0 0-10.4 28.2c-3.6 11.9 7.5 32.7 33.3 62.1q18.6 21.15 47.1 48.2c1.1 1 1.9 1.8 2.6 2.5a11.332 11.332 0 0 1 2.2 2.7c3.6 5.6 6.4 10.8 8.8 14.9 2.8 5 4.6 8.3 6 9.4l.1.1c.9.5 1.8 1.1 2.9 1.7 2.1 1.3 4.6 2.7 7 4 5 2.7 8.5 4 10.9 4a2.77 2.77 0 0 0 .9-.1c2.5-.1 4.1-3.2 4.8-4.7.9.1 2.3.3 2.8.3a5.412 5.412 0 0 0 1.9-.3 6.715 6.715 0 0 0 4-4.5h.2a6.495 6.495 0 0 0 3.1-.8 9.629 9.629 0 0 0 4-4.3 2.208 2.208 0 0 0 0-1.6 1.962 1.962 0 0 0-.9-.9 9.064 9.064 0 0 0 1.6-1.1 5.116 5.116 0 0 0 2.2-2.9 2.62 2.62 0 0 0-1.5-2.4Z"/><path fill="#e6635d" d="M444.65 538.05a.961.961 0 0 1-.9-.6.992.992 0 0 1 .5-1.3c5.8-2.8 10-10.3 10.1-10.4a1.03 1.03 0 0 1 1.8 1c-.2.3-4.6 8.2-11 11.2a.902.902 0 0 1-.5.1Z"/><path d="m511.35 346.95-3.3 11.4a5.546 5.546 0 0 1-1.4 2.2l-1.9 1.6a4.49 4.49 0 0 1-2.7 1l-3.8 13h-2.1l3.9-13.5a4.524 4.524 0 0 1-2.2-2.5l-.8-2.3a4.61 4.61 0 0 1-.1-2.6l3.3-11.4Z" style="isolation:isolate" fill="#03007a" opacity=".2"/><path d="M492.95 355.15a4.023 4.023 0 0 0 .6 2.6l1.2 2.1a4.536 4.536 0 0 0 2.7 2l-1.2 14.2h2l1.2-14.1a4.361 4.361 0 0 0 2.5-1.5l1.6-1.9a4.286 4.286 0 0 0 1-2.4l1-11.8-11.5-.9Z"/><path d="M555.85 361.95a1.56 1.56 0 0 1-.8 1.3 1.803 1.803 0 0 1-1 .2c-.1 0-.1 0-.2-.1a1.22 1.22 0 0 1-.9-.8c-2.5-5.6-9.2-8.3-10.4-8-.3.1-.9.9-1.6 2.4a1.682 1.682 0 0 1-2.2.8l-2-.8-8.7 19.3h-2.2l9.1-20-2.1-.9a1.7 1.7 0 0 1-1-2 6.241 6.241 0 0 0 .1-3.3 3.244 3.244 0 0 0-2.1-1.8c-.5-.2-.7 0-1.1.2a2.154 2.154 0 0 1-2 .2l-2.6-1.1a1.834 1.834 0 0 1-.9-2.4l2.1-4.9a1.651 1.651 0 0 1 1-1 1.704 1.704 0 0 1 1.4 0l2.6 1.1a2.545 2.545 0 0 1 1.2 1.6 1.15 1.15 0 0 0 .6.9c.5.3.9.1 1.7-.1a3.61 3.61 0 0 1 1.8-.3h.2l8.8 3.8c11 4.5 11.2 13.8 11.2 15.7Z" style="isolation:isolate" fill="#03007a" opacity=".2"/><path d="M549.25 353.05c-.3-1.8-2.3-10.9-14-13.5l-9.3-2.1h-.1a4.841 4.841 0 0 0-1.8.7c-.7.4-1.1.6-1.6.4-.5-.1-.6-.4-.8-.8a2.019 2.019 0 0 0-1.5-1.3l-2.8-.6a2.2 2.2 0 0 0-1.4.2 2.097 2.097 0 0 0-.8 1.1l-1.1 5.2a1.893 1.893 0 0 0 1.4 2.2l2.8.6a2.199 2.199 0 0 0 1.9-.6 1.16 1.16 0 0 1 1-.4 3.3 3.3 0 0 1 2.4 1.4 7.37 7.37 0 0 1 .5 3.3 1.656 1.656 0 0 0 1.3 1.8l2.2.5-6 24.9h2.1l5.9-24.4 2.1.5a1.717 1.717 0 0 0 2-1.2 6.472 6.472 0 0 1 1.1-2.6c1.1-.5 8.2 1 11.7 6a1.524 1.524 0 0 0 1.1.6h.2a1.69 1.69 0 0 0 1-.3 2.52 2.52 0 0 0 .5-1.6Z"/><path fill="url(#i)" d="M467.15 134.25a8.963 8.963 0 0 1 9-9h.5a9.496 9.496 0 0 0-9.5 9.5Zm0 17.9a.945.945 0 0 1-1 1 .945.945 0 0 0 1-1Zm86.7-17.4a9.496 9.496 0 0 0-9.5-9.5h.5a8.963 8.963 0 0 1 9 9Z"/><path fill="url(#j)" d="M554.35 134.75v33.4a44.564 44.564 0 0 1-9.2 27.4 45.48 45.48 0 0 1-12.1 10.7 52.792 52.792 0 0 1-5.3 2.7 43.713 43.713 0 0 1-17.2 3.5 44.239 44.239 0 0 1-23.7-6.9l-.2-.2a44.048 44.048 0 0 1-19.4-30.4l-.2-1.3h-3.6a10.761 10.761 0 0 1-10.8-9.5 10.215 10.215 0 0 1 2.7-8 10.385 10.385 0 0 1 7.7-3.4h3.1l.5-.6v-17.4h2a8.024 8.024 0 0 1 8-8v-2h67.7v2a8.024 8.024 0 0 1 8 8h2Z"/><path fill="url(#k)" d="m533.95 230.55-.4.4c-5.2 5.3-11.3 7.1-18.9 7.1-8 0-16.8-2.5-28-8.2l-.8-.4.3-.8c4.1-12.5 1-21.3 1-21.4l-.5-2 .2.2a43.906 43.906 0 0 0 46.2.7l-.2 1.4a61.822 61.822 0 0 0-.5 12.6 64.915 64.915 0 0 0 1.4 9.8Z"/><circle cx="508.55" cy="80.85" r="6.7" fill="url(#l)"/><path fill="url(#m)" d="M571.35 148.95a11.529 11.529 0 0 1-.3 2.6 10.639 10.639 0 0 1-.9 2.5 7.988 7.988 0 0 1-4.1 4l-11.8 5.5v-1.6c0-.1-.2-11.8-.2-19.3a5.019 5.019 0 0 1-1.2.2h-.1c-12.1 2.3-22.6 6.9-36.3 15.8a14.59 14.59 0 0 1-7.9 2.4 15.287 15.287 0 0 1-11.5-5.7l-9.1-10.3-1.3-1.5c-.2.1-.5.2-.7.3a114.042 114.042 0 0 0-19 9 1.27 1.27 0 0 1-1.2 0 1.1 1.1 0 0 1-.6-1l-.6-25.2a42.51 42.51 0 0 1 .7-8 45.507 45.507 0 0 1 45-37.8 43.62 43.62 0 0 1 43.5 42.3v2.1l.2.3 13.6 15.4a17.406 17.406 0 0 1 1.4 1.2 10.828 10.828 0 0 1 2.4 6.8Z"/><path fill="#fff" d="M553.65 125.25a6.037 6.037 0 0 0-1.6-.5c-5.6-1.6-20.7-1.6-64.1 20.4l-1.4-1.4c45.5-23.2 61.3-22.7 67.1-20.5v2Z"/><path fill="#e6635d" d="M535.75 192.25a12.44 12.44 0 0 1-10.7-6 1.012 1.012 0 1 1 1.7-1.1c5.1 7.8 13.2 4.4 13.5 4.3a.985.985 0 1 1 .8 1.8 15.339 15.339 0 0 1-5.3 1Z"/><circle cx="503.45" cy="178.75" r="12.5" style="isolation:isolate" fill="#e6635d" opacity=".5"/><path fill="#e6635d" d="M464.25 169.75a7.233 7.233 0 0 1-7.2-5.9 1.02 1.02 0 1 1 2-.4c.1.5 1.2 5.1 6.8 4.1a1.02 1.02 0 1 1 .4 2 7.502 7.502 0 0 1-2 .2Z"/><path d="m416.35 378.15 38.8-53.3c-.1 0-17 39.9-38.8 53.3ZM470.05 549.05a5.822 5.822 0 0 1-1.9.3c-.4 0-1.8-.2-2.8-.3l-16.3-8c1.1.4 18.9 8.1 21 8ZM477.35 543.75a6.495 6.495 0 0 1-3.1.8h-.2l-18.7-8.3c2.5 1.1 19.7 8.3 22 7.5ZM481.95 535.85a15.252 15.252 0 0 1-1.6 1.1l-17.5-6.7c2.1.8 16.9 6.1 19.1 5.6Z" style="isolation:isolate" fill="#03007a" opacity=".2"/><path fill="url(#n)" d="M650.65 473.65a3.917 3.917 0 0 0 1.6-3.5 6.908 6.908 0 0 0 5-.9 4.636 4.636 0 0 0 2.1-4.3 4.108 4.108 0 0 0 3.8-2.8 5.038 5.038 0 0 0-.6-4.1l-5.3-7.9a2.43 2.43 0 0 0-3.3-.8 3.939 3.939 0 0 0-1.5 1.4 6.713 6.713 0 0 0-.8 1.7l-.3-.4c-1.2-1.6-2.1-2.8-4-1.4a8.427 8.427 0 0 0-2.8 3.8c-.1.3-.2.7-.3 1a7.846 7.846 0 0 0-.2 1.4l-.1-.1a2.653 2.653 0 0 0-1.8-1.1 2.28 2.28 0 0 0-1.9.7 18.016 18.016 0 0 0-1.8 2.5 7.411 7.411 0 0 0-.7 5.6 2.138 2.138 0 0 0-1.8.9 10.705 10.705 0 0 0-1.3 2.1 6.587 6.587 0 0 0 .4 6.5l.2.2a15.446 15.446 0 0 1 1.4 2.2 4.695 4.695 0 0 0 3.9 2.2c1.4 0 3.4-.6 4.7-3.5a6.67 6.67 0 0 0 5.4-1.4Z"/><path d="m659.45 464.95-7.8-12.4a5.39 5.39 0 0 1 .8-1.7c-.6 2.1 2.3 6.4 7 14.1ZM651.95 469.65l-7.9-12.7a5.9 5.9 0 0 1 .2-1.4c.2.3 5.7 10.8 7.7 14.1ZM645.05 475.15l-7.6-12 .2 1.4 7.4 10.6zM587.55 362.65s-5-46.5-14-68ZM532.75 207.55a61.822 61.822 0 0 0-.5 12.6s-21.8 8.2-45.8-14.9l.2.2a43.906 43.906 0 0 0 46.2.7ZM571.35 148.95a11.529 11.529 0 0 1-.3 2.6 10.639 10.639 0 0 1-.9 2.5s-10.1 3-16.1-8v-3.4a47.827 47.827 0 0 1 13.4-1.7 17.406 17.406 0 0 1 1.4 1.2 10.362 10.362 0 0 1 2.5 6.8ZM553.65 125.25s-32.3 1.2-57.4 29.2l-8.3-9.3c0-.1 50.1-26.8 65.7-19.9Z" style="isolation:isolate" fill="#03007a" opacity=".2"/><path d="M553.65 123.15c-2.9-1.4-12-1-12-1s-2.7-30.5-33-32.2-43.4 28.8-43.4 28.8a45.507 45.507 0 0 1 45-37.8 43.378 43.378 0 0 1 43.4 42.2ZM455.75 236.45l-.2 1s-52 19.6-91.1 109.4a56.265 56.265 0 0 1-5.6-4.5c27.6-59.2 61-87.2 83.9-99.7a107.151 107.151 0 0 1 13-6.2ZM540.35 249.15s.4 35.9-8.7 42.4c-8.8 6.4-38.7 7.1-38.7 7.1h33.5a14.833 14.833 0 0 0 14.8-15.1ZM540.85 376.05v26a32.392 32.392 0 0 1-32.4 32.4 32.967 32.967 0 0 1-17-4.8s24.7.9 37.5-14.2c13.6-16 11.9-39.4 11.9-39.4ZM599.35 359.25l-11.8 3.4.8 5.3 12.1.9-1.1-9.6z" style="isolation:isolate" fill="#03007a" opacity=".2"/><path d="m416.35 378.15-5.2 7.8s-34.4-15.5-47.6-39.8c17.5 11.5 34.5 22.2 52.8 32ZM400.25 418.55l-10.3-5.2c5-3.1 9.3-9.4 10-10.5a10.928 10.928 0 0 0-.8 1.5c-.1.3-.2.5-.3.8s-.2.5-.3.8a3.09 3.09 0 0 0-.2.8c-.1.3-.1.6-.2.8 0 .3-.1.5-.1.8a11.57 11.57 0 0 0 .5 4.5c.5 1.7 1.1 3.6 1.7 5.7ZM672.75 409.35l-211.4 108.5 5.4-3.3 194.3-111.5a91.41 91.41 0 0 1 1.5-58 81.787 81.787 0 0 1 3.9-9.2s-12.1 52.4 6.3 73.5ZM706.15 456.75a90.24 90.24 0 0 1-21.1-15l-23.2 15.4 24.1-22.7c2.3 10.3 19.1 21.6 20.2 22.3ZM832.05 365.35l-49.7 33.2a33.05 33.05 0 0 1-30.3 3.7c-6.9-2.7-13.9-8-18.7-18.3a28.83 28.83 0 0 0 18.2 13.6 28.278 28.278 0 0 0 21.8-3.5l46.6-28.5a12.152 12.152 0 0 1 12.1-.2ZM537.75 539.45l-122 80.9a33.204 33.204 0 0 1-18.2 5.5 36.26 36.26 0 0 1-7.3-.8 32.8 32.8 0 0 1-17.6-10.4 86.718 86.718 0 0 0 33.3.5c16.6-3.2 125-71.5 131.8-75.7Z" style="isolation:isolate" fill="#03007a" opacity=".2"/></g><g data-name="Layer 4"><path d="M291.05 147.65h-155.8a1 1 0 0 1 0-2h155.8a.945.945 0 0 1 1 1 1.002 1.002 0 0 1-1 1Z"/><path fill="url(#o)" d="m178.35 245.45 2.1-99.4a8.355 8.355 0 1 0-16.7.1l3.3 99.5a23.26 23.26 0 0 0-6.2 42.4 2.88 2.88 0 0 0 4.4-2.4v-14.2a7.75 7.75 0 1 1 15.5.1v14a2.806 2.806 0 0 0 4.3 2.4 23.306 23.306 0 0 0-6.7-42.5Z"/><path fill="url(#p)" d="M264.85 146.35a5.677 5.677 0 0 0-5.6-5.7l-23.6-.4a6.197 6.197 0 0 0-4.1 1.6 5.664 5.664 0 0 0-1.7 4.1l.1 25.3 4.6 9-2.3 5.5 4 5.5-2.3 5.4 4 5.5-2.3 5.4 4 5.5-2.3 5.4 4 5.5-2.3 5.4 4 5.5-2.3 5.4 4 5.5-2.3 5.4 4 5.5-2.3 5.4 4 5.5-2.3 5.4 4 5.5-2.2 5.2.6 3.7a.601.601 0 0 0 .1.4l.3.7h.7a16.572 16.572 0 0 0 15.9-16.7Zm-7.3 11.5a6.487 6.487 0 0 1-6.5 6.5h-7.4a6.447 6.447 0 0 1-6.3-6.5v-1.8h20.2Z"/><circle cx="171.95" cy="145.75" r="3.4" fill="#fff"/><circle cx="247.45" cy="146.65" r="3.1" fill="#fff"/></g><g data-name="Layer 5"><path fill="#2e45e5" d="M241.45 435.85h-65.3a12.291 12.291 0 0 0-12.3 12.3v10h2v-10a10.285 10.285 0 0 1 10.3-10.3h65.3a10.285 10.285 0 0 1 10.3 10.3v10h2v-10a12.291 12.291 0 0 0-12.3-12.3Z"/><path fill="#ffc062" d="M227.95 441.85h-37a3.543 3.543 0 0 1-3.5-3.5v-3a3.543 3.543 0 0 1 3.5-3.5h37a3.543 3.543 0 0 1 3.5 3.5v3a3.417 3.417 0 0 1-3.5 3.5Z"/><path fill="url(#q)" d="M302.25 489.45h-185.4a5.804 5.804 0 0 1-5.8-5.8 5.804 5.804 0 0 1 5.8-5.8h185.4a5.804 5.804 0 0 1 5.8 5.8 5.804 5.804 0 0 1-5.8 5.8Z"/><path fill="url(#r)" d="M302.35 475.85h.2l-.1-5.6a13.187 13.187 0 0 0-13.2-13.2h-159.4a13.187 13.187 0 0 0-13.2 13.2v5.6h185.7Z"/><path fill="url(#s)" d="M301.95 491.45v62.5c0 6.7-6.5 12.2-14.5 12.2h-155.9a19.413 19.413 0 0 1-2.4-.2c-6.8-1-12-6-12-12v-62.4Z"/><path d="M301.95 493.55v60.4c0 6.7-6.5 12.2-14.5 12.2h-155.9a19.413 19.413 0 0 1-2.4-.2c99.6.2 162.8-16.6 172.8-72.4ZM234.65 457.05v4.6a3.009 3.009 0 0 1-3 3h-41.1a3.009 3.009 0 0 1-3-3v-4.6Z" style="isolation:isolate" fill="#03007a" opacity=".2"/></g></svg>