<svg xmlns="http://www.w3.org/2000/svg" xmlns:xlink="http://www.w3.org/1999/xlink" viewBox="0 0 1000 800"><defs><linearGradient id="a" x1="613.04" x2="726.52" y1="315.505" y2="315.505" gradientTransform="matrix(1 0 0 -1 0 800)" gradientUnits="userSpaceOnUse"><stop offset="0" stop-color="#2e45e5"/><stop offset="1" stop-color="#3478e5"/></linearGradient><linearGradient id="d" x1="648.17" x2="669.77" y1="456.17" y2="456.17" xlink:href="#a"/><linearGradient id="e" x1="687.29" x2="708.89" y1="455.99" y2="455.99" xlink:href="#a"/><linearGradient id="f" x1="724.01" x2="745.61" y1="456.17" y2="456.17" xlink:href="#a"/><linearGradient id="g" x1="234.082" x2="386.25" y1="336.225" y2="336.225" xlink:href="#a"/><linearGradient id="h" x1="234.07" x2="416.9" y1="188.01" y2="188.01" xlink:href="#a"/><linearGradient id="i" x1="234.07" x2="767.93" y1="307.29" y2="307.29" xlink:href="#a"/><linearGradient id="c" x1="438.32" x2="620.405" y1="469.78" y2="469.78" gradientTransform="matrix(1 0 0 -1 0 800)" gradientUnits="userSpaceOnUse"><stop offset="0" stop-color="#ffc496"/><stop offset="1" stop-color="#ff7c4b"/></linearGradient><linearGradient id="j" x1="543.9" x2="574.93" y1="483.56" y2="483.56" xlink:href="#a"/><linearGradient id="k" x1="406.02" x2="437.05" y1="483.56" y2="483.56" xlink:href="#a"/><linearGradient id="b" x1="463.384" x2="550.71" y1="467.442" y2="567.492" gradientTransform="matrix(1 0 0 -1 0 800)" gradientUnits="userSpaceOnUse"><stop offset="0"/><stop offset=".37" stop-color="#1e191a"/><stop offset=".761" stop-color="#382e31"/><stop offset=".996" stop-color="#413639"/></linearGradient><linearGradient id="l" x1="469.373" x2="511.845" y1="608.583" y2="608.583" xlink:href="#b"/><linearGradient id="m" x1="413.8" x2="568.1" y1="532.63" y2="532.63" xlink:href="#a"/><linearGradient id="n" x1="457.8" x2="526.72" y1="384.085" y2="384.085" xlink:href="#c"/><linearGradient id="o" x1="499" x2="557.673" y1="444.966" y2="444.966" xlink:href="#a"/><linearGradient id="p" x1="493.28" x2="514.25" y1="428.145" y2="428.145" xlink:href="#a"/><linearGradient id="q" x1="508.345" x2="570.463" y1="370.354" y2="370.354" xlink:href="#c"/><linearGradient id="r" x1="491.67" x2="499.19" y1="329.36" y2="329.36" xlink:href="#a"/><linearGradient id="s" x1="491.67" x2="499.19" y1="305.6" y2="305.6" xlink:href="#a"/><linearGradient id="t" x1="601.88" x2="729.64" y1="543.525" y2="543.525" xlink:href="#a"/><linearGradient id="u" x1="308.754" x2="310.754" y1="668.64" y2="668.64" xlink:href="#a"/><linearGradient id="v" x1="368.65" x2="376.57" y1="608.68" y2="608.68" xlink:href="#a"/><linearGradient id="w" x1="360.049" x2="367.181" y1="638.894" y2="638.894" xlink:href="#a"/><linearGradient id="x" x1="336.182" x2="340.966" y1="662.023" y2="662.023" xlink:href="#a"/><linearGradient id="y" x1="240.68" x2="248.6" y1="608.68" y2="608.68" xlink:href="#a"/><linearGradient id="z" x1="250.065" x2="257.192" y1="638.893" y2="638.893" xlink:href="#a"/><linearGradient id="A" x1="276.291" x2="281.075" y1="662.024" y2="662.024" xlink:href="#a"/><linearGradient id="B" x1="308.754" x2="310.754" y1="548.73" y2="548.73" xlink:href="#a"/><linearGradient id="C" x1="360.056" x2="367.183" y1="578.463" y2="578.463" xlink:href="#a"/><linearGradient id="D" x1="336.182" x2="340.966" y1="555.334" y2="555.334" xlink:href="#a"/><linearGradient id="E" x1="250.069" x2="257.201" y1="578.463" y2="578.463" xlink:href="#a"/><linearGradient id="F" x1="276.288" x2="281.072" y1="555.333" y2="555.333" xlink:href="#a"/><linearGradient id="G" x1="79.19" x2="920.81" y1="128.4" y2="128.4" xlink:href="#a"/></defs><g data-name="Layer 2"><path fill="#fff" d="M765.93 337.79v309.84a22.999 22.999 0 0 1-22.98 22.97h-483.9a22.999 22.999 0 0 1-22.98-22.97V337.79a22.999 22.999 0 0 1 22.98-22.97h147.97a1.003 1.003 0 0 0 1-1h163.72a.997.997 0 0 0 1 1h170.21a22.999 22.999 0 0 1 22.98 22.97Z"/><path fill="#fff" d="M615.04 402.87h109.48v163.25H615.04z"/><path fill="url(#a)" d="M613.04 400.87v167.25h113.48V400.87Zm111.48 165.25H615.04V402.87h109.48v163.25Z"/><path fill="#ffc062" d="M656.69 435.73h-21.28a1 1 0 1 0 0 2h21.28a1 1 0 0 0 0-2ZM707.92 459.19h-68.96a1 1 0 1 0 0 2h68.96a1 1 0 0 0 0-2ZM638.96 481.38h68.96a1 1 0 0 0 0-2h-68.96a1 1 0 0 0 0 2ZM707.92 499.58h-68.96a1 1 0 0 0 0 2h68.96a1 1 0 0 0 0-2ZM707.92 519.78h-68.96a1 1 0 1 0 0 2h68.96a1 1 0 0 0 0-2Z"/><circle cx="658.97" cy="343.83" r="10.8" fill="url(#d)"/><circle cx="698.09" cy="344.01" r="10.8" fill="url(#e)"/><circle cx="734.81" cy="343.83" r="10.8" fill="url(#f)"/><path fill="#2e45e5" d="M368.02 556.37a1.003 1.003 0 0 0-1 1l-.01 6a1.003 1.003 0 0 0 1 1 1.003 1.003 0 0 0 1-1l.01-6a.997.997 0 0 0-1-1ZM368.13 509.25a1.003 1.003 0 0 0-1 1l-.03 11.78a1.003 1.003 0 0 0 1 1 1.003 1.003 0 0 0 1-1l.03-11.78a1.003 1.003 0 0 0-1-1ZM368.08 532.81a1.003 1.003 0 0 0-1 1l-.03 11.78a1.003 1.003 0 0 0 1 1 1.003 1.003 0 0 0 1-1l.03-11.78a1.01 1.01 0 0 0-1-1ZM368.18 485.69a1.003 1.003 0 0 0-1 1l-.03 11.78a1.003 1.003 0 0 0 1 1 1.003 1.003 0 0 0 1-1l.03-11.78a1.003 1.003 0 0 0-1-1Z"/><path fill="#ffc062" d="M368.23 462.13a1.003 1.003 0 0 0-1 1l-.03 11.78a1.003 1.003 0 0 0 1 1 1.003 1.003 0 0 0 1-1l.03-11.78a.997.997 0 0 0-1-1ZM368.29 438.57a1.003 1.003 0 0 0-1 1l-.03 11.78a1.003 1.003 0 0 0 1 1 1.003 1.003 0 0 0 1-1l.03-11.78a1.01 1.01 0 0 0-1-1ZM368.33 420.79a1.003 1.003 0 0 0-1 1l-.01 6a1.003 1.003 0 0 0 1 1 1.003 1.003 0 0 0 1-1l.01-6a1.01 1.01 0 0 0-1-1ZM264.06 481.73a1.003 1.003 0 0 0-1 1v6a1 1 0 0 0 2 0v-6a.997.997 0 0 0-1-1ZM264.06 578.93a1.003 1.003 0 0 0-1 1v13.03a1 1 0 0 0 2 0v-13.03a1.003 1.003 0 0 0-1-1ZM264.06 552.87a1.003 1.003 0 0 0-1 1v13.03a1 1 0 0 0 2 0v-13.03a1.003 1.003 0 0 0-1-1ZM264.06 526.81a1.003 1.003 0 0 0-1 1v13.03a1 1 0 0 0 2 0v-13.03a1.003 1.003 0 0 0-1-1ZM264.06 500.75a1.003 1.003 0 0 0-1 1v13.03a1 1 0 0 0 2 0v-13.03a1.003 1.003 0 0 0-1-1ZM264.06 604.99a1.003 1.003 0 0 0-1 1v6a1 1 0 0 0 2 0v-6a1.003 1.003 0 0 0-1-1ZM318.76 478.56a1.003 1.003 0 0 0-1 1l-.01 6a1.003 1.003 0 0 0 1 1 1.003 1.003 0 0 0 1-1l.01-6a1.003 1.003 0 0 0-1-1ZM318.56 561.2a1.003 1.003 0 0 0-1 1l-.03 10.95a1.003 1.003 0 0 0 1 1 1.003 1.003 0 0 0 1-1l.03-10.95a1.003 1.003 0 0 0-1-1ZM318.51 583.09a1.003 1.003 0 0 0-1 1l-.03 10.95a1.003 1.003 0 0 0 1 1 1.003 1.003 0 0 0 1-1l.03-10.95a1.003 1.003 0 0 0-1-1ZM318.61 539.3a1.003 1.003 0 0 0-1 1l-.03 10.95a1.003 1.003 0 0 0 1 1 1.003 1.003 0 0 0 1-1l.03-10.95a.997.997 0 0 0-1-1ZM318.67 517.4a1.003 1.003 0 0 0-1 1l-.03 10.95a1.003 1.003 0 0 0 1 1 1.003 1.003 0 0 0 1-1l.03-10.95a1.01 1.01 0 0 0-1-1ZM318.72 495.51a1.003 1.003 0 0 0-1 1l-.03 10.95a1.003 1.003 0 0 0 1 1 1.003 1.003 0 0 0 1-1l.03-10.95a1.003 1.003 0 0 0-1-1ZM318.46 604.99a1.003 1.003 0 0 0-1 1l-.01 6a1.003 1.003 0 0 0 1 1 1.003 1.003 0 0 0 1-1l.01-6a1.003 1.003 0 0 0-1-1Z"/><path fill="url(#g)" d="M385.26 419.42h-14.43a6.357 6.357 0 0 0-4.87 2.27l-45.83 54.68a6.219 6.219 0 0 1-4.69 2.22l-47.29.49a11.524 11.524 0 0 0-7.76 3.1L234.4 506.4a.998.998 0 1 0 1.36 1.46l25.99-24.22a9.573 9.573 0 0 1 6.42-2.57l47.29-.49a8.165 8.165 0 0 0 6.2-2.93l45.82-54.67a4.354 4.354 0 0 1 3.34-1.56h14.43a1 1 0 0 0 .01-2Z"/><path fill="url(#h)" d="M415.9 610.99H235.07a1 1 0 0 0 0 2H415.9a1 1 0 1 0 0-2Z"/><path fill="url(#i)" d="M742.95 312.82H572.74a1 1 0 0 0 0 2h170.21a22.999 22.999 0 0 1 22.98 22.97v33.43H236.07v-33.43a22.999 22.999 0 0 1 22.98-22.97h147.97a1 1 0 1 0 0-2H259.05a24.998 24.998 0 0 0-24.98 24.97v309.84a24.998 24.998 0 0 0 24.98 24.97h483.9a24.998 24.998 0 0 0 24.98-24.97V337.79a24.998 24.998 0 0 0-24.98-24.97Zm0 357.78h-483.9a22.999 22.999 0 0 1-22.98-22.97V373.22h529.86v274.41a22.999 22.999 0 0 1-22.98 22.97Z"/></g><g data-name="Layer 3"><path fill="#2e45e5" d="M633.23 642.32c-6.89 3.79-13.88 3.98-17.96 2.93a.38.38 0 0 1-.1-.03 9.26 9.26 0 0 1-1.12-.35l.04 2.08.08 4.33c.21 11.48-.33 20.03-.33 20.11l-.06.94H337.46l-.07-.91c-.07-.82-6.8-82.38 11.19-152.25 5.88-22.82 15.43-40.09 30.97-56.01 10.04-10.28 22.64-20.03 33.99-27.93 6.81-4.74 13.16-8.82 18.26-11.96a.01.01 0 0 0 .01-.01c.36-.21.7-.42 1.04-.63.76-.46 1.48-.91 2.17-1.31 4.02-2.44 6.88-4.06 8.01-4.69l.37-.22c.09-.05.14-.07.15-.08l1.22-.67 92.18.68 27 15.48 13.32 7.63c10.85 4.91 20.38 9.58 28.8 15.61 16.15 11.57 28.24 28.13 37.89 60.9 3.76 12.77 5.65 33.22 7.17 49.66.4 4.37.78 8.5 1.16 12.04 4.51 42.3-7.87 58.51-19.06 64.66Z"/><path fill="url(#c)" d="M542.9 304.09v31.13a51.894 51.894 0 0 1-4.12 20.37 52.662 52.662 0 0 1-21.57 24.64 52.275 52.275 0 0 1-51.36 1.05l-.21-.11a52.529 52.529 0 0 1-23.2-25.59 51.81 51.81 0 0 1-4.12-20.36v-31.13a31.195 31.195 0 0 1 31.15-31.16h42.28a31.195 31.195 0 0 1 31.15 31.16Z"/><path fill="url(#j)" d="M574.93 316.44a23.533 23.533 0 0 1-23.53 23.53h-7.5v-47.06h7.5a23.48 23.48 0 0 1 2.65.16 23.247 23.247 0 0 1 13.35 6.12c.21.19.43.4.64.62a23.375 23.375 0 0 1 6.89 16.63Z"/><path fill="url(#k)" d="M437.05 292.91v47.06h-7.5a23.525 23.525 0 0 1-16.64-40.16 23.684 23.684 0 0 1 11.75-6.39 23.532 23.532 0 0 1 4.89-.51Z"/><path d="M413.43 310.98a23.954 23.954 0 0 0 1.47 16.92 33.016 33.016 0 0 0 9.07 11.4 23.526 23.526 0 0 1-11.06-39.49 23.684 23.684 0 0 1 11.75-6.39c.13.09.25.17.37.26a2.852 2.852 0 0 1 1.16 1.37c.44 1.44-1.29 2.27-1.27 3.79a18.514 18.514 0 0 0-11.49 12.14ZM574.93 316.44a23.56 23.56 0 0 1-19.85 23.24 31.358 31.358 0 0 0 14.15-20.6q.12-.645.21-1.29a19.439 19.439 0 0 0-1.1-10.3 11.2 11.2 0 0 0-6.25-6.22c-2-.73-4.14-.72-6.18-1.27a3.975 3.975 0 0 1-3.03-4.09 5.857 5.857 0 0 1 .58-2.9l.59.06a23.247 23.247 0 0 1 13.35 6.12c.21.19.43.4.64.62a23.375 23.375 0 0 1 6.89 16.63Z" style="isolation:isolate" fill="#03007a" opacity=".2"/><path fill="url(#b)" d="M537.57 240.13a66.404 66.404 0 0 0-113.36 46.95v41.11a32.876 32.876 0 0 0 16.82 28.66l2.55 1.43-1.14-2.69a51.881 51.881 0 0 1-4.12-20.36v-2.48a57.805 57.805 0 0 0 52.29-34.78 57.805 57.805 0 0 0 52.29 34.78v2.48a51.894 51.894 0 0 1-4.12 20.37l-1.14 2.69 2.55-1.43a32.871 32.871 0 0 0 16.82-28.67v-41.11a65.932 65.932 0 0 0-19.44-46.95Z"/><path fill="url(#l)" d="M510.29 181.16c-2.96-5.93-10.04-9.14-21.05-9.54-8.42-.3-14.27 2.07-17.37 7.04-5.3 8.48-1.27 22.56 3.79 32.04l.29.54 27.02-.34.29-.42c2.97-4.25 12.23-18.91 7.03-29.32Z"/><path fill="url(#m)" d="M491.76 234.87c-49.4 0-76.4 36.42-77.96 64.09a23.684 23.684 0 0 1 2.79-2.16 23.11 23.11 0 0 1 4.4-2.3c.04-.01.07-.03.11-.04a21.519 21.519 0 0 1 2.58-.81c.34-.09.53-.13.53-.13 8.03-31.3 40.05-47.71 67.55-47.71 27.54 0 57.56 21.97 65.25 47.84a5.94 5.94 0 0 1 1.52.38c.45.14.9.29 1.34.47.01-.01.01-.01.01 0a23.402 23.402 0 0 1 7.52 4.69c.21.18.42.39.62.6a.304.304 0 0 1 .08.08c-7.87-38.46-38.78-65-76.34-65Z"/><path fill="#ffc062" d="M505.96 211.83c0 3.01-2.11 5.22-4.27 4.44-3.15-1.14-20.43-1.16-23.65 0-2.15.78-4.26-1.44-4.26-4.44a4.783 4.783 0 0 1 2.19-4.29c3.19-1.67 24.55-1.71 27.84.03a4.737 4.737 0 0 1 2.15 4.26Z"/><path fill="url(#n)" d="m526.72 411.3-.1.34a71.971 71.971 0 0 1-30.36 39.84l-.4.26-.45-.15a57.989 57.989 0 0 1-37.52-37.9l-.05-.26c-.03-.87-.04-1.72-.04-2.55l.01-.17c2.18-12.76 6.55-28.65 6.6-28.81l.23-1.28.08-.45.9.99.23.12a52.275 52.275 0 0 0 51.36-1.05l.24-.14h1.53l-.26 1.23c-2.03 8.61 1.11 15.18 4.74 22.79.17.35.33.7.51 1.06.87 1.86 1.77 3.78 2.61 5.8Z"/><path d="M521.63 364.99s-3.55-.93-4.11 1.44-3.27 6.79-3.27 6.79l4.53.1 1.67-.88s-1.39-4.96-.56-6.39c.81-1.4 1.74-1.06 1.74-1.06Z" style="isolation:isolate" fill="#03007a" opacity=".2"/><path fill="#fff" d="m531.41 488.17-35.69-37.53-36.92 38.83 2.94 182.13h76.75l-7.08-183.43z"/><path d="M516.76 490.66s-.96 23.34 16.87 55.12c0 0 3.46 118.36-4.78 124.83l9.63 1-1.77-137.28ZM493.3 371.22s-1.75 5.33 2.34 9.26c2.99 2.87 13.38 2.6 17.29.25s3.83-1.47 3.83-1.47-.02-4.89 2.57-6.04Z" style="isolation:isolate" fill="#03007a" opacity=".2"/><path fill="#2e45e5" d="M547.25 457.24a65.374 65.374 0 0 1-13.64 33.03l-.72.91-38.73-40.73 1.02-.65a69.877 69.877 0 0 0 29.66-39.21l.37-1.22 13.88 8.21.13.23a66.093 66.093 0 0 1 8.03 39.43Z"/><path fill="#2e45e5" d="M496.03 449.69a56.051 56.051 0 0 1-37.41-40.88l-.31-1.34-25.24 15.13-.06.48a94.159 94.159 0 0 0 14.46 63.9 8.834 8.834 0 0 0 6.61 3.99 7.804 7.804 0 0 0 .83.04 8.883 8.883 0 0 0 6.45-2.77l36.17-38.04Z"/><path fill="url(#o)" d="M556.74 336.63a.996.996 0 0 0-1.06.93l-.66 10.21c0 13.49-9.92 23.67-23.07 23.67H500a1 1 0 0 0 0 2h31.95c14.29 0 25.07-11.03 25.06-25.6l.66-10.15a.996.996 0 0 0-.93-1.06Z"/><path d="M512.88 433.78s-1.63 25.13 0 36.36l13.84 14.32-10.86-55.96Z" style="isolation:isolate" fill="#03007a" opacity=".2"/><path fill="url(#p)" d="M514.25 367.09v9.54a3.54 3.54 0 0 1-3.54 3.54h-9.12a8.309 8.309 0 0 1-5.37-14.65 8.2 8.2 0 0 1 5.37-1.98h9.12a3.542 3.542 0 0 1 3.54 3.55Z"/><path fill="#e6635d" d="M486.32 366.66a11.848 11.848 0 0 1-10.4-11.47 1 1 0 0 0-2 0c0 .11.14 11.4 12.06 13.44a.97.97 0 0 0 .17.01.998.998 0 0 0 .17-1.98Z"/><path d="M523.97 405.17c-33.36-.64-50.64-16.35-59.33-24.55l.98.54.23.12a52.275 52.275 0 0 0 51.36-1.05l.24-.14h1.53l-.26 1.23c-2.03 8.61 1.11 15.18 4.74 22.79.17.35.33.7.51 1.06Z" style="isolation:isolate" fill="#03007a" opacity=".2"/><path d="M534.65 437.34h-.07a1 1 0 0 1-.93-1.07 21.268 21.268 0 0 1 5.38-13.09 1 1 0 1 1 1.41 1.42 19.634 19.634 0 0 0-4.79 11.81.99.99 0 0 1-1 .93Z" style="isolation:isolate" fill="#2e45e5" opacity=".5"/><path fill="url(#q)" d="M556.08 442.86c1.49-2.55 4.21-6.56 6.69-10.19 4.99-7.35 7.37-10.96 7.59-12.34a8.033 8.033 0 0 0-2.62-7.27l.14-.74-.03-.01c.65-3.85.86-8.89-1.53-11.77l-.01-.07.14-1.17c.03-.48.04-1 .03-1.61v-.04a9.588 9.588 0 0 0-5.33-8.16l-1.31-.66c.26-2.53.33-10.54-8.5-13.68l-28.8-10.03a2.253 2.253 0 0 0-2.98 2.42 41.822 41.822 0 0 0 .89 4.9c-.14.08-.28.16-.41.25a6.998 6.998 0 0 0-3.13 5.07c-.37 3.45-.62 7.87-.77 13.53l-.01.48a68.703 68.703 0 0 1-6.24 3.21 2.57 2.57 0 0 0-1.34 3.36c.84 2.01 2.55 5.06 5.37 5.94l-.07.05a2.214 2.214 0 0 0-.83 1.81 2.179 2.179 0 0 0 .88 1.71l2.02 1.68v.07c-.01 2.95-.02 5.77-.05 8.32-.13 13.74-.02 30.26 1.09 38.07v.02a15.346 15.346 0 0 0 .86 3.69c1.72 3.88 12.22 33.05 12.32 33.35l.46 1.25 32.79-23.9.59-.43-8.75-25.53c.09-.2.21-.44.35-.69.18-.31.35-.61.5-.89Zm-24.53-60.84-2.7 1.73-.54-4.49 5.1 1.88a8.12 8.12 0 0 0-1.86.88Z"/><path d="M519.33 373.22s.57 6.5 9.09 6.95l-.14-.91a11.09 11.09 0 0 1-7.83-6.82 13.621 13.621 0 0 0-1.12.78Z" style="isolation:isolate" fill="#03007a" opacity=".2"/><path fill="#2e45e5" d="M651.95 576.36a13.271 13.271 0 0 0-5.01-8.65c-18.12-24.8-79.1-106.56-79.71-107.39l-.55-.74-49.92 31.07.16.7a222.372 222.372 0 0 0 15.25 43.95c.35.81 35.48 81.55 80.33 108.76a13.51 13.51 0 0 0 6.71 1.42 28.856 28.856 0 0 0 15.32-4.69c10.71-6.92 22.44-23.73 17.42-64.43Z"/><circle cx="495.43" cy="470.64" r="3.76" fill="url(#r)"/><circle cx="495.43" cy="494.4" r="3.76" fill="url(#s)"/><circle cx="462.041" cy="342.902" r="10.53" style="isolation:isolate" fill="#e6635d" opacity=".5"/><path d="M566.21 400.41s-28.44-7.92-29.23-7.54c-.79.37-23.07 11.2-23.07 11.2 5.57-2.34 22.76-9.09 23.42-9.15 1.32-.11 30.15 7.61 30.15 7.61ZM525.09 412.32a5.867 5.867 0 0 0 3.65 4.79c3.57 1.68 7.2.48 10.47-.91l9.43 2.78-8.91-1.05s-8.62 3.05-12.74-.07c-3.28-2.5-1.9-5.54-1.9-5.54ZM516.13 391.77l12.72-8.02-.37-3.02c.01 0-5.7 2.57-12.35 11.04ZM540.28 381.46c-4.03-1.01-8-2-11.95-2.97l.01-.01c-6.99-2.52-8.44-7.67-7.89-6.04 1.74 5.18 7.3 6.54 7.3 6.54l.53.28c1.59.63 2.67.97 4.32 1.58a206.345 206.345 0 0 0 27.24 7.99v-2.16c-2.17-.78-11.13-3.09-19.56-5.21ZM544.67 422.89s-12.21 5.55-14.81 23.18c0 .01-3.14-18.87 14.81-23.18Z" style="isolation:isolate" fill="#03007a" opacity=".2"/><path d="m567.88 412.32-29.02-7.93-16.37 7.06c-3.16.94-6.57-1.85-6.57-1.85a14.408 14.408 0 0 0 4.56 2.72s.18.06.47.13a7.107 7.107 0 0 0 4.14-.13s13.05-6.08 13.95-5.93 29.82 7.91 29.82 7.91Z" style="isolation:isolate" fill="#03007a" opacity=".2"/><path d="M526.17 416.3s-5.85 2.76-10.22 19.29l-.02-25.99s5.35 4.7 9.17 2.72c-.01 0-.86 2.69 1.07 3.98ZM555.23 444.44s-5.48 8.53-10.56 9.58l12.56-3.75ZM561.52 462.8s-29.93 16.21-36.72 14.47l1.92 7.19ZM567.23 460.32l84.58 112.6s-3.44-29.9-3.64-33.26c0 0-27.95-14.5-80.94-79.34ZM533.27 537.75s40.04 80.63 83.14 107.74l-2.36-.62.06 19.64s-67.87-65.15-80.84-126.76ZM458.32 407.46s16.06 30.8 36.86 42.34c0 0-17.98-6.08-28.59-22.44-7.9-12.19-8.27-19.9-8.27-19.9Z" style="isolation:isolate" fill="#03007a" opacity=".2"/><path d="M496.03 449.69s14.03-10.05 19.8-20.04v-4.67s-16.33 23.04-20.65 24.82M434.51 421.32s-7.98 28.98 13.77 62.27c4.87 7.46 6.79 7.8 11.98 5.81 0 0-8.42 13.4-17.35-.4-24.84-38.36-8.4-67.68-8.4-67.68ZM526.72 484.46l-31.09-32.36-35.37 37.3 34.98-32.45c5.92 6.32 23.61 24.73 31.48 27.51ZM396.67 669.08s-7.35-80.55 5.42-122.49c0 0-8.93 38.17-.79 124.01ZM458.84 492.21s7.31 172.51 17.9 179.39h-15.01ZM562.34 295.55a8.369 8.369 0 0 0-2.46-1.05c0-.01 0-.01-.01 0-.44-.18-.89-.33-1.34-.47a5.94 5.94 0 0 0-1.52-.38c-7.69-25.87-37.71-47.84-65.25-47.84-27.5 0-59.52 16.41-67.55 47.71 0 0-.19.04-.53.13-.24.06-.46.13-.7.19-.51.15-1.15.35-1.88.62-.04.01-.07.03-.11.04a18.329 18.329 0 0 0-7.19 4.46s15.77-56.56 76.07-56.37c17.57.06 53.83 2.96 72.47 52.96ZM411.43 438.16c-3.81 2.92-7.58 5.9-11.27 8.97a198.313 198.313 0 0 0-20.79 19.68 120.81 120.81 0 0 0-16.51 22.98c-.56 1.03-1.1 2.07-1.63 3.11-13.89 27.75-14.04 60.12-13.45 91.14q.855 44.175 3.02 88.29h-13.34l-.07-.91c-.07-.82-6.8-82.38 11.19-152.25 5.88-22.82 15.43-40.09 30.97-56.01 10.04-10.28 22.64-20.03 33.99-27.93.8 1.17-1.12 2.16-2.11 2.93ZM606.07 455.06a168.997 168.997 0 0 0-17.58-.11 112.204 112.204 0 0 0-16.91 2.63c-3.2.68-7.11 1.51-10.07-.36a9.208 9.208 0 0 1-3.27-4.12c-.56-1.25-.97-2.58-1.43-3.88-.49-1.41-1.58-4.78-1.58-4.78.12-1.36 8.29-12.87 8.29-12.87l13.75 7.88c10.85 4.91 20.38 9.58 28.8 15.61ZM514.25 373.22v3.41a3.54 3.54 0 0 1-3.54 3.54h-9.12a8.309 8.309 0 0 1-5.37-14.65s-.87 8.59 7.55 9.45c8.41.87 10.48-1.75 10.48-1.75Z" style="isolation:isolate" fill="#03007a" opacity=".2"/></g><g data-name="Layer 4"><path fill="#fff" d="M727.64 238.68v28.05a6.005 6.005 0 0 1-6 6H618.02a7.912 7.912 0 0 0-4.65 1.5l-8.24 5.89a.746.746 0 0 1-.82.06.764.764 0 0 1-.43-.7v-40.8a6.005 6.005 0 0 1 6-6h111.76a6.005 6.005 0 0 1 6 6Z"/><path fill="url(#t)" d="M721.64 230.68H609.88a8.004 8.004 0 0 0-8 8v40.8a2.788 2.788 0 0 0 2.79 2.79 2.742 2.742 0 0 0 1.62-.52l8.24-5.89a5.912 5.912 0 0 1 3.49-1.13h103.62a8.004 8.004 0 0 0 8-8v-28.05a8.01 8.01 0 0 0-8-8Zm6 36.05a6.005 6.005 0 0 1-6 6H618.02a7.912 7.912 0 0 0-4.65 1.5l-8.24 5.89a.746.746 0 0 1-.82.06.764.764 0 0 1-.43-.7v-40.8a6.005 6.005 0 0 1 6-6h111.76a6.005 6.005 0 0 1 6 6Z"/><path fill="#ffc062" d="M612.73 242.77a1.003 1.003 0 0 0-1 1v12.36a1 1 0 0 0 2 0v-12.36a1.003 1.003 0 0 0-1-1ZM624.09 247.93a1.003 1.003 0 0 0-1 1v14.86a1 1 0 1 0 2 0v-14.86a1.003 1.003 0 0 0-1-1ZM635.45 237.1a1.003 1.003 0 0 0-1 1v18.03a1 1 0 0 0 2 0V238.1a.997.997 0 0 0-1-1ZM646.82 241.01a1.003 1.003 0 0 0-1 1v18.9a1 1 0 0 0 2 0v-18.9a1.003 1.003 0 0 0-1-1ZM658.18 247.93a1.003 1.003 0 0 0-1 1v7.43a1 1 0 0 0 2 0v-7.43a1.003 1.003 0 0 0-1-1ZM669.54 240a1.003 1.003 0 0 0-1 1v26.44a1 1 0 1 0 2 0V241a.997.997 0 0 0-1-1ZM680.91 247.93a1.003 1.003 0 0 0-1 1v8.06a1 1 0 1 0 2 0v-8.06a1.003 1.003 0 0 0-1-1ZM692.27 238.49a1.003 1.003 0 0 0-1 1v21.42a1 1 0 0 0 2 0v-21.42a1.003 1.003 0 0 0-1-1ZM703.63 251.08a1.003 1.003 0 0 0-1 1v14.23a1 1 0 0 0 2 0v-14.23a.997.997 0 0 0-1-1ZM715 237.1a1.003 1.003 0 0 0-1 1v26.57a1 1 0 1 0 2 0V238.1a1.003 1.003 0 0 0-1-1ZM309.86 190.77v-28.74a1 1 0 0 0-2 0v23.85l-5.54-35.58a.997.997 0 1 0-1.97.31l6.39 41a2.67 2.67 0 0 0-.6 1.68 2.73 2.73 0 1 0 3.72-2.52Z"/><path fill="url(#u)" d="M309.75 135.32a1.003 1.003 0 0 0 1-1v-5.92a1 1 0 0 0-2 0v5.92a.997.997 0 0 0 1 1Z"/><path fill="url(#v)" d="m375.56 190.29-5.92.06a1 1 0 0 0 .01 2h.01l5.92-.06a1 1 0 0 0-.02-2Z"/><path fill="url(#w)" d="m365.68 158.76-5.13 2.96a1.003 1.003 0 0 0 1 1.74l5.13-2.96a1.01 1.01 0 0 0 .37-1.37.993.993 0 0 0-1.37-.37Z"/><path fill="url(#x)" d="M340.44 134.48a1.002 1.002 0 0 0-1.35.41l-2.78 5.23a1.002 1.002 0 0 0 .88 1.47.988.988 0 0 0 .88-.53l2.78-5.23a1.004 1.004 0 0 0-.41-1.35Z"/><path fill="url(#y)" d="m247.61 190.35-5.92-.06a.984.984 0 0 0-1.01.99 1.003 1.003 0 0 0 .99 1.01l5.92.06h.01a1 1 0 0 0 1-.99.99.99 0 0 0-.99-1.01Z"/><path fill="url(#z)" d="m256.7 161.72-5.13-2.96a1.003 1.003 0 1 0-1 1.74l5.13 2.96a1.003 1.003 0 1 0 1-1.74Z"/><path fill="url(#A)" d="M278.17 134.89a.998.998 0 0 0-1.76.94l2.78 5.23a.998.998 0 0 0 1.76-.94Z"/><path fill="url(#B)" d="M309.75 247.31a1.003 1.003 0 0 0-1 1v5.92a1 1 0 0 0 2 0v-5.92a.997.997 0 0 0-1-1Z"/><path fill="url(#C)" d="m366.68 222.15-5.13-2.96a1.003 1.003 0 1 0-1 1.74l5.13 2.96a1.003 1.003 0 1 0 1-1.74Z"/><path fill="url(#D)" d="M338.07 241.58a.998.998 0 1 0-1.76.94l2.78 5.23a.998.998 0 0 0 1.76-.94Z"/><path fill="url(#E)" d="m255.7 219.19-5.13 2.96a1.003 1.003 0 0 0 1 1.74l5.13-2.96a1.003 1.003 0 1 0-1-1.74Z"/><path fill="url(#F)" d="M280.54 241.17a1.002 1.002 0 0 0-1.35.41l-2.78 5.23a1.002 1.002 0 0 0 .88 1.47.988.988 0 0 0 .88-.53l2.78-5.23a.993.993 0 0 0-.41-1.35Z"/></g><path fill="url(#G)" d="M79.19 671.6a1.003 1.003 0 0 0 1 1h839.62a1.003 1.003 0 0 0 1-1 1.003 1.003 0 0 0-1-1H80.19a1.003 1.003 0 0 0-1 1Z" data-name="layer 1"/></svg>