<svg xmlns="http://www.w3.org/2000/svg" xmlns:xlink="http://www.w3.org/1999/xlink" viewBox="0 0 1000 1000"><defs><linearGradient id="Безымянный_градиент_18" x1="866" x2="948.89" y1="219.46" y2="363.03" gradientTransform="rotate(12.97 863.012 265.56)" gradientUnits="userSpaceOnUse"><stop offset="0" stop-color="#ffcc50"/><stop offset="1" stop-color="#ff7c06"/></linearGradient><linearGradient id="Безымянный_градиент_18-2" x1="183.7" x2="238.12" y1="173.58" y2="267.83" xlink:href="#Безымянный_градиент_18"/><linearGradient id="Безымянный_градиент_6" x1="239.1" x2="281.77" y1="126.87" y2="200.77" gradientTransform="rotate(20.62 237.986 156.896)" gradientUnits="userSpaceOnUse"><stop offset="0" stop-color="#5170ee"/><stop offset=".54" stop-color="#2c4ac7"/><stop offset=".88" stop-color="#1a37b4"/></linearGradient><linearGradient id="Безымянный_градиент_18-3" x1="633.69" x2="633.69" y1="403.12" y2="474.24" xlink:href="#Безымянный_градиент_18"/><linearGradient id="Безымянный_градиент_18-4" x1="689.58" x2="689.58" y1="403.12" y2="474.24" xlink:href="#Безымянный_градиент_18"/><linearGradient id="Безымянный_градиент_3" x1="110.1" x2="168.97" y1="346.63" y2="346.63" gradientUnits="userSpaceOnUse"><stop offset=".15" stop-color="#5170ef"/><stop offset=".31" stop-color="#4260df"/><stop offset=".67" stop-color="#2542c0"/><stop offset=".88" stop-color="#1a37b5"/></linearGradient><linearGradient id="Безымянный_градиент_16" x1="-451.93" x2="-451.93" y1="475.41" y2="546.97" gradientTransform="matrix(-.99 .15 .15 .99 -202.24 -188.13)" gradientUnits="userSpaceOnUse"><stop offset="0" stop-color="#35419d"/><stop offset=".27" stop-color="#2c3282"/><stop offset=".83" stop-color="#140c3f"/><stop offset="1" stop-color="#0d002a"/></linearGradient><linearGradient id="Безымянный_градиент_16-2" x1="-442.52" x2="-442.52" y1="475.41" y2="546.24" xlink:href="#Безымянный_градиент_16"/><linearGradient id="Безымянный_градиент_3-2" x1="-4.67" x2="39.49" y1="939.85" y2="939.85" gradientTransform="matrix(-.93 .36 .61 .83 -407 -451.86)" xlink:href="#Безымянный_градиент_3"/><linearGradient id="Безымянный_градиент_3-3" x1="14.34" x2="20.87" y1="975.21" y2="975.21" gradientTransform="matrix(-.93 .36 .61 .83 -407 -451.86)" xlink:href="#Безымянный_градиент_3"/></defs><g id="layer_2" data-name="layer 2"><path fill="#e3e9f5" d="M290.41 804.25c-60.17-2-116.53-31.19-151.79-80-17.46-24.15-30.17-53.57-29.51-87.73 2-105.12 39-106.66 43-193.59S73.45 308.87 87.6 213.86s95.62-96.24 144-94.58c92.61 3.16 141.89 120.74 273.29 143S743 210.94 814.63 239.67c63 25.27 132.11 107.91 105.4 183.91s-49.64 115.48-41.55 147.82 75 79.23 13.59 174.83C814.63 866.69 454 809.82 290.41 804.25Z"/><path fill="#a8d9fa" d="M743.87 775s-18.25-69.1 53.13-90.3 105.54 10 105.54 10-43.4 132.6-158.67 80.3Z"/><path fill="#71b1de" d="M719.54 803.79a2.31 2.31 0 0 1-.51-.22 2 2 0 0 1-.74-2.82c28-44.18 128.46-93.92 132.72-96a2.21 2.21 0 0 1 2.89.9 2 2 0 0 1-.9 2.76c-1 .5-103.69 51.31-131 94.51a2.17 2.17 0 0 1-2.46.87ZM743.25 735.91c4.74-19.48 18.25-41.07 52.89-51.36a177.75 177.75 0 0 1 32.19-6.55c-9.71 28.55-32.33 61.53-85.08 57.91Z"/><path fill="#8fc5df" d="M736 728.74s-29.77-47 18.18-79.46 80.66-17.39 80.66-17.39-1.03 108.59-98.84 96.85Z"/><path fill="#71b1de" d="M724.69 755.83a2.15 2.15 0 0 1-.43 0 1.57 1.57 0 0 1-1.2-1.93c10.37-39.39 73.25-99.9 75.94-102.46a1.73 1.73 0 0 1 2.36 0 1.56 1.56 0 0 1 0 2.26c-.65.62-64.89 62.44-75 100.92a1.69 1.69 0 0 1-1.67 1.21Z"/><path fill="#a8d9fa" d="M730 673.18s-36.57-26.9-9.73-65.82 56.2-37.13 56.2-37.13 31.39 82.89-46.47 102.95Z"/><path fill="#71b1de" d="M729.42 697.13a1.31 1.31 0 0 1-.34.09 1.28 1.28 0 0 1-1.49-1.1c-3.77-33 26.12-97.66 27.39-100.4a1.41 1.41 0 0 1 1.79-.71 1.27 1.27 0 0 1 .65 1.73c-.3.66-30.84 66.71-27.15 99a1.38 1.38 0 0 1-.85 1.39Z"/><path fill="url(#Безымянный_градиент_18)" d="M898.77 341 870 336.68a4.3 4.3 0 0 1-3.36-5.05q1.7-11.33 4.89-18.08a43.72 43.72 0 0 1 8.26-12q5.07-5.2 21.95-17.72 9-6.54 9.94-13c.64-4.29.1-7.77-1.63-10.47s-4.72-4.35-9-5a14.17 14.17 0 0 0-12.05 3.87 18.86 18.86 0 0 0-3.38 4.28c-4.65 7.79-13.27 11.55-21.29 9.09l-.66-.21c-12.16-3.74-17.2-19.5-9.88-31.12a57.54 57.54 0 0 1 11.08-13q15.33-13.27 42.33-9.19 21 3.16 32.34 15.75 15.38 17 11.77 41a43.38 43.38 0 0 1-7.41 18.47Q938 302.82 922 314q-11.16 7.89-14.56 13.17a32 32 0 0 0-4 10.35 4.26 4.26 0 0 1-4.67 3.48ZM882 350.55l1.13.17c10.53 1.59 17.65 12.26 15.9 23.85-1.74 11.58-11.69 19.68-22.22 18.1l-1.13-.17c-10.52-1.59-17.64-12.26-15.89-23.85 1.77-11.58 11.72-19.65 22.21-18.1Z"/><path fill="url(#Безымянный_градиент_18-2)" d="m226.09 236.08-15.62 8.84a2.65 2.65 0 0 1-3.56-1.17 41.16 41.16 0 0 1-4.51-10.66 27.11 27.11 0 0 1-.54-9q.48-4.47 3.92-17 1.88-6.6-.11-10.09a9.15 9.15 0 0 0-4.78-4.47c-1.87-.65-3.95-.32-6.26 1a8.75 8.75 0 0 0-4.47 6.47 11.44 11.44 0 0 0 0 3.37c.71 5.56-2 10.68-6.89 12.54l-.4.15c-7.33 2.82-15.79-2.93-16.66-11.37a35.18 35.18 0 0 1 .44-10.53q2.4-12.31 17.09-20.63 11.43-6.48 21.73-4.67 14 2.41 21.34 15.43a26.82 26.82 0 0 1 3.44 11.82q.38 6.42-3.13 18-2.41 8.08-2.06 11.95a19.75 19.75 0 0 0 2 6.57 2.63 2.63 0 0 1-.97 3.45Zm-4.5 11 .62-.35c5.72-3.24 13.25-.76 16.82 5.54 3.57 6.3 1.82 14-3.91 17.27l-.61.35c-5.72 3.24-13.26.76-16.82-5.54-3.57-6.27-1.82-14.01 3.9-17.25Z"/><path fill="url(#Безымянный_градиент_6)" d="m263.48 186.75-13.91 2.18a2.09 2.09 0 0 1-2.29-1.84 32.2 32.2 0 0 1-.37-9.07 21.27 21.27 0 0 1 2.08-6.73 106.13 106.13 0 0 1 7.56-11.39q3.21-4.32 2.71-7.43a7.14 7.14 0 0 0-2.27-4.6 5.86 5.86 0 0 0-4.87-1 6.84 6.84 0 0 0-5.07 3.51 9.23 9.23 0 0 0-.94 2.47c-1 4.28-4.45 7.27-8.51 7.3h-.34c-6.16 0-10.79-6.51-9.09-12.94a27.62 27.62 0 0 1 3.23-7.61q5.16-8.37 18.23-10.42 10.19-1.6 17.24 2.57 9.58 5.63 11.4 17.22a20.9 20.9 0 0 1-.74 9.62q-1.48 4.8-7.25 12.32-4 5.26-4.81 8.2a15.67 15.67 0 0 0-.36 5.37 2.05 2.05 0 0 1-1.63 2.27Zm-6.35 6.85.55-.09c5.09-.8 9.94 3.1 10.81 8.71.88 5.6-2.53 10.8-7.63 11.59l-.55.09c-5.09.8-9.93-3.1-10.81-8.71-.88-5.6 2.5-10.8 7.63-11.59Z"/><ellipse cx="591.63" cy="817.11" fill="#fcfdff" opacity=".06" rx="182.14" ry="25.42"/><ellipse cx="591.63" cy="817.11" fill="#f9fbfe" opacity=".11" rx="173.19" ry="24.18"/><ellipse cx="591.63" cy="817.11" fill="#f5f8fe" opacity=".17" rx="164.25" ry="22.93"/><ellipse cx="591.63" cy="817.11" fill="#f2f6fd" opacity=".22" rx="155.31" ry="21.68"/><ellipse cx="591.63" cy="817.11" fill="#eff4fd" opacity=".28" rx="146.36" ry="20.43"/><ellipse cx="591.63" cy="817.11" fill="#ecf2fc" opacity=".33" rx="137.42" ry="19.18"/><ellipse cx="591.63" cy="817.11" fill="#e9f0fc" opacity=".39" rx="128.47" ry="17.93"/><ellipse cx="591.63" cy="817.11" fill="#e6eefb" opacity=".44" rx="119.53" ry="16.69"/><ellipse cx="591.63" cy="817.11" fill="#e3ecfb" opacity=".5" rx="110.59" ry="15.44"/><ellipse cx="591.63" cy="817.11" fill="#dfe9fb" opacity=".56" rx="101.64" ry="14.19"/><ellipse cx="591.63" cy="817.11" fill="#dce7fa" opacity=".61" rx="92.7" ry="12.94"/><ellipse cx="591.63" cy="817.11" fill="#d9e5fa" opacity=".67" rx="83.75" ry="11.69"/><ellipse cx="591.63" cy="817.11" fill="#d6e3f9" opacity=".72" rx="74.81" ry="10.44"/><ellipse cx="591.63" cy="817.11" fill="#d3e1f9" opacity=".78" rx="65.87" ry="9.19"/><ellipse cx="591.63" cy="817.11" fill="#d0dff8" opacity=".83" rx="56.92" ry="7.95"/><path fill="#ccdcf8" d="M639.6 817.11c0 3.7-21.48 6.7-48 6.7s-48-3-48-6.7 21.48-6.7 48-6.7 48 3 48 6.7Z" opacity=".89"/><path fill="#c9daf7" d="M630.66 817.11c0 3-17.48 5.45-39 5.45s-39-2.44-39-5.45 17.48-5.45 39-5.45 39 2.44 39 5.45Z" opacity=".94"/><path fill="#c6d8f7" d="M621.72 817.11c0 2.32-13.48 4.2-30.09 4.2s-30.09-1.88-30.09-4.2 13.47-4.2 30.09-4.2 30.09 1.88 30.09 4.2Z"/><path fill="#1a37b4" d="M643.26 674.91A10.71 10.71 0 0 1 633 666a7.57 7.57 0 0 1 7.85-8.79c86.4.46 157-62.5 157.44-140.35 0-4.83 4.14-8.2 9.21-7.47s9.14 5.19 9.12 10c-.52 86.28-78.26 156.03-173.36 155.52Z"/><path fill="#1a37b4" d="m633.78 688-28.42-.15c-11.4-.06-20.59-9.11-20.53-20.2.06-11.09 9.34-20 20.74-20l28.42.15c11.4.07 20.6 9.11 20.54 20.2-.06 11.15-9.35 20.09-20.75 20ZM809.72 377.24a22.36 22.36 0 0 1-2.8-.2c-11-1.51-19.9-11.12-19.85-21.46.26-48.73-19.25-94.39-54.94-128.55C697 193.4 650 174.73 599.91 174.46c-106.79-.57-194.12 82.12-194.67 184.33-.05 10.34-9 17.5-20.05 16s-19.9-11.12-19.85-21.46c.32-58.35 24.26-113 67.43-153.81s100.67-63.22 161.79-62.89c61.74.33 120 23.68 163.89 65.75C803 245 827.29 301.32 827 361.05c-.08 9.45-7.58 16.24-17.28 16.19Z"/><path fill="#5170ee" d="M387.5 467.7a22.36 22.36 0 0 1-2.8-.2c-11-1.51-19.91-11.12-19.85-21.46l.69-129c.31-58.35 24.26-113 67.43-153.82S533.63 100 594.75 100.33c61.75.33 120 23.68 163.9 65.74 44.5 42.6 68.83 99 68.51 158.69l-.68 127.91c-.06 10.34-9 17.49-20.05 16s-19.91-11.11-19.85-21.45l.68-127.91c.27-48.74-19.25-94.39-54.94-128.55-35.13-33.63-82.09-52.3-132.21-52.57-106.8-.59-194.11 82.1-194.67 184.31l-.7 129c-.05 9.5-7.54 16.25-17.24 16.2Z"/><path fill="#1a37b4" d="M345.11 478.56a18.58 18.58 0 0 1-18.72-18.41l.09-16.39a18.57 18.57 0 0 1 18.91-18.21A18.58 18.58 0 0 1 364.11 444l-.11 16.35a18.58 18.58 0 0 1-18.89 18.21Z"/><path fill="#1a37b4" d="M441.54 397.54a16.3 16.3 0 0 0-16.23-16.16c-6.95-.13-13.87-.16-16-.17h-7.11c-33.34-.17-60.51 26-60.69 58.43l-.17 32.68c-.18 32.44 26.71 58.89 60.06 59.07h7.11c2.17 0 9.44-.19 16.59-.49a16.27 16.27 0 0 0 15.79-16Z"/><path fill="#304ad4" d="M421.78 385.32A3.32 3.32 0 0 0 419 382a62.63 62.63 0 0 0-9.66-.81h-7.11c-33.34-.17-60.51 26-60.69 58.43l-.17 32.68c-.18 32.44 26.71 58.89 60.06 59.07h7.11a62.9 62.9 0 0 0 9.67-.71 3.33 3.33 0 0 0 2.82-3.27Z"/><path fill="#1a37b4" d="M846.62 479.21A18.55 18.55 0 0 0 865.53 461l.09-16.39a18.56 18.56 0 0 0-18.71-18.41A18.57 18.57 0 0 0 828 444.42l-.09 16.39a18.55 18.55 0 0 0 18.71 18.4Z"/><path fill="#1a37b4" d="M751.06 397.17a16.3 16.3 0 0 1 16.41-16c6.95-.06 13.86 0 16 0h7.1c33.35.17 60.24 26.62 60.06 59.07l-.19 32.76c-.18 32.44-27.35 58.6-60.69 58.42h-7.11c-2.17 0-9.44-.28-16.59-.66a16.28 16.28 0 0 1-15.62-16.14Z"/><path fill="#304ad4" d="M771 385.17a3.34 3.34 0 0 1 2.83-3.28 61.59 61.59 0 0 1 9.67-.7h7.1c33.35.17 60.24 26.62 60.06 59.07l-.22 32.74c-.18 32.44-27.35 58.6-60.69 58.42h-7.11a62.64 62.64 0 0 1-9.66-.8 3.34 3.34 0 0 1-2.79-3.31Z"/><rect width="298.53" height="528.04" x="448.16" y="266.14" fill="#e4eaf6" rx="26.66"/><path fill="#304ad5" d="M718.2 803.64H476.64c-19.4 0-35.19-14.75-35.19-32.89V296c0-18.14 15.79-32.89 35.19-32.89H718.2c19.4 0 35.19 14.75 35.19 32.89v474.75c0 18.14-15.79 32.89-35.19 32.89Zm-241.56-528c-12 0-21.78 9.13-21.78 20.36v474.75c0 11.23 9.77 20.36 21.78 20.36H718.2c12 0 21.78-9.13 21.78-20.36V296c0-11.23-9.77-20.36-21.78-20.36Z"/><rect width="254.73" height="437.8" x="470.06" y="305.4" fill="#fff" rx="10.08"/><ellipse cx="597.33" cy="288.69" fill="#1a37b5" rx="5.36" ry="5.01"/><path fill="#5170ef" d="m570.9 465.21-5.32-16.37c-3.42-10.55-16.89-13.35-26.34-5.48l-.18.15c-17.84 14.87-24.17 38.82-15.12 57.49 7.28 15 16.4 31.67 25.18 41.77 9.31 10.71 23.63 21.38 36.63 29.91 16.92 11.11 40.79 8.47 57.88-6.39 9.28-8.07 8.72-21.85-1.11-26.95l-13.47-7c-5.81-3-13.37-1.84-18.86 2.93l-13.8 12-2.1-1.33a111.66 111.66 0 0 1-43.06-50.6l14-12.2c5.41-4.68 7.65-11.82 5.67-17.93Z"/><path fill="url(#Безымянный_градиент_18-3)" d="M657.31 463.89V472a2.26 2.26 0 0 1-2.26 2.26h-42.71a2.27 2.27 0 0 1-2.22-2.71 33.32 33.32 0 0 1 4.23-10.84q3.87-6.4 15.27-17 9.18-8.55 11.26-11.6a14.91 14.91 0 0 0 2.8-8.31c0-3-.81-5.35-2.44-7a10.36 10.36 0 0 0-13.5.12 11.2 11.2 0 0 0-2.68 6.38 2.25 2.25 0 0 1-2.45 1.9l-9-.9a2.24 2.24 0 0 1-2-2.59q1.57-9.37 7.26-13.73 6.39-4.87 16-4.88 10.49 0 16.47 5.65a18.54 18.54 0 0 1 6 14.06 24.55 24.55 0 0 1-1.72 9.11 36.77 36.77 0 0 1-5.44 9.06 85.41 85.41 0 0 1-8.89 9q-6.42 5.9-8.14 7.82a2.25 2.25 0 0 0 1.71 3.73h20.25a2.26 2.26 0 0 1 2.2 2.36Z"/><path fill="url(#Безымянный_градиент_18-4)" d="M693.11 472v-9.73a2.26 2.26 0 0 0-2.26-2.26h-24.47a2.26 2.26 0 0 1-2.26-2.26v-8.95a2.29 2.29 0 0 1 .39-1.27l29.66-43.42a2.27 2.27 0 0 1 1.87-1h8a2.26 2.26 0 0 1 2.26 2.26v40.43a2.26 2.26 0 0 0 2.26 2.26h4.27a2.26 2.26 0 0 1 2.26 2.25v7.42a2.26 2.26 0 0 1-2.26 2.26h-4.27a2.26 2.26 0 0 0-2.26 2.26V472a2.26 2.26 0 0 1-2.26 2.26h-8.62a2.26 2.26 0 0 1-2.31-2.26Zm0-26.18v-14.56A2.26 2.26 0 0 0 689 430l-9.78 14.55a2.26 2.26 0 0 0 1.88 3.52h9.78a2.26 2.26 0 0 0 2.23-2.27Z"/><path fill="#ff9908" d="m585.44 369.53 2.92 43a2.36 2.36 0 0 0 3.88 1.63l27.51-23.45a2.37 2.37 0 0 0-.26-3.79l-30.42-19.52a2.36 2.36 0 0 0-3.63 2.13Z"/><path fill="#ff9908" d="M593.29 621a117.55 117.55 0 0 1 0-235.09 6.28 6.28 0 1 1 0 12.56 105 105 0 1 0 105 105 6.28 6.28 0 0 1 12.56 0A117.68 117.68 0 0 1 593.29 621Z"/><path fill="#71b0dd" d="M702 337.32h-73.7a4.5 4.5 0 0 1-4.5-4.49 4.5 4.5 0 0 1 4.5-4.49H702a4.49 4.49 0 0 1 4.49 4.49 4.49 4.49 0 0 1-4.49 4.49ZM702 354.16H588.92a4.49 4.49 0 0 1-4.49-4.49 4.49 4.49 0 0 1 4.49-4.49H702a4.49 4.49 0 0 1 4.49 4.49 4.49 4.49 0 0 1-4.49 4.49Z"/><path fill="#a7d8f9" d="M694.87 730.23H500a13.82 13.82 0 0 1-13.82-13.82A13.82 13.82 0 0 1 500 702.59h194.9a13.82 13.82 0 0 1 13.82 13.82 13.82 13.82 0 0 1-13.85 13.82Z"/><circle cx="547.81" cy="716.41" r="8.55" fill="#1a37b4" transform="rotate(-22.37 547.85 716.443)"/><circle cx="572.62" cy="716.41" r="8.55" fill="#1a37b4" transform="rotate(-45 572.615 716.405)"/><circle cx="597.42" cy="716.41" r="8.55" fill="#1a37b4" transform="rotate(-76.67 597.36 716.395)"/><circle cx="622.23" cy="716.41" r="8.55" fill="#1a37b4" transform="rotate(-22.37 622.262 716.442)"/><circle cx="647.03" cy="716.41" r="8.55" fill="#1a37b4" transform="rotate(-45 647.028 716.412)"/><circle cx="512.05" cy="341.25" r="25.73" fill="#71b0dd"/><path fill="#1a37b5" d="M507.94 323.23a4.31 4.31 0 1 1 8.61-.14 4.45 4.45 0 0 1-4.38 4.45 4.17 4.17 0 0 1-4.23-4.31ZM518.55 357.76a3 3 0 0 1-3-3v-21a3 3 0 0 1 3-3 1 1 0 0 0 0-2h-13a1 1 0 1 0 0 2 3 3 0 0 1 3 3v21a3 3 0 0 1-3 3 1 1 0 1 0 0 2h13a1 1 0 0 0 0-2Z"/><ellipse cx="292.49" cy="855.23" fill="#fcfdff" opacity=".06" rx="233.49" ry="25.42"/><ellipse cx="292.09" cy="855.23" fill="#f9fbfe" opacity=".11" rx="222.09" ry="24.18"/><ellipse cx="291.69" cy="855.23" fill="#f5f8fe" opacity=".17" rx="210.69" ry="22.93"/><ellipse cx="291.29" cy="855.23" fill="#f2f6fd" opacity=".22" rx="199.29" ry="21.68"/><ellipse cx="290.89" cy="855.23" fill="#eff4fd" opacity=".28" rx="187.89" ry="20.43"/><ellipse cx="290.49" cy="855.23" fill="#ecf2fc" opacity=".33" rx="176.49" ry="19.18"/><ellipse cx="290.1" cy="855.23" fill="#e9f0fc" opacity=".39" rx="165.09" ry="17.93"/><ellipse cx="289.7" cy="855.23" fill="#e6eefb" opacity=".44" rx="153.69" ry="16.69"/><ellipse cx="289.3" cy="855.23" fill="#e3ecfb" opacity=".5" rx="142.29" ry="15.44"/><ellipse cx="288.9" cy="855.23" fill="#dfe9fb" opacity=".56" rx="130.89" ry="14.19"/><ellipse cx="288.5" cy="855.23" fill="#dce7fa" opacity=".61" rx="119.49" ry="12.94"/><ellipse cx="288.1" cy="855.23" fill="#d9e5fa" opacity=".67" rx="108.09" ry="11.69"/><ellipse cx="287.7" cy="855.23" fill="#d6e3f9" opacity=".72" rx="96.69" ry="10.44"/><ellipse cx="287.3" cy="855.23" fill="#d3e1f9" opacity=".78" rx="85.29" ry="9.19"/><ellipse cx="286.9" cy="855.23" fill="#d0dff8" opacity=".83" rx="73.89" ry="7.95"/><path fill="#ccdcf8" d="M349 855.23c0 3.7-28 6.7-62.5 6.7s-62.49-3-62.49-6.7 28-6.7 62.49-6.7 62.5 3 62.5 6.7Z" opacity=".89"/><path fill="#c9daf7" d="M337.2 855.23c0 3-22.88 5.45-51.1 5.45s-51.1-2.44-51.1-5.45 22.87-5.45 51.09-5.45 51.11 2.44 51.11 5.45Z" opacity=".94"/><path fill="#c6d8f7" d="M325.4 855.23c0 2.32-17.77 4.2-39.7 4.2s-39.7-1.88-39.7-4.2 17.77-4.2 39.69-4.2 39.71 1.88 39.71 4.2Z"/><path fill="#ff9a08" d="m317.13 790.74-1.24 63.32-177.58-7.12s-5.59-41 30.19-53.06C181.29 789.57 189 744 189 744Z"/><path fill="#304ad5" d="m316.8 807.82-.6 30.58-31.32-1.26c4.22-14.6 16.51-25.89 31.92-29.32Z"/><path fill="#1a37b5" d="m315.89 854.06-177.58-7.12a59.68 59.68 0 0 1 .05-12.94l177.84 4.4Z"/><path fill="#304ad5" d="M214.77 792.69c-17.14-9.38-29-11.78-36.16-12 .52-1.31 1-2.67 1.46-4 8 .52 20.05 3.37 36.79 12.54a2 2 0 0 1 .81 2.79 2.17 2.17 0 0 1-2.9.67ZM210.45 804.21c-19.67-10.78-32.33-12.35-39-12a17.79 17.79 0 0 0 3.53-4.09c8 .36 20.28 3.08 37.62 12.57a2 2 0 0 1 .81 2.79 2.18 2.18 0 0 1-2.96.73Z"/><path fill="#ff9a08" d="m390.13 665.3 60.07 20-59.68 167.4s-40.81-6.87-41.66-44.61c-.31-13.5-38.92-37.87-38.92-37.87Z"/><path fill="#304ad5" d="m406.33 670.71 29 9.68-10.53 29.52c-12.67-8.38-19.8-23.47-18.47-39.2Z"/><path fill="#1a37b5" d="m450.2 685.34-59.68 167.4a59.84 59.84 0 0 1-12.34-3.89l57.17-168.46Z"/><path fill="#304ad5" d="M361.51 763.61c-14.07 13.56-19.88 24.12-22.26 30.92-1.1-.88-2.24-1.75-3.43-2.59 2.87-7.46 9.19-18.14 22.92-31.39a2 2 0 0 1 2.91.06 2.18 2.18 0 0 1-.14 3ZM371.21 771.15c-16.14 15.58-21.41 27.19-23.1 33.7a17.74 17.74 0 0 0-2.87-4.58c2.72-7.49 9-18.45 23.21-32.17a2 2 0 0 1 2.91 0 2.17 2.17 0 0 1-.15 3.05Z"/><path fill="url(#Безымянный_градиент_3)" d="m128.53 312.77-18.43 1.52.91 11.34 37.78 54.86 20.18-10.99-40.44-56.73z"/><path fill="#304ad5" d="M262.28 443.37c-44.4 66.9-90.53 116.27-10.48 279.24l80.06 63.85 58.13-121s-111.5-41.96-78.39-146.11l5-64.54Z"/><path fill="#f7aaa1" d="M208 378.21c-5.56 0-25.23-12.77-34-27-4.58-7.42-5.49-14-2.7-19.59 2.26-4.53 8-10.35 10.51-12.8l-13.93-8.25a6.32 6.32 0 0 1-.25-10.72 6.27 6.27 0 0 1 6-.53c17.22 7.4 38.38 17 41.45 20.88 2.1 2.64 8.84 8.33 18.5 15.61a6.31 6.31 0 0 1 1.64 8.24c-9.22 15.59-21.31 34.16-27.22 34.16Zm-37-76.67a3.61 3.61 0 0 0-3.59 3.6 3.61 3.61 0 0 0 1.77 3.09l14.11 8.37a2.57 2.57 0 0 1 .48 4c-2.34 2.25-8 8-10.13 12.2-2.34 4.68-1.47 10.38 2.59 16.94 8.32 13.47 27.26 25.69 31.69 25.69 2.6 0 10.66-8.59 24.83-32.8a3.58 3.58 0 0 0-.94-4.68c-5.78-4.36-15.93-12.24-19-16.09-2.05-2.58-17.15-10.09-40.39-20.07a3.63 3.63 0 0 0-1.42-.25Z"/><path fill="#ffc8bd" d="M234 343.37a5 5 0 0 0-1.29-6.46c-5.48-4.13-15.76-12.09-18.75-15.85S185.5 306 173 300.58a5 5 0 0 0-6.92 4.56 5 5 0 0 0 2.43 4.27l13 7.35c.68.4 1.87 2.35 1.3 2.9-2.45 2.37-8.19 8.15-10.4 12.58-9.1 18.2 28.22 44.6 35.5 44.6 5.89 0 20.48-23.94 26.09-33.47Z"/><path fill="#f7aaa1" d="M208 377.8c-5.49 0-24.94-12.68-33.67-26.79-4.5-7.29-5.41-13.75-2.68-19.2 2.24-4.48 7.93-10.26 10.44-12.69a3.64 3.64 0 0 0-1-1.54l-13-7.34a6 6 0 0 1-2.92-5.1 5.92 5.92 0 0 1 8.26-5.43c17.17 7.38 38.27 17 41.29 20.76 2.12 2.66 8.88 8.37 18.57 15.67a5.93 5.93 0 0 1 1.54 7.71c-9.1 15.49-21.11 33.95-26.83 33.95Zm-37-76.68a4 4 0 0 0-2.2.67 4 4 0 0 0-1.8 3.35 4 4 0 0 0 2 3.45l13 7.34a4.93 4.93 0 0 1 2 3.07 1.57 1.57 0 0 1-.43 1.37c-2.35 2.27-8.05 8-10.21 12.31-2.41 4.82-1.53 10.65 2.6 17.35 8.4 13.57 27.56 25.88 32.05 25.88 3.62 0 13.27-12.65 25.18-33a4 4 0 0 0-1-5.22c-5.76-4.35-15.88-12.21-18.92-16-2.09-2.63-17.25-10.18-40.55-20.19a3.92 3.92 0 0 0-1.72-.38Z"/><path fill="#5170ef" d="m371.83 462.71-75.56-19.41s-52.13 99.07-61.91 121.07c-25.49 57.36-51 203-51 203l132.91 26.4s-8.75-105.86-1.63-165.77 58.1-83.07 57.19-165.29Z"/><path fill="#4e90ba" d="m259.33 348.18-31.34-15.03-26.4 48.24 76.69 16.06 23.16-89.14-42.11 39.87z"/><path fill="#71b1de" d="M278.56 334.55c-26.69 51.45-24.17 121.66-24.17 121.66L372 467.12s12-126-20.08-154.49c-18.73-16.64-42.3-7.71-49.56-9.53Z"/><path fill="#f7aaa1" d="M187.12 339.46a1 1 0 0 1-.52-.15c-1.89-1.22-6.28-4.3-6.28-6.49s6-8 8.56-10.39a1 1 0 0 1 1.31 1.39c-3.72 3.5-7.82 7.95-8 9 0 .71 2.59 3 5.4 4.87a1 1 0 0 1 .29 1.32 1 1 0 0 1-.76.45Z"/><path fill="#ffc8bd" d="m326.9 287.1 4.36 17.81s-8.83 19.29-22.87 15.54-7.68-18.45-7.68-18.45Z"/><path fill="#ffc8bd" d="M284 260.24c1.65-17.41 21.92-25.81 35.88-20.85 12.84 4.57 19.41 19.65 15.81 34.87a6.42 6.42 0 0 1 1.19.34c3.66 1.45 5.31 5.95 3.69 10s-5.91 6.25-9.58 4.8a6.57 6.57 0 0 1-1.91-1.18c-7.62 9.93-20.93 21.44-31.71 17.61-13.95-4.91-15.29-25.38-13.37-45.59Z"/><path fill="#1a37b5" d="M309.62 269.69c-.75 2.19-.47 4.26.62 4.64s2.58-1.11 3.33-3.3.47-4.27-.62-4.64-2.58 1.11-3.33 3.3ZM291.34 262.93c-.75 2.19-.47 4.26.62 4.63s2.58-1.1 3.33-3.29.47-4.27-.62-4.64-2.58 1.1-3.33 3.3Z"/><path fill="#f7aaa1" d="M301.28 285.63h-.1a27.4 27.4 0 0 1-5.36-1 2.62 2.62 0 0 1-1.48-1.79c-.32-1.32.24-2.91 1.65-4.74a45 45 0 0 0 4.43-8.17.93.93 0 1 1 1.71.71 46.26 46.26 0 0 1-4.67 8.6c-1.44 1.84-1.4 2.82-1.32 3.16a.77.77 0 0 0 .45.54 25.3 25.3 0 0 0 4.79.87.93.93 0 0 1-.1 1.85ZM302.65 294.92a9.5 9.5 0 0 1-3.54-.61.91.91 0 0 1-.52-1.2.93.93 0 0 1 1.2-.52c3.69 1.45 9-.83 9.07-.85a.93.93 0 0 1 .74 1.7 19.64 19.64 0 0 1-6.95 1.48Z"/><path fill="url(#Безымянный_градиент_16)" d="M336.88 274.6a6.42 6.42 0 0 0-1.19-.34c3.6-15.22-3-30.3-15.81-34.87-10.94-3.89-23.17 1-30.77 11.23a20.53 20.53 0 0 1-6.06-22.22c3.58-10.91 19-12 34.18-6.78s15.34 17.93 17.93 19.85 10.89-.45 17.3 7.83c3.21 4.14 3.88 9.34 2.77 14.37-2.65 12-8.73 17.58-14.37 20.1 1.08-3.85-.58-7.83-3.98-9.17Z"/><path fill="url(#Безымянный_градиент_16-2)" d="M329 285.64s20.81-19.22-2.38-43.48c-2.23-2.34 5.82-15.28-9.38-20.54s-30.6-4.13-34.18 6.78 1.64 22.83 15.62 27.68 29 5.4 32.1 14.3a16.93 16.93 0 0 1-1.78 15.26Z"/><path fill="#5170ef" d="M334 274.36a1 1 0 0 0 .84-.58c.14-.29 3.25-7.25-3.9-15.52-3.64-4.21-12-5.75-20.87-7.38-7.58-1.4-15.42-2.84-19.32-6-8-6.53-6.38-23.57-6.36-23.74a1 1 0 1 0-2-.2c-.07.74-1.77 18.28 7.1 25.5 4.3 3.5 12.39 5 20.22 6.43 8.13 1.49 16.54 3 19.72 6.72 6.26 7.24 3.71 13.12 3.59 13.37a1 1 0 0 0 .5 1.33 1 1 0 0 0 .48.07Z"/><path fill="#5170ef" d="M347.67 272.25a1 1 0 0 0 .81-.52c.09-.15 8.35-15.53-2.82-22.24-4.66-2.8-9.07-.23-11.35 2.09a24.88 24.88 0 0 0-10.24-6.72c-5.4-1.82-10.08-1.78-14.2-1.75-5.46 0-9.78.07-13.93-4.05-6.86-6.82-1.3-15.36-1.06-15.72a1 1 0 0 0-.27-1.38 1 1 0 0 0-1.39.27c-.07.1-6.73 10.25 1.31 18.25 4.74 4.71 9.66 4.67 15.35 4.63 4 0 8.47-.07 13.55 1.65a22.79 22.79 0 0 1 10.07 7 1 1 0 0 0 .79.4 1 1 0 0 0 .8-.39c.18-.23 4.45-5.58 9.54-2.52 9.52 5.73 2.4 19 2.09 19.57a1 1 0 0 0 .4 1.36 1.1 1.1 0 0 0 .55.07Z"/><path fill="#1a37b5" d="M312.38 281a9.64 9.64 0 0 1-10-11.91 9.62 9.62 0 1 1 10 11.91ZM304 269.48a8 8 0 0 0 11.85 8.69 7.95 7.95 0 0 0-2.23-14.52 7.95 7.95 0 0 0-9.62 5.83Z"/><path fill="#1a37b5" d="M301.13 267.6h1.68v2.52h-1.68z" transform="rotate(-70.49 301.978 268.863)"/><path fill="#1a37b5" d="M293.29 274.37a9.6 9.6 0 0 1-8.9-4.61 9.52 9.52 0 0 1-1.12-7.29 9.63 9.63 0 1 1 10 11.9Zm-1.21-17.54a8 8 0 0 0-7.18 6 8 8 0 1 0 9.62-5.83 7.82 7.82 0 0 0-2.44-.17ZM330.84 270.6l-11 .66.1 1.68 11.33-.68a16.77 16.77 0 0 0-.43-1.66Z"/><path fill="#f7aaa1" d="M184.12 345.23a1 1 0 0 1-1-1c0-.67.53-1.21 1.81-2.52 3.09-3.16 8.85-9 5.57-15.59-2.55-5.11-13.12-10.44-13.23-10.5a.94.94 0 0 1-.42-1.27 1 1 0 0 1 1.28-.43c.45.23 11.24 5.67 14.08 11.35 3.88 7.76-2.74 14.53-5.92 17.78a17.42 17.42 0 0 0-1.29 1.39 1 1 0 0 1-.88.79Z"/><path fill="#ffc8bd" d="M226.53 383a4.71 4.71 0 0 0-3.49-4c-5.46-1.44-16.54-4.48-19.16-6.23-3.5-2.34-7-14-19.87-18.7-10.42-3.79-32.34-16.29-40.29-20.9a4.74 4.74 0 0 0-5.52.56l-.9.8a4.75 4.75 0 0 0-.4 6.7c6.09 6.84 18.77 21.3 17.88 22.19-1.17 1.17-18.63-.4-22.76-7.8-3.65-6.54-12.05-26.59-14-31.15a4.6 4.6 0 0 0-1.13-1.63 4.74 4.74 0 0 0-8 3.54c.17 11.44 2.16 29.58 11.91 41.64 15.2 18.78 43.26 53.86 79.51 65.55 31.42 10.14 27.78-37.51 26.22-50.57Z"/><path fill="#f7aaa1" d="M208.38 436a27.38 27.38 0 0 1-8.32-1.44c-36.11-11.65-64.31-46.51-79.45-65.23l-.54-.66c-9.69-12-11.95-29.6-12.14-42.27a5.77 5.77 0 0 1 11.07-2.31c1.68 4 10.24 24.51 13.89 31.05 3.38 6.05 17.05 7.83 20.57 7.59-1.3-2.14-6.35-8.45-17.35-20.8a5.77 5.77 0 0 1 .49-8.14l.9-.81a5.75 5.75 0 0 1 6.72-.67c8.66 5 29.9 17.09 40.12 20.81 9.2 3.35 13.81 10.21 16.85 14.74a17.28 17.28 0 0 0 3.24 4.08c1.79 1.19 8.66 3.41 18.85 6.09a5.71 5.71 0 0 1 4.25 4.88c1.38 11.57 3.28 39.57-8.85 49.56a15.73 15.73 0 0 1-10.3 3.53Zm-94.65-113.41a3.9 3.9 0 0 0-1.53.32 3.69 3.69 0 0 0-2.22 3.47c.19 12.35 2.37 29.49 11.69 41l.53.66c15 18.56 43 53.1 78.49 64.57 7 2.24 12.59 1.66 16.71-1.73 11.67-9.61 9.16-39 8.12-47.74a3.7 3.7 0 0 0-2.74-3.14c-6.12-1.61-16.77-4.57-19.46-6.36-1.26-.84-2.38-2.52-3.81-4.64-3.07-4.58-7.27-10.84-15.85-14-10.38-3.78-31.74-15.92-40.45-21a3.7 3.7 0 0 0-4.33.44l-.9.8a3.7 3.7 0 0 0-.31 5.25c19.51 21.91 18.74 22.69 17.83 23.59s-5 .63-7.32.31c-3.16-.43-13.71-2.33-17.06-8.33-3.71-6.64-12.31-27.2-14-31.26a3.78 3.78 0 0 0-3.4-2.29Zm40.46 40Z"/><path fill="#e4eaf6" d="m162 377.76 32.2-12.6a2.85 2.85 0 0 0 1.22-4.6l-44.35-60.26a5.37 5.37 0 0 0-5.93-1.81l-32.21 12.59a2.85 2.85 0 0 0-1.22 4.6L156.07 376a5.39 5.39 0 0 0 5.93 1.76Z"/><path fill="url(#Безымянный_градиент_3-2)" d="M155.07 376.14 111 316.19c-1.69-2.29-1-5 1.58-6l31.85-12.45a7 7 0 0 1 7.69 2.34l44.13 59.95c1.68 2.29 1 5-1.58 6l-31.85 12.45a7 7 0 0 1-7.75-2.34Zm-41.37-64.33a2.28 2.28 0 0 0-1 3.69l44.12 59.95a4.32 4.32 0 0 0 4.76 1.44l31.85-12.45a2.29 2.29 0 0 0 1-3.69l-44.12-59.95a4.32 4.32 0 0 0-4.77-1.45Z"/><path fill="url(#Безымянный_градиент_3-3)" d="m174 369.4 3.67-1.44a.93.93 0 0 0 .48-1.47 1.73 1.73 0 0 0-1.93-.53l-3.67 1.44a.93.93 0 0 0-.48 1.47 1.73 1.73 0 0 0 1.93.53Z"/><path fill="#fff" d="m156.58 371.59 33.58-13.13-40.68-55.28-33.59 13.13 40.69 55.28z" opacity=".58"/><path fill="#ffc8bd" d="M226.53 383a4.72 4.72 0 0 0-3.5-4c-5.46-1.44-16.55-4.48-19.17-6.23-3.51-2.34-7-14.05-19.9-18.73-10.43-3.79-32.37-16.3-40.32-20.91a4.74 4.74 0 0 0-5.53.56l-.91.8a4.74 4.74 0 0 0-.39 6.7c6.09 6.85 18.79 21.32 17.89 22.22-.48.48-20.13-4.62-15.6 7.91 6.4 17.71 40 55.45 61.25 62.31 31.39 10.09 27.74-37.63 26.18-50.63Z"/><path fill="#f7aaa1" d="M208.39 436.53a27.5 27.5 0 0 1-8.48-1.48c-36.27-11.69-64.52-46.62-79.7-65.39l-.53-.66c-9.79-12.09-12.07-29.83-12.26-42.58a6.27 6.27 0 0 1 12.07-2.52c1.68 4 10.24 24.49 13.87 31 3 5.41 14.76 7.38 19.17 7.38-1.81-2.61-6.87-8.84-16.81-20a6.26 6.26 0 0 1 .53-8.87l.9-.8a6.28 6.28 0 0 1 7.32-.74c6.74 3.91 29.56 17 40 20.78 9.37 3.4 14 10.35 17.11 14.94a17.11 17.11 0 0 0 3.1 3.93c1.71 1.15 8.7 3.4 18.69 6a6.24 6.24 0 0 1 4.63 5.32c1.39 11.66 3.29 39.87-9 50a16.24 16.24 0 0 1-10.61 3.69ZM113.73 323.1a3.26 3.26 0 0 0-1.32.28 3.14 3.14 0 0 0-1.92 3c.15 10 1.86 28.68 11.58 40.69l.53.65c15 18.52 42.86 53 78.25 64.41 6.79 2.19 12.24 1.64 16.22-1.64 11.47-9.44 9-38.57 7.94-47.28a3.17 3.17 0 0 0-2.36-2.7c-7.51-2-17-4.7-19.62-6.44-1.33-.89-2.49-2.61-3.94-4.78-3-4.51-7.19-10.7-15.61-13.76-10.42-3.79-31.81-15.95-40.53-21a3.2 3.2 0 0 0-3.73.38l-.9.8a3.19 3.19 0 0 0-.27 4.53c19.84 22.27 19.08 23 17.82 24.3-.9.89-3.51 1-7.77.45-3.21-.45-14-2.39-17.43-8.59-3.61-6.48-11.64-25.6-14-31.31a3.11 3.11 0 0 0-.76-1.1 3.15 3.15 0 0 0-2.18-.89Z"/><path fill="#71b1de" d="m329.05 328.67-58.12 62-49.16-25.27-27.29 68.45s84.2 36.38 106.49 12.88c16.94-17.86 45.54-71.88 58.3-96.81a18.65 18.65 0 0 0-4.16-22.39 18.65 18.65 0 0 0-26.06 1.14Z"/><path fill="#4e90ba" d="m271.23 392.45-10.77-5.55a1.43 1.43 0 1 1 1.31-2.54l8.85 4.56L328 327.69a20.2 20.2 0 0 1 28.06-1.22 1.43 1.43 0 1 1-1.91 2.13 17.33 17.33 0 0 0-24.07 1ZM275.68 456.06a121.71 121.71 0 0 1-21.61-2.22 1.43 1.43 0 0 1 .51-2.81c22.81 4.17 38.07 2.4 45.36-5.29 17-17.92 46.26-73.43 58.06-96.47a1.43 1.43 0 1 1 2.54 1.3c-11.85 23.15-41.27 78.95-58.53 97.14-5.28 5.56-14.1 8.35-26.33 8.35Z"/></g></svg>